VelekaWorld-RegularItalic.ufo
<glyph name="comma" format="2">
  <advance width="279"/>
  <unicode hex="002C"/>
  <outline>
    <contour>
      <point x="159" y="47" type="curve" smooth="yes" name="n00"/>
      <point x="159" y="-66"/>
      <point x="54" y="-160"/>
      <point x="-55" y="-170" type="curve"/>
      <point x="-48" y="-134" type="line"/>
      <point x="34" y="-116"/>
      <point x="75" y="-75"/>
      <point x="90" y="7" type="curve" name="n07"/>
      <point x="27" y="7" type="line"/>
      <point x="20" y="16"/>
      <point x="17" y="28"/>
      <point x="17" y="39" type="curve" smooth="yes" name="n11"/>
      <point x="17" y="79"/>
      <point x="53" y="122"/>
      <point x="94" y="122" type="curve" smooth="yes" name="n14"/>
      <point x="141" y="122"/>
      <point x="159" y="90"/>
    </contour>
  </outline>
</glyph>
<glyph name="hyphen" format="2">
  <advance width="318"/>
  <unicode hex="002D"/>
  <outline>
    <contour>
      <point x="283" y="275" type="line" name="n00"/>
      <point x="270" y="207" type="line" name="n01"/>
      <point x="30" y="207" type="line"/>
      <point x="43" y="275" type="line"/>
    </contour>
  </outline>
</glyph>
<glyph name="slash" format="2">
  <advance width="490"/>
  <unicode hex="002F"/>
  <outline>
    <contour>
      <point x="490" y="671" type="line" name="n00"/>
      <point x="64" y="-93" type="line" name="n01"/>
      <point x="0" y="-93" type="line"/>
      <point x="426" y="671" type="line"/>
    </contour>
  </outline>
</glyph>
<glyph name="one" format="2">
  <advance width="556"/>
  <unicode hex="0031"/>
  <outline>
    <contour>
      <point x="423" y="687" type="line" name="n00"/>
      <point x="304" y="72" type="line" smooth="yes"/>
      <point x="301.876" y="61.0233"/>
      <point x="307" y="53"/>
      <point x="323" y="52" type="curve" smooth="yes"/>
      <point x="398" y="47" type="line"/>
      <point x="398" y="0" type="line"/>
      <point x="84" y="0" type="line"/>
      <point x="84" y="47" type="line"/>
      <point x="185" y="52" type="line"/>
      <point x="196" y="53"/>
      <point x="202" y="62"/>
      <point x="204" y="72" type="curve" smooth="yes"/>
      <point x="306" y="595" type="line"/>
      <point x="149" y="575" type="line"/>
      <point x="149" y="620" type="line"/>
      <point x="386" y="687" type="line"/>
    </contour>
  </outline>
</glyph>
<glyph name="colon" format="2">
  <advance width="279"/>
  <unicode hex="003A"/>
  <outline>
    <contour>
      <point x="225" y="427" type="curve" smooth="yes" name="n00"/>
      <point x="225" y="390"/>
      <point x="194" y="360"/>
      <point x="157" y="360" type="curve" smooth="yes" name="n03"/>
      <point x="120" y="360"/>
      <point x="90" y="390"/>
      <point x="90" y="427" type="curve" smooth="yes" name="n06"/>
      <point x="90" y="464"/>
      <point x="120" y="494"/>
      <point x="157" y="494" type="curve" smooth="yes" name="n09"/>
      <point x="194" y="494"/>
      <point x="225" y="464"/>
    </contour>
    <contour>
      <point x="152" y="55" type="curve" smooth="yes" name="n12"/>
      <point x="152" y="18" name="hr01"/>
      <point x="121" y="-12"/>
      <point x="84" y="-12" type="curve" smooth="yes" name="n15"/>
      <point x="47" y="-12"/>
      <point x="17" y="18"/>
      <point x="17" y="55" type="curve" smooth="yes" name="n18"/>
      <point x="17" y="92"/>
      <point x="47" y="122"/>
      <point x="84" y="122" type="curve" smooth="yes" name="n21"/>
      <point x="121" y="122"/>
      <point x="152" y="92"/>
    </contour>
  </outline>
</glyph>
<glyph name="E" format="2">
  <advance width="558"/>
  <unicode hex="0045"/>
  <anchor x="350" y="760" name="top"/>
  <outline>
    <contour>
      <point x="580" y="671" type="line" name="n00"/>
      <point x="550" y="521" type="line" name="n01"/>
      <point x="486" y="521" type="line"/>
      <point x="486" y="602" type="line" smooth="yes"/>
      <point x="486" y="616"/>
      <point x="482" y="621" name="hr01"/>
      <point x="467" y="621" type="curve" smooth="yes" name="n06"/>
      <point x="275" y="621" type="line"/>
      <point x="229" y="375" type="line"/>
      <point x="363" y="375" type="line" smooth="yes" name="n09"/>
      <point x="377" y="375"/>
      <point x="384" y="380"/>
      <point x="388" y="394" type="curve" smooth="yes"/>
      <point x="407" y="461" type="line"/>
      <point x="463" y="461" type="line"/>
      <point x="419" y="232" type="line"/>
      <point x="362" y="232" type="line" name="n16"/>
      <point x="372" y="303" type="line"/>
      <point x="371.97" y="315.354"/>
      <point x="366.022" y="323" name="hr02"/>
      <point x="353" y="323" type="curve" smooth="yes" name="n20"/>
      <point x="218" y="323" type="line"/>
      <point x="166" y="50" type="line"/>
      <point x="401" y="50" type="line" smooth="yes" name="n23"/>
      <point x="415" y="50"/>
      <point x="422.113" y="57.9629"/>
      <point x="426" y="70" type="curve" smooth="yes"/>
      <point x="457" y="166" type="line" name="n27"/>
      <point x="518" y="166" type="line"/>
      <point x="485" y="0" type="line" name="n29"/>
      <point x="-15" y="0" type="line"/>
      <point x="-15" y="42" type="line"/>
      <point x="43" y="47" type="line" smooth="yes"/>
      <point x="56" y="48"/>
      <point x="64.691" y="54.0556"/>
      <point x="67" y="66" type="curve" smooth="yes"/>
      <point x="171" y="604" type="line"/>
      <point x="171.351" y="613.656"/>
      <point x="165.293" y="622.813"/>
      <point x="152" y="624" type="curve" smooth="yes"/>
      <point x="96" y="629" type="line"/>
      <point x="96" y="671" type="line"/>
    </contour>
  </outline>
</glyph>
<glyph name="H" format="2">
  <advance width="725"/>
  <unicode hex="0048"/>
  <outline>
    <contour>
      <point x="767" y="629" type="line"/>
      <point x="709" y="624" type="line" smooth="yes"/>
      <point x="697.003" y="622.966"/>
      <point x="688" y="617"/>
      <point x="685" y="604" type="curve"/>
      <point x="581" y="66" type="line" smooth="yes"/>
      <point x="579" y="56"/>
      <point x="583" y="48"/>
      <point x="601" y="47" type="curve" name="n08"/>
      <point x="601" y="47"/>
      <point x="643.214" y="43.2309"/>
      <point x="657" y="42" type="curve"/>
      <point x="657" y="0" type="line" name="n12"/>
      <point x="396" y="0" type="line"/>
      <point x="396" y="42" type="line"/>
      <point x="411.02" y="43.2517"/>
      <point x="456" y="47"/>
      <point x="456" y="47" type="curve"/>
      <point x="468" y="48"/>
      <point x="477.703" y="54.0534"/>
      <point x="480" y="66" type="curve" smooth="yes"/>
      <point x="530" y="326" type="line" name="n21"/>
      <point x="218" y="326" type="line"/>
      <point x="168" y="66" type="line" smooth="yes"/>
      <point x="166" y="56"/>
      <point x="170" y="48"/>
      <point x="187" y="47" type="curve"/>
      <point x="187" y="47"/>
      <point x="230.722" y="43.2309"/>
      <point x="245" y="42" type="curve"/>
      <point x="245" y="0" type="line"/>
      <point x="-15" y="0" type="line"/>
      <point x="-15" y="42" type="line"/>
      <point x="-0.729373" y="43.2518"/>
      <point x="42" y="47"/>
      <point x="42" y="47" type="curve"/>
      <point x="55" y="48"/>
      <point x="64" y="54"/>
      <point x="67" y="66" type="curve"/>
      <point x="171" y="604" type="line" smooth="yes"/>
      <point x="173" y="615"/>
      <point x="169" y="623"/>
      <point x="151" y="624" type="curve" name="n42"/>
      <point x="151" y="624"/>
      <point x="108.779" y="627.77"/>
      <point x="95" y="629" type="curve"/>
      <point x="95" y="671" type="line" name="n46"/>
      <point x="355" y="671" type="line"/>
      <point x="355" y="629" type="line"/>
      <point x="340.23" y="627.748"/>
      <point x="296" y="624"/>
      <point x="296" y="624" type="curve"/>
      <point x="284" y="623"/>
      <point x="274" y="617"/>
      <point x="272" y="604" type="curve"/>
      <point x="228" y="376" type="line"/>
      <point x="540" y="376" type="line" name="n56"/>
      <point x="584" y="604" type="line" smooth="yes"/>
      <point x="586.118" y="614.978"/>
      <point x="582" y="623"/>
      <point x="564" y="624" type="curve"/>
      <point x="564" y="624"/>
      <point x="520.281" y="627.835"/>
      <point x="507" y="629" type="curve"/>
      <point x="507" y="671" type="line"/>
      <point x="767" y="671" type="line"/>
    </contour>
  </outline>
</glyph>
<glyph name="P" format="2">
  <advance width="565"/>
  <unicode hex="0050"/>
  <outline>
    <contour>
      <point x="571" y="511" type="curve" smooth="yes" name="n00"/>
      <point x="571" y="356.188"/>
      <point x="448.158" y="250"/>
      <point x="269.067" y="250" type="curve" smooth="yes" name="n03"/>
      <point x="246" y="250"/>
      <point x="231.875" y="249.8"/>
      <point x="203.213" y="253" type="curve"/>
      <point x="166" y="66" type="line"/>
      <point x="166" y="54.3569"/>
      <point x="172.497" y="48.1844"/>
      <point x="186" y="47" type="curve" smooth="yes"/>
      <point x="243" y="42" type="line"/>
      <point x="243" y="0" type="line" name="n12"/>
      <point x="-17" y="0" type="line"/>
      <point x="-17" y="42" type="line"/>
      <point x="41" y="47" type="line" smooth="yes"/>
      <point x="54.2423" y="48.1416"/>
      <point x="62.8343" y="54.9032"/>
      <point x="65" y="66" type="curve" smooth="yes"/>
      <point x="170" y="604" type="line"/>
      <point x="170.424" y="616.876"/>
      <point x="164.604" y="622.696"/>
      <point x="150" y="624" type="curve" smooth="yes"/>
      <point x="94" y="629" type="line"/>
      <point x="94" y="671" type="line"/>
      <point x="343" y="671" type="line" smooth="yes" name="n25"/>
      <point x="491.262" y="671"/>
      <point x="571" y="615.044"/>
    </contour>
    <contour>
      <point x="467" y="492.506" type="curve" smooth="yes" name="n28"/>
      <point x="467" y="580.16"/>
      <point x="416.435" y="624"/>
      <point x="315.338" y="624" type="curve" smooth="yes" name="n31"/>
      <point x="300" y="624"/>
      <point x="290.213" y="624"/>
      <point x="274" y="622" type="curve"/>
      <point x="212" y="304" type="line"/>
      <point x="222.181" y="303.122"/>
      <point x="232.36" y="302.686"/>
      <point x="242.464" y="302.694" type="curve" smooth="yes" name="n38"/>
      <point x="378.156" y="302.802"/>
      <point x="467" y="377.906"/>
    </contour>
  </outline>
</glyph>
<glyph name="S" format="2">
  <advance width="520"/>
  <unicode hex="0053"/>
  <outline>
    <contour>
      <point x="513" y="651" type="curve"/>
      <point x="481" y="498" type="line"/>
      <point x="422" y="498" type="line"/>
      <point x="426" y="599" type="line"/>
      <point x="419.219" y="619.167"/>
      <point x="375.838" y="638"/>
      <point x="333.512" y="638" type="curve" smooth="yes" name="n06"/>
      <point x="258.126" y="638"/>
      <point x="188" y="578.254"/>
      <point x="188" y="513.591" type="curve" smooth="yes" name="n09"/>
      <point x="188" y="460.798"/>
      <point x="234.742" y="411.435"/>
      <point x="327.459" y="368.976" type="curve" smooth="yes"/>
      <point x="423.782" y="324.866"/>
      <point x="467" y="274.899"/>
      <point x="467" y="199.613" type="curve" smooth="yes" name="n15"/>
      <point x="467" y="76.576"/>
      <point x="351.573" y="-16"/>
      <point x="199.558" y="-16" type="curve" smooth="yes" name="n18"/>
      <point x="123.053" y="-16"/>
      <point x="33.01" y="7.44846"/>
      <point x="-5" y="36" type="curve"/>
      <point x="29" y="197" type="line"/>
      <point x="97.2549" y="197" type="line"/>
      <point x="86.0392" y="82" type="line"/>
      <point x="93.9752" y="65.0743"/>
      <point x="167.793" y="36"/>
      <point x="202.831" y="36" type="curve" smooth="yes" name="n27"/>
      <point x="295.26" y="36"/>
      <point x="363" y="97.7469"/>
      <point x="363" y="182" type="curve" smooth="yes" name="n30"/>
      <point x="363" y="228.759"/>
      <point x="317.801" y="270.908"/>
      <point x="230.468" y="309.001" type="curve" smooth="yes"/>
      <point x="128.705" y="353.389"/>
      <point x="84" y="403.348"/>
      <point x="84" y="468" type="curve" smooth="yes" name="n36"/>
      <point x="84" y="596.808"/>
      <point x="191.884" y="687"/>
      <point x="337.583" y="687" type="curve" smooth="yes" name="n39"/>
      <point x="397.4" y="687"/>
      <point x="467.938" y="671.798"/>
    </contour>
  </outline>
</glyph>
<glyph name="backslash" format="2">
  <advance width="488"/>
  <unicode hex="005C"/>
  <outline>
    <contour>
      <point x="489" y="-93" type="line" name="n00"/>
      <point x="425" y="-93" type="line"/>
      <point x="0" y="671" type="line" name="n02"/>
      <point x="64" y="671" type="line"/>
    </contour>
  </outline>
</glyph>
<glyph name="g" format="2">
  <advance width="439"/>
  <unicode hex="0067"/>
  <outline>
    <contour>
      <point x="485" y="422" type="line" name="n00"/>
      <point x="393" y="422" type="line"/>
      <point x="401.269" y="401.235"/>
      <point x="406" y="374.878"/>
      <point x="406" y="349.58" type="curve" smooth="yes"/>
      <point x="406" y="238.482"/>
      <point x="318.212" y="163"/>
      <point x="189" y="163" type="curve" name="n07"/>
      <point x="182.165" y="147.812"/>
      <point x="177.128" y="125.918"/>
      <point x="177.128" y="111.402" type="curve" smooth="yes"/>
      <point x="177.128" y="107.955"/>
      <point x="177.422" y="105.118"/>
      <point x="178" y="103" type="curve"/>
      <point x="312" y="42" type="line" smooth="yes"/>
      <point x="389.015" y="6.94115"/>
      <point x="414" y="-18.9634"/>
      <point x="414" y="-60.1301" type="curve" smooth="yes"/>
      <point x="414" y="-150.673"/>
      <point x="293.134" y="-229"/>
      <point x="160.194" y="-229" type="curve" smooth="yes" name="n20"/>
      <point x="45.6859" y="-229"/>
      <point x="-31" y="-170.887"/>
      <point x="-31" y="-88.7964" type="curve" smooth="yes" name="n23"/>
      <point x="-31" y="-23.963"/>
      <point x="16.8331" y="27"/>
      <point x="102" y="55" type="curve"/>
      <point x="101.232" y="58.9702"/>
      <point x="100.844" y="63.4681"/>
      <point x="100.844" y="68.412" type="curve" smooth="yes"/>
      <point x="100.844" y="103.169"/>
      <point x="118.997" y="149.997"/>
      <point x="141" y="172" type="curve"/>
      <point x="78.4498" y="199.144"/>
      <point x="48" y="241.186" name="hr01"/>
      <point x="48" y="302.532" type="curve" smooth="yes" name="n35"/>
      <point x="48" y="407.066"/>
      <point x="136.418" y="494"/>
      <point x="242.052" y="494" type="curve" smooth="yes" name="n38"/>
      <point x="279.463" y="494"/>
      <point x="323.121" y="483.096"/>
      <point x="349" y="468" type="curve" name="hr02"/>
      <point x="485" y="468" type="line" name="n42"/>
    </contour>
    <contour>
      <point x="310" y="362.436" type="curve" smooth="yes"/>
      <point x="310" y="416.409"/>
      <point x="287.22" y="452" name="hr03"/>
      <point x="252.136" y="452" type="curve" smooth="yes" name="n46"/>
      <point x="199.018" y="452"/>
      <point x="144" y="370.414"/>
      <point x="144" y="287.387" type="curve" smooth="yes" name="n49"/>
      <point x="144" y="233.779"/>
      <point x="166.936" y="200"/>
      <point x="202.693" y="200" type="curve" smooth="yes" name="n52"/>
      <point x="258.034" y="200"/>
      <point x="310" y="280.916"/>
    </contour>
    <contour>
      <point x="321" y="-87.3028" type="curve" smooth="yes"/>
      <point x="321" y="-60.8832"/>
      <point x="304.527" y="-41.7442"/>
      <point x="270" y="-26" type="curve" smooth="yes"/>
      <point x="145" y="31" type="line"/>
      <point x="92.9917" y="17.9979"/>
      <point x="63" y="-15.5745"/>
      <point x="63" y="-63.2372" type="curve" smooth="yes" name="n62"/>
      <point x="63" y="-129.523"/>
      <point x="121.008" y="-183"/>
      <point x="194.458" y="-183" type="curve" smooth="yes" name="n65"/>
      <point x="262.52" y="-183"/>
      <point x="321" y="-137.081"/>
    </contour>
  </outline>
</glyph>
<glyph name="o" format="2">
  <advance width="505"/>
  <unicode hex="006F"/>
  <anchor x="310" y="570" name="top"/>
  <outline>
    <contour>
      <point x="475" y="297.604" type="curve" smooth="yes" name="n00"/>
      <point x="475" y="138"/>
      <point x="363" y="-12"/>
      <point x="207.488" y="-12" type="curve" smooth="yes" name="n03"/>
      <point x="99" y="-12"/>
      <point x="31" y="61"/>
      <point x="31" y="183.995" type="curve" smooth="yes" name="n06"/>
      <point x="31" y="339"/>
      <point x="139" y="494"/>
      <point x="296" y="494" type="curve" smooth="yes" name="n09"/>
      <point x="392" y="494"/>
      <point x="475" y="435"/>
    </contour>
    <contour>
      <point x="374" y="304" type="curve" smooth="yes" name="n12"/>
      <point x="374" y="399"/>
      <point x="336" y="451"/>
      <point x="283.627" y="451" type="curve" smooth="yes" name="n15"/>
      <point x="198" y="451"/>
      <point x="132" y="312"/>
      <point x="132" y="182" type="curve" smooth="yes" name="n18"/>
      <point x="132" y="83"/>
      <point x="171" y="33"/>
      <point x="223.741" y="33" type="curve" smooth="yes" name="n21"/>
      <point x="316" y="33"/>
      <point x="374" y="186"/>
    </contour>
  </outline>
</glyph>
<glyph name="p" format="2">
  <advance width="494"/>
  <unicode hex="0070"/>
  <outline>
    <contour>
      <point x="462" y="314.359" type="curve" smooth="yes" name="n00"/>
      <point x="462" y="136.679"/>
      <point x="331.708" y="-12"/>
      <point x="185.711" y="-12" type="curve" smooth="yes" name="n03"/>
      <point x="146" y="-12"/>
      <point x="121" y="-1"/>
      <point x="105" y="6" type="curve"/>
      <point x="73" y="-155" type="line"/>
      <point x="72.5288" y="-159.75" type="line" smooth="yes"/>
      <point x="71.6115" y="-168.999"/>
      <point x="79.0231" y="-173.891"/>
      <point x="93" y="-175" type="curve" smooth="yes"/>
      <point x="156" y="-180" type="line"/>
      <point x="156" y="-218" type="line"/>
      <point x="-96" y="-218" type="line"/>
      <point x="-96" y="-180" type="line"/>
      <point x="-44" y="-175" type="line" smooth="yes"/>
      <point x="-30.3742" y="-173.69"/>
      <point x="-22.4012" y="-167.325"/>
      <point x="-20" y="-155" type="curve" smooth="yes"/>
      <point x="93" y="425" type="line"/>
      <point x="9" y="434" type="line"/>
      <point x="9" y="463" type="line"/>
      <point x="160" y="494" type="line"/>
      <point x="199" y="494" type="line"/>
      <point x="187" y="432" type="line"/>
      <point x="242.153" y="473.644"/>
      <point x="290.468" y="494"/>
      <point x="334.16" y="494" type="curve" smooth="yes" name="n28"/>
      <point x="412.841" y="494"/>
      <point x="462" y="424.922"/>
    </contour>
    <contour>
      <point x="363" y="293.202" type="curve" smooth="yes" name="n31"/>
      <point x="363" y="378.623"/>
      <point x="330.172" y="433"/>
      <point x="282.297" y="433" type="curve" smooth="yes" name="n34"/>
      <point x="251.862" y="433"/>
      <point x="212.015" y="411.024"/>
      <point x="176" y="375" type="curve"/>
      <point x="116" y="65" type="line"/>
      <point x="143.56" y="46.2954"/>
      <point x="175.442" y="35"/>
      <point x="200.677" y="35" type="curve" smooth="yes" name="n41"/>
      <point x="284.831" y="35"/>
      <point x="363" y="161.389"/>
    </contour>
  </outline>
</glyph>
<glyph name="currency" format="2">
  <advance width="609"/>
  <unicode hex="00A4"/>
  <outline>
    <contour>
      <point x="580" y="196" type="line"/>
      <point x="544" y="160" type="line"/>
      <point x="441" y="263" type="line"/>
      <point x="405" y="232"/>
      <point x="358" y="216"/>
      <point x="312" y="216" type="curve" smooth="yes" name="n05"/>
      <point x="262" y="216"/>
      <point x="216" y="231"/>
      <point x="179" y="263" type="curve"/>
      <point x="76" y="160" type="line"/>
      <point x="40" y="196" type="line"/>
      <point x="143" y="299" type="line"/>
      <point x="114" y="335"/>
      <point x="99" y="380"/>
      <point x="99" y="427" type="curve" smooth="yes" name="n14"/>
      <point x="99" y="473"/>
      <point x="113" y="524"/>
      <point x="145" y="559" type="curve"/>
      <point x="40" y="664" type="line"/>
      <point x="76" y="700" type="line"/>
      <point x="181" y="595" type="line"/>
      <point x="217" y="624"/>
      <point x="265" y="639"/>
      <point x="312" y="639" type="curve" smooth="yes" name="n23"/>
      <point x="358" y="639"/>
      <point x="404" y="623"/>
      <point x="438" y="594" type="curve"/>
      <point x="544" y="700" type="line"/>
      <point x="580" y="664" type="line"/>
      <point x="476" y="560" type="line"/>
      <point x="504" y="525"/>
      <point x="521" y="475"/>
      <point x="521" y="428" type="curve" smooth="yes" name="n32"/>
      <point x="521" y="381"/>
      <point x="507" y="335"/>
      <point x="477" y="299" type="curve"/>
    </contour>
    <contour>
      <point x="464" y="428" type="curve" smooth="yes" name="n36"/>
      <point x="464" y="511"/>
      <point x="396" y="582"/>
      <point x="312" y="582" type="curve" smooth="yes" name="n39"/>
      <point x="225" y="582"/>
      <point x="156" y="514"/>
      <point x="156" y="427" type="curve" smooth="yes" name="n42"/>
      <point x="156" y="341"/>
      <point x="226" y="273"/>
      <point x="312" y="273" type="curve" smooth="yes" name="n45"/>
      <point x="397" y="273"/>
      <point x="464" y="344"/>
    </contour>
  </outline>
</glyph>
<glyph name="yen" format="2">
  <advance width="556"/>
  <unicode hex="00A5"/>
  <outline>
    <contour>
      <point x="639" y="621" type="line"/>
      <point x="578" y="608" type="line"/>
      <point x="436" y="422" type="line"/>
      <point x="551" y="422" type="line" name="n03"/>
      <point x="551" y="377" type="line" name="n04"/>
      <point x="396" y="377" type="line"/>
      <point x="323" y="280" type="line"/>
      <point x="522" y="280" type="line" name="n07"/>
      <point x="522" y="234" type="line" name="n08"/>
      <point x="315" y="234" type="line"/>
      <point x="284" y="67" type="line" smooth="yes"/>
      <point x="283" y="61"/>
      <point x="282" y="51"/>
      <point x="297" y="49" type="curve"/>
      <point x="297" y="49"/>
      <point x="347.514" y="45.2303"/>
      <point x="364" y="44" type="curve"/>
      <point x="364" y="0" type="line"/>
      <point x="93" y="0" type="line" name="n18"/>
      <point x="93" y="44" type="line"/>
      <point x="112" y="45"/>
      <point x="134.015" y="43.8769"/>
      <point x="151" y="46" type="curve" smooth="yes" name="n22"/>
      <point x="166.016" y="47.877"/>
      <point x="186" y="52"/>
      <point x="188" y="67" type="curve"/>
      <point x="219" y="234" type="line"/>
      <point x="28" y="234" type="line"/>
      <point x="28" y="280" type="line"/>
      <point x="227" y="280" type="line"/>
      <point x="195" y="377" type="line"/>
      <point x="57" y="377" type="line"/>
      <point x="57" y="422" type="line"/>
      <point x="176" y="422" type="line"/>
      <point x="116" y="610" type="line"/>
      <point x="62" y="622" type="line"/>
      <point x="62" y="664" type="line" name="n36"/>
      <point x="294" y="664" type="line"/>
      <point x="294" y="620" type="line"/>
      <point x="278.741" y="618.685"/>
      <point x="236" y="615"/>
      <point x="236" y="615" type="curve"/>
      <point x="227" y="614"/>
      <point x="223" y="606"/>
      <point x="226" y="597" type="curve" smooth="yes"/>
      <point x="304" y="352" type="line"/>
      <point x="489" y="592" type="line"/>
      <point x="494" y="599"/>
      <point x="499" y="608"/>
      <point x="483" y="611" type="curve"/>
      <point x="439" y="621" type="line"/>
      <point x="439" y="664" type="line"/>
      <point x="639" y="664" type="line"/>
    </contour>
  </outline>
</glyph>
<glyph name="guillemotleft" format="2">
  <advance width="406"/>
  <unicode hex="00AB"/>
  <outline>
    <contour>
      <point x="124" y="0" type="line" name="n00"/>
      <point x="20" y="215" type="line"/>
      <point x="30" y="266" type="line"/>
      <point x="222" y="482" type="line" name="n03"/>
      <point x="267" y="482" type="line"/>
      <point x="104" y="241" type="line"/>
      <point x="169" y="0" type="line"/>
    </contour>
    <contour>
      <point x="295" y="0" type="line"/>
      <point x="190" y="215" type="line"/>
      <point x="200" y="266" type="line"/>
      <point x="393" y="482" type="line"/>
      <point x="438" y="482" type="line"/>
      <point x="274" y="241" type="line"/>
      <point x="340" y="0" type="line"/>
    </contour>
  </outline>
</glyph>
<glyph name="registered" format="2">
  <advance width="836"/>
  <unicode hex="00AE"/>
  <outline>
    <contour>
      <point x="823" y="350" type="curve" smooth="yes" name="n00"/>
      <point x="823" y="137"/>
      <point x="651" y="-36"/>
      <point x="437" y="-36" type="curve" smooth="yes" name="n03"/>
      <point x="227" y="-36"/>
      <point x="54" y="137"/>
      <point x="54" y="350" type="curve" smooth="yes" name="n06"/>
      <point x="54" y="563"/>
      <point x="226" y="737"/>
      <point x="439" y="737" type="curve" smooth="yes" name="n09"/>
      <point x="649" y="737"/>
      <point x="823" y="564"/>
    </contour>
    <contour>
      <point x="780" y="350" type="curve" smooth="yes" name="n12"/>
      <point x="780" y="541"/>
      <point x="627" y="695"/>
      <point x="439" y="695" type="curve" smooth="yes" name="n15"/>
      <point x="252" y="695"/>
      <point x="97" y="543"/>
      <point x="97" y="348" type="curve" smooth="yes" name="n18"/>
      <point x="97" y="161"/>
      <point x="249" y="6"/>
      <point x="438" y="6" type="curve" smooth="yes" name="n21"/>
      <point x="627" y="6"/>
      <point x="780" y="162"/>
    </contour>
    <contour>
      <point x="687" y="142" type="line"/>
      <point x="681" y="141"/>
      <point x="650" y="137"/>
      <point x="629" y="137" type="curve" smooth="yes" name="n27"/>
      <point x="451" y="137"/>
      <point x="569" y="337"/>
      <point x="393" y="337" type="curve" smooth="yes" name="n30"/>
      <point x="378" y="337"/>
      <point x="362" y="336"/>
      <point x="360" y="336" type="curve"/>
      <point x="360" y="187" type="line" smooth="yes" name="n34"/>
      <point x="360" y="181"/>
      <point x="364" y="174"/>
      <point x="375" y="173" type="curve" smooth="yes"/>
      <point x="413" y="170" type="line"/>
      <point x="413" y="142" type="line"/>
      <point x="236" y="142" type="line"/>
      <point x="236" y="170" type="line"/>
      <point x="274" y="173" type="line" smooth="yes"/>
      <point x="284" y="174"/>
      <point x="289" y="181"/>
      <point x="289" y="187" type="curve" smooth="yes" name="n45"/>
      <point x="289" y="535" type="line" smooth="yes"/>
      <point x="289" y="541"/>
      <point x="284.019" y="548.209"/>
      <point x="274" y="549" type="curve" smooth="yes"/>
      <point x="236" y="552" type="line"/>
      <point x="236" y="580" type="line"/>
      <point x="422" y="580" type="line" smooth="yes" name="n52"/>
      <point x="531" y="580"/>
      <point x="597" y="550"/>
      <point x="597" y="464" type="curve" smooth="yes" name="n55"/>
      <point x="597" y="396"/>
      <point x="541" y="368"/>
      <point x="480" y="355" type="curve"/>
      <point x="638" y="320"/>
      <point x="511" y="169"/>
      <point x="687" y="169" type="curve" name="n61"/>
    </contour>
    <contour>
      <point x="519" y="461" type="curve" smooth="yes" name="n62"/>
      <point x="519" y="516"/>
      <point x="484" y="549"/>
      <point x="394" y="549" type="curve" smooth="yes" name="n65"/>
      <point x="360" y="549" type="line"/>
      <point x="360" y="369" type="line"/>
      <point x="362" y="369"/>
      <point x="386" y="368"/>
      <point x="397" y="368" type="curve" smooth="yes" name="n70"/>
      <point x="476" y="368"/>
      <point x="519" y="391"/>
    </contour>
  </outline>
</glyph>
<glyph name="plusminus" format="2">
  <advance width="1000"/>
  <unicode hex="00B1"/>
  <outline>
    <contour>
      <point x="800" y="358" type="line" name="n00"/>
      <point x="531" y="358" type="line"/>
      <point x="531" y="178" type="line" name="n02"/>
      <point x="469" y="178" type="line" name="n03"/>
      <point x="469" y="358" type="line"/>
      <point x="200" y="358" type="line"/>
      <point x="200" y="420" type="line"/>
      <point x="469" y="420" type="line"/>
      <point x="469" y="600" type="line" name="n08"/>
      <point x="531" y="600" type="line"/>
      <point x="531" y="420" type="line"/>
      <point x="800" y="420" type="line" name="n11"/>
    </contour>
    <contour>
      <point x="800" y="0" type="line" name="n12"/>
      <point x="200" y="0" type="line"/>
      <point x="200" y="62" type="line"/>
      <point x="800" y="62" type="line" name="n15"/>
    </contour>
  </outline>
</glyph>
<glyph name="mu" format="2">
  <advance width="546"/>
  <unicode hex="00B5"/>
  <outline>
    <contour>
      <point x="522" y="108" type="line"/>
      <point x="506" y="47"/>
      <point x="467" y="-12"/>
      <point x="397" y="-12" type="curve" smooth="yes" name="n03"/>
      <point x="338" y="-12"/>
      <point x="326" y="35"/>
      <point x="329" y="85" type="curve" name="n06"/>
      <point x="284" y="43"/>
      <point x="226" y="-12"/>
      <point x="160" y="-12" type="curve" smooth="yes" name="n09"/>
      <point x="128" y="-12"/>
      <point x="93" y="-1"/>
      <point x="80" y="32" type="curve"/>
      <point x="71" y="-15"/>
      <point x="68" y="-59"/>
      <point x="68" y="-107" type="curve" smooth="yes" name="n15"/>
      <point x="68" y="-149"/>
      <point x="64" y="-222" name="n17"/>
      <point x="6" y="-222" type="curve" smooth="yes"/>
      <point x="-17" y="-222"/>
      <point x="-28" y="-201"/>
      <point x="-28" y="-180" type="curve" smooth="yes" name="n21"/>
      <point x="-28" y="-142"/>
      <point x="3" y="-91"/>
      <point x="17" y="-55" type="curve"/>
      <point x="35" y="-4"/>
      <point x="47.5828" y="48.0804"/>
      <point x="58" y="101" type="curve" smooth="yes"/>
      <point x="133" y="482" type="line" name="n28"/>
      <point x="226" y="482" type="line"/>
      <point x="170" y="197" type="line" smooth="yes"/>
      <point x="164" y="169"/>
      <point x="158" y="140"/>
      <point x="158" y="110" type="curve" smooth="yes" name="n33"/>
      <point x="158" y="77"/>
      <point x="177" y="51"/>
      <point x="213" y="51" type="curve" smooth="yes" name="n36"/>
      <point x="261" y="51"/>
      <point x="302" y="89"/>
      <point x="335" y="120" type="curve"/>
      <point x="407" y="482" type="line"/>
      <point x="500" y="482" type="line"/>
      <point x="432" y="137" type="line" smooth="yes"/>
      <point x="427" y="114"/>
      <point x="407" y="45" name="hr01"/>
      <point x="447" y="45" type="curve" smooth="yes" name="n45"/>
      <point x="478" y="45"/>
      <point x="493" y="85"/>
      <point x="502" y="108" type="curve"/>
    </contour>
  </outline>
</glyph>
<glyph name="cedilla" format="2">
  <advance width="237"/>
  <unicode hex="00B8"/>
  <outline>
    <contour>
      <point x="164" y="-112" type="curve" smooth="yes" name="n00"/>
      <point x="164" y="-181"/>
      <point x="99" y="-223"/>
      <point x="23" y="-223" type="curve" smooth="yes" name="n03"/>
      <point x="-7" y="-223"/>
      <point x="-43" y="-215"/>
      <point x="-57" y="-211" type="curve"/>
      <point x="-48" y="-171" type="line"/>
      <point x="-33" y="-175"/>
      <point x="-5" y="-182"/>
      <point x="17" y="-182" type="curve" smooth="yes" name="n10"/>
      <point x="35" y="-182"/>
      <point x="83" y="-174"/>
      <point x="83" y="-135" type="curve" smooth="yes" name="n13"/>
      <point x="83" y="-115"/>
      <point x="65" y="-108"/>
      <point x="50" y="-108" type="curve" smooth="yes"/>
      <point x="44" y="-108"/>
      <point x="39" y="-111"/>
      <point x="18" y="-121" type="curve"/>
      <point x="46" y="24" type="line" name="n20"/>
      <point x="98" y="24" type="line"/>
      <point x="82" y="-61" type="line"/>
      <point x="87" y="-60"/>
      <point x="92" y="-59" name="hr01"/>
      <point x="97" y="-59" type="curve" smooth="yes" name="n25"/>
      <point x="141" y="-59"/>
      <point x="164" y="-76"/>
    </contour>
  </outline>
</glyph>
<glyph name="AE" format="2">
  <advance width="936"/>
  <unicode hex="00C6"/>
  <outline>
    <contour>
      <point x="958" y="671" type="line" name="n00"/>
      <point x="928" y="521" type="line" name="n01"/>
      <point x="864" y="521" type="line"/>
      <point x="864" y="602" type="line" smooth="yes"/>
      <point x="864" y="616"/>
      <point x="860" y="621" name="hr01"/>
      <point x="845" y="621" type="curve" smooth="yes" name="n06"/>
      <point x="665" y="621" type="line"/>
      <point x="617" y="375" type="line" name="n08"/>
      <point x="742" y="375" type="line" smooth="yes" name="n09"/>
      <point x="756" y="375"/>
      <point x="762" y="380"/>
      <point x="766" y="394" type="curve" smooth="yes"/>
      <point x="785" y="461" type="line"/>
      <point x="842" y="461" type="line"/>
      <point x="797" y="232" type="line"/>
      <point x="741" y="232" type="line" name="n16"/>
      <point x="750" y="302.057" type="line"/>
      <point x="750" y="316.572"/>
      <point x="745.998" y="323" name="hr02"/>
      <point x="731" y="323" type="curve" smooth="yes"/>
      <point x="607" y="323" type="line" name="n21"/>
      <point x="554" y="50" type="line"/>
      <point x="780" y="50" type="line" smooth="yes" name="n23"/>
      <point x="793" y="50"/>
      <point x="800.113" y="57.9629"/>
      <point x="804" y="70" type="curve" smooth="yes"/>
      <point x="835" y="166" type="line" name="n27"/>
      <point x="896" y="166" type="line"/>
      <point x="864" y="0" type="line" name="n29"/>
      <point x="375" y="0" type="line"/>
      <point x="375" y="42" type="line"/>
      <point x="436" y="47" type="line" smooth="yes"/>
      <point x="448" y="48"/>
      <point x="453.628" y="59.0634"/>
      <point x="455" y="66" type="curve" smooth="yes"/>
      <point x="492" y="253" type="line" name="n36"/>
      <point x="267" y="253" type="line"/>
      <point x="113" y="66" type="line" smooth="yes"/>
      <point x="111.431" y="64.0944"/>
      <point x="110.612" y="62.2304"/>
      <point x="110.612" y="60.3649" type="curve"/>
      <point x="110.612" y="54.1974"/>
      <point x="118.948" y="48.5356"/>
      <point x="132" y="47" type="curve" smooth="yes"/>
      <point x="175" y="42" type="line"/>
      <point x="175" y="0" type="line"/>
      <point x="-53" y="0" type="line"/>
      <point x="-53" y="42" type="line"/>
      <point x="-5" y="47" type="line" smooth="yes"/>
      <point x="2.33128" y="47.7637"/>
      <point x="8.14481" y="51.4713"/>
      <point x="20" y="66" type="curve" smooth="yes"/>
      <point x="459" y="604" type="line"/>
      <point x="460.926" y="607.344"/>
      <point x="463.269" y="611.261"/>
      <point x="463.272" y="615.054" type="curve" smooth="yes"/>
      <point x="463.276" y="620.029"/>
      <point x="460.757" y="623.128"/>
      <point x="456" y="624" type="curve"/>
      <point x="400" y="629" type="line"/>
      <point x="400" y="671" type="line"/>
    </contour>
    <contour>
      <point x="579.805" y="641" type="line"/>
      <point x="309" y="305" type="line"/>
      <point x="502" y="305" type="line" name="n64"/>
      <point x="567.89" y="640.606" type="line"/>
    </contour>
  </outline>
</glyph>
<glyph name="oslash" format="2">
  <advance width="505"/>
  <unicode hex="00F8"/>
  <outline>
    <contour>
      <point x="475" y="300" type="curve" smooth="yes" name="n00"/>
      <point x="475" y="138"/>
      <point x="363" y="-12"/>
      <point x="209" y="-12" type="curve" smooth="yes" name="n03"/>
      <point x="182" y="-12"/>
      <point x="158" y="-7"/>
      <point x="136" y="1" type="curve"/>
      <point x="81" y="-86" type="line"/>
      <point x="44" y="-61" type="line"/>
      <point x="97" y="23" type="line"/>
      <point x="55" y="55"/>
      <point x="31" y="108"/>
      <point x="31" y="177" type="curve" smooth="yes" name="n12"/>
      <point x="31" y="339"/>
      <point x="139" y="494"/>
      <point x="296" y="494" type="curve" smooth="yes" name="n15"/>
      <point x="326" y="494"/>
      <point x="355" y="488"/>
      <point x="380" y="476" type="curve"/>
      <point x="428" y="552" type="line"/>
      <point x="468" y="527" type="line"/>
      <point x="419" y="450" type="line"/>
      <point x="453" y="418"/>
      <point x="475" y="369"/>
    </contour>
    <contour>
      <point x="345" y="419" type="line"/>
      <point x="329" y="440"/>
      <point x="308" y="451"/>
      <point x="285" y="451" type="curve" smooth="yes" name="n27"/>
      <point x="198" y="451"/>
      <point x="132" y="312"/>
      <point x="132" y="182" type="curve" smooth="yes" name="n30"/>
      <point x="132" y="148"/>
      <point x="137" y="121"/>
      <point x="145" y="99" type="curve"/>
    </contour>
    <contour>
      <point x="374" y="304" type="curve" smooth="yes" name="n34"/>
      <point x="374" y="328"/>
      <point x="371" y="349"/>
      <point x="367" y="367" type="curve"/>
      <point x="170" y="55" type="line"/>
      <point x="185" y="40"/>
      <point x="202" y="33"/>
      <point x="221" y="33" type="curve" smooth="yes" name="n41"/>
      <point x="316" y="33"/>
      <point x="374" y="186"/>
    </contour>
  </outline>
</glyph>
<glyph name="thorn" format="2">
  <advance width="494"/>
  <unicode hex="00FE"/>
  <outline>
    <contour>
      <point x="462" y="309" type="curve" smooth="yes" name="n00"/>
      <point x="462" y="145"/>
      <point x="339" y="-12"/>
      <point x="176" y="-12" type="curve" smooth="yes" name="n03"/>
      <point x="146" y="-12"/>
      <point x="121" y="-1"/>
      <point x="105" y="6" type="curve"/>
      <point x="73" y="-155" type="line" smooth="yes"/>
      <point x="71" y="-166"/>
      <point x="75" y="-173"/>
      <point x="93" y="-175" type="curve"/>
      <point x="156" y="-180" type="line"/>
      <point x="156" y="-218" type="line"/>
      <point x="-96" y="-218" type="line"/>
      <point x="-96" y="-180" type="line"/>
      <point x="-86.8906" y="-179.124"/>
      <point x="-44" y="-175"/>
      <point x="-44" y="-175" type="curve"/>
      <point x="-31" y="-174"/>
      <point x="-22" y="-168"/>
      <point x="-20" y="-155" type="curve"/>
      <point x="141" y="668" type="line"/>
      <point x="57" y="677" type="line"/>
      <point x="57" y="707" type="line"/>
      <point x="208" y="737" type="line" name="n24"/>
      <point x="247" y="737" type="line"/>
      <point x="187" y="432" type="line"/>
      <point x="221" y="454"/>
      <point x="275" y="494"/>
      <point x="331" y="494" type="curve" smooth="yes" name="n29"/>
      <point x="432" y="494"/>
      <point x="462" y="398"/>
    </contour>
    <contour>
      <point x="363" y="305" type="curve" smooth="yes" name="n32"/>
      <point x="363" y="364"/>
      <point x="339" y="433"/>
      <point x="285" y="433" type="curve" smooth="yes" name="n35"/>
      <point x="237" y="433"/>
      <point x="186" y="383"/>
      <point x="176" y="375" type="curve"/>
      <point x="116" y="65" type="line"/>
      <point x="128" y="58"/>
      <point x="161" y="35"/>
      <point x="196" y="35" type="curve" smooth="yes" name="n42"/>
      <point x="305" y="35"/>
      <point x="363" y="194"/>
    </contour>
  </outline>
</glyph>
<glyph name="Hbar" format="2">
  <advance width="725"/>
  <unicode hex="0126"/>
  <outline>
    <contour>
      <point x="767" y="629" type="line"/>
      <point x="709" y="624" type="line" smooth="yes"/>
      <point x="697.003" y="622.966"/>
      <point x="688" y="617"/>
      <point x="685" y="604" type="curve"/>
      <point x="670" y="527" type="line"/>
      <point x="737" y="527" type="line" name="n06"/>
      <point x="737" y="477" type="line" name="n07"/>
      <point x="660" y="477" type="line"/>
      <point x="581" y="66" type="line" smooth="yes"/>
      <point x="579" y="56"/>
      <point x="583" y="48"/>
      <point x="601" y="47" type="curve" name="n12"/>
      <point x="601" y="47"/>
      <point x="643.214" y="43.2309"/>
      <point x="657" y="42" type="curve"/>
      <point x="657" y="0" type="line" name="n16"/>
      <point x="396" y="0" type="line"/>
      <point x="396" y="42" type="line"/>
      <point x="411.02" y="43.2517"/>
      <point x="456" y="47"/>
      <point x="456" y="47" type="curve"/>
      <point x="468" y="48"/>
      <point x="477.703" y="54.0534"/>
      <point x="480" y="66" type="curve" smooth="yes"/>
      <point x="530" y="326" type="line" name="n25"/>
      <point x="218" y="326" type="line"/>
      <point x="168" y="66" type="line" smooth="yes"/>
      <point x="166" y="56"/>
      <point x="170" y="48"/>
      <point x="187" y="47" type="curve"/>
      <point x="187" y="47"/>
      <point x="230.722" y="43.2309"/>
      <point x="245" y="42" type="curve"/>
      <point x="245" y="0" type="line"/>
      <point x="-15" y="0" type="line"/>
      <point x="-15" y="42" type="line"/>
      <point x="-0.729373" y="43.2518"/>
      <point x="42" y="47"/>
      <point x="42" y="47" type="curve"/>
      <point x="55" y="48"/>
      <point x="64" y="54"/>
      <point x="67" y="66" type="curve"/>
      <point x="146" y="477" type="line"/>
      <point x="81" y="477" type="line"/>
      <point x="81" y="527" type="line"/>
      <point x="156" y="527" type="line"/>
      <point x="171" y="604" type="line" smooth="yes"/>
      <point x="173" y="615"/>
      <point x="169" y="623"/>
      <point x="151" y="624" type="curve" name="n50"/>
      <point x="151" y="624"/>
      <point x="108.779" y="627.77"/>
      <point x="95" y="629" type="curve"/>
      <point x="95" y="671" type="line" name="n54"/>
      <point x="355" y="671" type="line"/>
      <point x="355" y="629" type="line"/>
      <point x="340.23" y="627.748"/>
      <point x="296" y="624"/>
      <point x="296" y="624" type="curve"/>
      <point x="284" y="623"/>
      <point x="274" y="617"/>
      <point x="272" y="604" type="curve"/>
      <point x="257" y="527" type="line"/>
      <point x="569" y="527" type="line"/>
      <point x="584" y="604" type="line" smooth="yes"/>
      <point x="586" y="615"/>
      <point x="582" y="623"/>
      <point x="564" y="624" type="curve"/>
      <point x="564" y="624"/>
      <point x="520.281" y="627.835"/>
      <point x="507" y="629" type="curve"/>
      <point x="507" y="671" type="line"/>
      <point x="767" y="671" type="line"/>
    </contour>
    <contour>
      <point x="228" y="376" type="line"/>
      <point x="540" y="376" type="line" name="n75"/>
      <point x="560" y="477" type="line"/>
      <point x="248" y="477" type="line"/>
    </contour>
  </outline>
</glyph>
<glyph name="lacute" format="2">
  <advance width="265"/>
  <unicode hex="013A"/>
  <outline>
    <contour>
      <point x="263" y="26" type="line"/>
      <point x="247" y="20"/>
      <point x="171" y="-12"/>
      <point x="124" y="-12" type="curve" smooth="yes" name="n03"/>
      <point x="63" y="-12"/>
      <point x="39" y="18"/>
      <point x="39" y="61" type="curve" smooth="yes"/>
      <point x="39" y="71"/>
      <point x="40" y="83"/>
      <point x="42" y="96" type="curve"/>
      <point x="152" y="668" type="line"/>
      <point x="63" y="677" type="line"/>
      <point x="63" y="707" type="line"/>
      <point x="219" y="737" type="line"/>
      <point x="258" y="737" type="line"/>
      <point x="136" y="99" type="line" smooth="yes"/>
      <point x="131" y="72"/>
      <point x="154" y="44"/>
      <point x="182" y="44" type="curve" smooth="yes" name="n18"/>
      <point x="201" y="44"/>
      <point x="252" y="61"/>
      <point x="263" y="64" type="curve"/>
    </contour>
    <contour>
      <point x="402" y="923" type="curve" smooth="yes"/>
      <point x="402" y="904"/>
      <point x="393" y="892"/>
      <point x="378" y="882" type="curve" smooth="yes"/>
      <point x="229" y="785" type="line"/>
      <point x="158" y="785" type="line"/>
      <point x="294" y="941" type="line" smooth="yes"/>
      <point x="307" y="956"/>
      <point x="322" y="966" name="n30"/>
      <point x="352" y="966" type="curve" smooth="yes"/>
      <point x="387" y="966"/>
      <point x="402" y="943"/>
    </contour>
  </outline>
</glyph>
<glyph name="lcaron" format="2">
  <advance width="409"/>
  <unicode hex="013E"/>
  <outline>
    <contour>
      <point x="263" y="26" type="line"/>
      <point x="247" y="20"/>
      <point x="171" y="-12"/>
      <point x="124" y="-12" type="curve" smooth="yes" name="n03"/>
      <point x="63" y="-12"/>
      <point x="39" y="18"/>
      <point x="39" y="61" type="curve" smooth="yes"/>
      <point x="39" y="71"/>
      <point x="40" y="83"/>
      <point x="42" y="96" type="curve"/>
      <point x="152" y="668" type="line"/>
      <point x="63" y="677" type="line"/>
      <point x="63" y="707" type="line"/>
      <point x="219" y="737" type="line"/>
      <point x="258" y="737" type="line"/>
      <point x="136" y="99" type="line" smooth="yes"/>
      <point x="131" y="72"/>
      <point x="154" y="44"/>
      <point x="182" y="44" type="curve" smooth="yes" name="n18"/>
      <point x="201" y="44"/>
      <point x="252" y="61"/>
      <point x="263" y="64" type="curve"/>
    </contour>
    <contour>
      <point x="427" y="696" type="curve" smooth="yes" name="n22"/>
      <point x="427" y="612"/>
      <point x="356" y="565"/>
      <point x="281" y="551" type="curve"/>
      <point x="287" y="584" type="line"/>
      <point x="341" y="601"/>
      <point x="361" y="615"/>
      <point x="372" y="672" type="curve" name="n29"/>
      <point x="319" y="672" type="line"/>
      <point x="313" y="679"/>
      <point x="311" y="690"/>
      <point x="311" y="699" type="curve" smooth="yes" name="n33"/>
      <point x="311" y="732"/>
      <point x="340" y="756"/>
      <point x="372" y="756" type="curve" smooth="yes" name="n36"/>
      <point x="409" y="756"/>
      <point x="427" y="732"/>
    </contour>
  </outline>
</glyph>
<glyph name="OE" format="2">
  <advance width="1004"/>
  <unicode hex="0152"/>
  <outline>
    <contour>
      <point x="1027" y="671" type="line" name="n00"/>
      <point x="998" y="521" type="line" name="n01"/>
      <point x="934" y="521" type="line"/>
      <point x="934" y="602" type="line" smooth="yes"/>
      <point x="934" y="616"/>
      <point x="929" y="621" name="hr01"/>
      <point x="914" y="621" type="curve" smooth="yes"/>
      <point x="724" y="621" type="line" name="n07"/>
      <point x="676" y="375" type="line" name="n08"/>
      <point x="811" y="375" type="line" smooth="yes" name="n09"/>
      <point x="825" y="375"/>
      <point x="831" y="380"/>
      <point x="835" y="394" type="curve" smooth="yes"/>
      <point x="854" y="461" type="line"/>
      <point x="911" y="461" type="line"/>
      <point x="866" y="232" type="line"/>
      <point x="810" y="232" type="line" name="n16"/>
      <point x="819" y="303" type="line"/>
      <point x="821" y="316"/>
      <point x="814" y="323" name="hr02"/>
      <point x="800" y="323" type="curve" smooth="yes"/>
      <point x="667" y="323" type="line" name="n21"/>
      <point x="613" y="50" type="line"/>
      <point x="849" y="50" type="line" smooth="yes" name="n23"/>
      <point x="862" y="50"/>
      <point x="869.113" y="57.9629"/>
      <point x="873" y="70" type="curve" smooth="yes"/>
      <point x="904" y="166" type="line" name="n27"/>
      <point x="965" y="166" type="line"/>
      <point x="933" y="0" type="line" name="n29"/>
      <point x="504" y="0" type="line"/>
      <point x="518" y="67" type="line"/>
      <point x="456" y="11"/>
      <point x="392" y="-16" name="hr04"/>
      <point x="320" y="-16" type="curve" smooth="yes" name="n34"/>
      <point x="169" y="-16"/>
      <point x="48" y="87"/>
      <point x="48" y="263" type="curve" smooth="yes" name="n37"/>
      <point x="48" y="469"/>
      <point x="197" y="687"/>
      <point x="419" y="687" type="curve" smooth="yes" name="n40"/>
      <point x="521" y="687"/>
      <point x="580" y="642"/>
      <point x="616" y="578" type="curve"/>
      <point x="633" y="671" type="line" name="n44"/>
    </contour>
    <contour>
      <point x="577" y="417" type="curve" smooth="yes"/>
      <point x="577" y="573"/>
      <point x="493" y="637" name="hr06"/>
      <point x="410" y="637" type="curve" smooth="yes" name="n48"/>
      <point x="269" y="637"/>
      <point x="161" y="433"/>
      <point x="161" y="252" type="curve" smooth="yes" name="n51"/>
      <point x="161" y="108"/>
      <point x="240" y="36"/>
      <point x="327" y="36" type="curve" smooth="yes" name="n54"/>
      <point x="471" y="36"/>
      <point x="577" y="240"/>
    </contour>
  </outline>
</glyph>
<glyph name="uni0162" format="2">
  <advance width="585"/>
  <unicode hex="0162"/>
  <outline>
    <contour>
      <point x="649" y="671" type="line"/>
      <point x="618" y="518" type="line"/>
      <point x="555" y="518" type="line"/>
      <point x="559" y="606" type="line" smooth="yes"/>
      <point x="560" y="620"/>
      <point x="554" y="626" name="hr01"/>
      <point x="540" y="626" type="curve" smooth="yes"/>
      <point x="411" y="626" type="line"/>
      <point x="307" y="66" type="line" smooth="yes"/>
      <point x="305" y="56"/>
      <point x="309" y="48"/>
      <point x="327" y="47" type="curve"/>
      <point x="327" y="47"/>
      <point x="370.702" y="43.1665"/>
      <point x="384" y="42" type="curve"/>
      <point x="384" y="0" type="line" name="n15"/>
      <point x="124" y="0" type="line"/>
      <point x="124" y="42" type="line"/>
      <point x="137.713" y="43.1822"/>
      <point x="182" y="47"/>
      <point x="182" y="47" type="curve"/>
      <point x="194" y="48"/>
      <point x="204" y="54"/>
      <point x="206" y="66" type="curve" smooth="yes"/>
      <point x="310" y="626" type="line"/>
      <point x="185" y="626" type="line" smooth="yes" name="n25"/>
      <point x="173" y="626"/>
      <point x="164" y="619"/>
      <point x="160" y="606" type="curve"/>
      <point x="129" y="518" type="line" name="hr02"/>
      <point x="66" y="518" type="line" name="n30"/>
      <point x="95" y="671" type="line" name="n31"/>
    </contour>
    <contour>
      <point x="343" y="-112" type="curve" smooth="yes" name="n32"/>
      <point x="343" y="-181"/>
      <point x="278" y="-223"/>
      <point x="202" y="-223" type="curve" smooth="yes" name="n35"/>
      <point x="172" y="-223"/>
      <point x="136" y="-215"/>
      <point x="122" y="-211" type="curve"/>
      <point x="131" y="-171" type="line"/>
      <point x="146" y="-175"/>
      <point x="174" y="-182"/>
      <point x="196" y="-182" type="curve" smooth="yes" name="n42"/>
      <point x="214" y="-182"/>
      <point x="262" y="-174"/>
      <point x="262" y="-135" type="curve" smooth="yes" name="n45"/>
      <point x="262" y="-115"/>
      <point x="244" y="-108"/>
      <point x="229" y="-108" type="curve" smooth="yes"/>
      <point x="223" y="-108"/>
      <point x="218" y="-111"/>
      <point x="197" y="-121" type="curve"/>
      <point x="225" y="24" type="line"/>
      <point x="276" y="24" type="line"/>
      <point x="261" y="-61" type="line"/>
      <point x="266" y="-60"/>
      <point x="271" y="-59"/>
      <point x="276" y="-59" type="curve" smooth="yes"/>
      <point x="320" y="-59"/>
      <point x="343" y="-76"/>
    </contour>
  </outline>
</glyph>
<glyph name="Tbar" format="2">
  <advance width="585"/>
  <unicode hex="0166"/>
  <outline>
    <contour>
      <point x="649" y="671" type="line"/>
      <point x="618" y="518" type="line"/>
      <point x="555" y="518" type="line"/>
      <point x="559" y="606" type="line" smooth="yes"/>
      <point x="560" y="620"/>
      <point x="554" y="626" name="hr01"/>
      <point x="540" y="626" type="curve" smooth="yes"/>
      <point x="411" y="626" type="line"/>
      <point x="365" y="376" type="line"/>
      <point x="499" y="376" type="line" name="n09"/>
      <point x="499" y="325" type="line" name="n10"/>
      <point x="355" y="325" type="line"/>
      <point x="307" y="66" type="line" smooth="yes"/>
      <point x="305" y="56"/>
      <point x="309" y="48"/>
      <point x="327" y="47" type="curve"/>
      <point x="384" y="42" type="line"/>
      <point x="384" y="0" type="line" name="n17"/>
      <point x="124" y="0" type="line"/>
      <point x="124" y="42" type="line"/>
      <point x="137.713" y="43.1822"/>
      <point x="182" y="47"/>
      <point x="182" y="47" type="curve"/>
      <point x="194" y="48"/>
      <point x="204" y="54"/>
      <point x="206" y="66" type="curve" smooth="yes"/>
      <point x="254" y="325" type="line"/>
      <point x="120" y="325" type="line"/>
      <point x="120" y="376" type="line"/>
      <point x="264" y="376" type="line"/>
      <point x="310" y="626" type="line"/>
      <point x="185" y="626" type="line" smooth="yes" name="n31"/>
      <point x="173" y="626"/>
      <point x="164" y="619"/>
      <point x="160" y="606" type="curve"/>
      <point x="129" y="518" type="line" name="hr02"/>
      <point x="66" y="518" type="line" name="n36"/>
      <point x="95" y="671" type="line" name="n37"/>
    </contour>
  </outline>
</glyph>
<glyph name="uni0184" format="2">
  <advance width="586"/>
  <unicode hex="0184"/>
  <outline>
    <contour>
      <point x="62" y="468" type="line"/>
      <point x="288" y="684" type="line"/>
      <point x="227" y="368" type="line"/>
      <point x="227" y="368"/>
      <point x="272" y="373"/>
      <point x="301" y="373" type="curve" smooth="yes" name="n05"/>
      <point x="432" y="373"/>
      <point x="554" y="335"/>
      <point x="554" y="224" type="curve" smooth="yes" name="n08"/>
      <point x="554" y="27"/>
      <point x="392" y="0"/>
      <point x="211" y="0" type="curve" smooth="yes" name="n11"/>
      <point x="-28" y="0" type="line"/>
      <point x="-28" y="43" type="line"/>
      <point x="42" y="47" type="line" smooth="yes"/>
      <point x="56" y="48"/>
      <point x="66" y="60"/>
      <point x="67" y="68" type="curve"/>
      <point x="129" y="387" type="line"/>
    </contour>
    <contour>
      <point x="445" y="214" type="curve" smooth="yes" name="n19"/>
      <point x="445" y="295"/>
      <point x="387" y="325"/>
      <point x="282" y="325" type="curve" smooth="yes" name="n22"/>
      <point x="261" y="325"/>
      <point x="217" y="320"/>
      <point x="217" y="320" type="curve"/>
      <point x="164" y="48" type="line"/>
      <point x="164" y="48"/>
      <point x="189" y="46"/>
      <point x="214" y="46" type="curve" smooth="yes" name="n29"/>
      <point x="357" y="46"/>
      <point x="445" y="95"/>
    </contour>
  </outline>
</glyph>
<glyph name="uni0187" format="2">
  <advance width="629"/>
  <unicode hex="0187"/>
  <outline>
    <contour>
      <point x="849" y="792" type="curve" smooth="yes"/>
      <point x="849" y="762"/>
      <point x="822" y="733"/>
      <point x="794" y="726" type="curve"/>
      <point x="717" y="794" type="line"/>
      <point x="668" y="777"/>
      <point x="662" y="749"/>
      <point x="644" y="647" type="curve" smooth="yes"/>
      <point x="617" y="491" type="line"/>
      <point x="558" y="491" type="line"/>
      <point x="558" y="584" type="line" smooth="yes"/>
      <point x="558" y="594"/>
      <point x="549" y="608"/>
      <point x="540" y="611" type="curve"/>
      <point x="535" y="614"/>
      <point x="503" y="636"/>
      <point x="455" y="636" type="curve" smooth="yes"/>
      <point x="302" y="636"/>
      <point x="154" y="487"/>
      <point x="154" y="256" type="curve" smooth="yes" name="n19"/>
      <point x="154" y="105"/>
      <point x="247" y="35"/>
      <point x="359" y="35" type="curve" smooth="yes" name="n22"/>
      <point x="402" y="35"/>
      <point x="429" y="50"/>
      <point x="434" y="52" type="curve"/>
      <point x="442" y="53"/>
      <point x="453" y="63"/>
      <point x="457" y="72" type="curve"/>
      <point x="500" y="186" type="line"/>
      <point x="559" y="186" type="line"/>
      <point x="532" y="24" type="line"/>
      <point x="517" y="19"/>
      <point x="423" y="-16"/>
      <point x="326" y="-16" type="curve" smooth="yes" name="n34"/>
      <point x="127" y="-16"/>
      <point x="48" y="125"/>
      <point x="48" y="267" type="curve" smooth="yes" name="n37"/>
      <point x="48" y="480"/>
      <point x="212" y="687" name="n39"/>
      <point x="450" y="687" type="curve" smooth="yes"/>
      <point x="491" y="687"/>
      <point x="527" y="681"/>
      <point x="567" y="671" type="curve"/>
      <point x="595" y="771"/>
      <point x="657" y="844" name="n45"/>
      <point x="766" y="844" type="curve" smooth="yes"/>
      <point x="822" y="844"/>
      <point x="849" y="821"/>
    </contour>
  </outline>
</glyph>
<glyph name="uni0188" format="2">
  <advance width="435"/>
  <unicode hex="0188"/>
  <outline>
    <contour>
      <point x="530" y="550" type="curve" smooth="yes"/>
      <point x="530" y="515"/>
      <point x="486" y="505"/>
      <point x="486" y="505" type="curve"/>
      <point x="435" y="559" type="line"/>
      <point x="409" y="551"/>
      <point x="400" y="532"/>
      <point x="386" y="463" type="curve"/>
      <point x="398" y="451"/>
      <point x="403" y="437"/>
      <point x="403" y="424" type="curve" smooth="yes"/>
      <point x="403" y="398"/>
      <point x="390" y="367"/>
      <point x="326" y="359" type="curve"/>
      <point x="269" y="436" type="line"/>
      <point x="245" y="435"/>
      <point x="210" y="420"/>
      <point x="181" y="381" type="curve" smooth="yes"/>
      <point x="150" y="341"/>
      <point x="127" y="274"/>
      <point x="127" y="186" type="curve" smooth="yes" name="n20"/>
      <point x="127" y="121"/>
      <point x="150" y="53"/>
      <point x="216" y="53" type="curve" smooth="yes" name="n23"/>
      <point x="269" y="53"/>
      <point x="325" y="93"/>
      <point x="382" y="149" type="curve"/>
      <point x="382" y="86" type="line"/>
      <point x="341" y="46"/>
      <point x="275" y="-12"/>
      <point x="186" y="-12" type="curve" smooth="yes" name="n30"/>
      <point x="91" y="-12"/>
      <point x="32" y="55"/>
      <point x="32" y="174" type="curve" smooth="yes" name="n33"/>
      <point x="32" y="353"/>
      <point x="165" y="494" name="n35"/>
      <point x="301" y="494" type="curve" smooth="yes"/>
      <point x="311" y="494"/>
      <point x="320" y="493"/>
      <point x="329" y="492" type="curve"/>
      <point x="352" y="564"/>
      <point x="392" y="599" name="n41"/>
      <point x="461" y="599" type="curve" smooth="yes"/>
      <point x="511" y="599"/>
      <point x="530" y="578"/>
    </contour>
  </outline>
</glyph>
<glyph name="uni018C" format="2">
  <advance width="525"/>
  <unicode hex="018C"/>
  <outline>
    <contour>
      <point x="390" y="475" type="curve"/>
      <point x="424" y="665" type="line"/>
      <point x="425" y="674"/>
      <point x="422" y="686"/>
      <point x="407" y="686" type="curve" smooth="yes"/>
      <point x="264" y="686" type="line" smooth="yes" name="n05"/>
      <point x="255" y="686"/>
      <point x="246" y="678"/>
      <point x="243" y="668" type="curve"/>
      <point x="211" y="578" type="line" name="n09"/>
      <point x="157" y="578" type="line"/>
      <point x="188" y="737" type="line" name="n11"/>
      <point x="529" y="737" type="line"/>
      <point x="415" y="86" type="line" smooth="yes"/>
      <point x="408.534" y="49.0785"/>
      <point x="442" y="40"/>
      <point x="451" y="40" type="curve" smooth="yes"/>
      <point x="461" y="40"/>
      <point x="514" y="57"/>
      <point x="523" y="59" type="curve"/>
      <point x="523" y="22" type="line"/>
      <point x="507" y="16"/>
      <point x="433" y="-12"/>
      <point x="392" y="-12" type="curve" smooth="yes"/>
      <point x="331" y="-12"/>
      <point x="317" y="19"/>
      <point x="317" y="63" type="curve"/>
      <point x="282" y="26"/>
      <point x="231" y="-12"/>
      <point x="175" y="-12" type="curve" smooth="yes" name="n29"/>
      <point x="63" y="-12"/>
      <point x="32" y="83"/>
      <point x="32" y="167" type="curve" smooth="yes" name="n32"/>
      <point x="32" y="326"/>
      <point x="138" y="494"/>
      <point x="315" y="494" type="curve" smooth="yes" name="n35"/>
      <point x="345" y="494"/>
      <point x="373" y="481"/>
    </contour>
    <contour>
      <point x="376" y="394" type="line" smooth="yes"/>
      <point x="377" y="400"/>
      <point x="339" y="449"/>
      <point x="313" y="449" type="curve" smooth="yes" name="n41"/>
      <point x="216" y="449"/>
      <point x="129" y="329"/>
      <point x="129" y="173" type="curve" smooth="yes" name="n44"/>
      <point x="129" y="87"/>
      <point x="168" y="49"/>
      <point x="207" y="49" type="curve" smooth="yes" name="n47"/>
      <point x="243" y="49"/>
      <point x="294" y="89"/>
      <point x="330" y="131" type="curve"/>
    </contour>
  </outline>
</glyph>
<glyph name="uni018E" format="2">
  <advance width="565"/>
  <unicode hex="018E"/>
  <outline>
    <contour>
      <point x="143" y="671" type="line" name="n00"/>
      <point x="610" y="671" type="line"/>
      <point x="610" y="628" type="line"/>
      <point x="559" y="624" type="line" smooth="yes"/>
      <point x="545" y="623"/>
      <point x="535" y="612"/>
      <point x="533" y="602" type="curve" smooth="yes"/>
      <point x="431" y="69" type="line"/>
      <point x="430" y="59"/>
      <point x="435" y="48"/>
      <point x="449" y="47" type="curve" smooth="yes"/>
      <point x="499" y="43" type="line"/>
      <point x="499" y="0" type="line"/>
      <point x="-17" y="0" type="line" name="n13"/>
      <point x="15" y="167" type="line" name="n14"/>
      <point x="67" y="167" type="line"/>
      <point x="66" y="68" type="line" smooth="yes"/>
      <point x="65.9293" y="61"/>
      <point x="72" y="49" name="hr01"/>
      <point x="80" y="49" type="curve" smooth="yes" name="n19"/>
      <point x="328" y="49" type="line"/>
      <point x="380" y="324" type="line" name="n21"/>
      <point x="233" y="324" type="line" smooth="yes" name="n22"/>
      <point x="225" y="324"/>
      <point x="213" y="313"/>
      <point x="212" y="306" type="curve"/>
      <point x="189" y="237" type="line"/>
      <point x="139" y="237" type="line"/>
      <point x="182" y="460" type="line" name="hr02"/>
      <point x="231" y="460" type="line" name="n29"/>
      <point x="229" y="391" type="line"/>
      <point x="228" y="384"/>
      <point x="234" y="374" name="hr03"/>
      <point x="243" y="374" type="curve" smooth="yes"/>
      <point x="390" y="374" type="line" name="n34"/>
      <point x="438" y="623" type="line"/>
      <point x="225" y="623" type="line" smooth="yes" name="n36"/>
      <point x="216" y="623"/>
      <point x="206" y="614"/>
      <point x="203" y="604" type="curve"/>
      <point x="173" y="522" type="line" name="hr04"/>
      <point x="114" y="522" type="line" name="n41"/>
    </contour>
  </outline>
</glyph>
<glyph name="uni0193" format="2">
  <advance width="687"/>
  <unicode hex="0193"/>
  <outline>
    <contour>
      <point x="158" y="252" type="curve" smooth="yes" name="n00"/>
      <point x="158" y="91"/>
      <point x="280" y="37"/>
      <point x="352" y="37" type="curve" smooth="yes" name="n03"/>
      <point x="392" y="37"/>
      <point x="437" y="50"/>
      <point x="453" y="54" type="curve"/>
      <point x="456.781" y="73.7766"/>
      <point x="483.574" y="213.925"/>
      <point x="492" y="258" type="curve" smooth="yes"/>
      <point x="494" y="269"/>
      <point x="490" y="276"/>
      <point x="472" y="277" type="curve"/>
      <point x="417" y="282" type="line"/>
      <point x="417" y="324" type="line"/>
      <point x="452.232" y="324"/>
      <point x="625.174" y="324"/>
      <point x="675" y="324" type="curve"/>
      <point x="675" y="321.239"/>
      <point x="675" y="288.83"/>
      <point x="675" y="282" type="curve"/>
      <point x="668.24" y="281.407"/>
      <point x="630.695" y="278.114"/>
      <point x="618" y="277" type="curve" smooth="yes"/>
      <point x="605" y="276"/>
      <point x="596" y="271"/>
      <point x="593" y="258" type="curve"/>
      <point x="585.822" y="220.517"/>
      <point x="553.157" y="49.9326"/>
      <point x="548" y="23" type="curve"/>
      <point x="528" y="18"/>
      <point x="415" y="-16"/>
      <point x="332" y="-16" type="curve" smooth="yes" name="n32"/>
      <point x="104" y="-16"/>
      <point x="48" y="156"/>
      <point x="48" y="268" type="curve" smooth="yes" name="n35"/>
      <point x="48" y="524"/>
      <point x="264" y="687" name="n37"/>
      <point x="479" y="687" type="curve" smooth="yes"/>
      <point x="519" y="687"/>
      <point x="547" y="684"/>
      <point x="587" y="674" type="curve"/>
      <point x="615" y="774"/>
      <point x="676" y="845" name="n43"/>
      <point x="785" y="845" type="curve" smooth="yes"/>
      <point x="841" y="845"/>
      <point x="868" y="822"/>
      <point x="868" y="792" type="curve" smooth="yes"/>
      <point x="868" y="763"/>
      <point x="842" y="734"/>
      <point x="813" y="727" type="curve"/>
      <point x="797.375" y="740.799"/>
      <point x="751.909" y="780.951"/>
      <point x="736" y="795" type="curve"/>
      <point x="687" y="778"/>
      <point x="682" y="749"/>
      <point x="663" y="648" type="curve" smooth="yes"/>
      <point x="659.492" y="629.128"/>
      <point x="639.12" y="519.542"/>
      <point x="634" y="492" type="curve"/>
      <point x="616.018" y="492"/>
      <point x="573.475" y="492"/>
      <point x="566" y="492" type="curve"/>
      <point x="566.733" y="508.303"/>
      <point x="569.332" y="566.138"/>
      <point x="570" y="581" type="curve"/>
      <point x="570" y="591"/>
      <point x="561" y="608"/>
      <point x="552" y="611" type="curve"/>
      <point x="547" y="614"/>
      <point x="515" y="633"/>
      <point x="467" y="633" type="curve" smooth="yes"/>
      <point x="317" y="633"/>
      <point x="158" y="483"/>
    </contour>
  </outline>
</glyph>
<glyph name="Ohorn" format="2">
  <advance width="765"/>
  <unicode hex="01A0"/>
  <outline>
    <contour>
      <point x="819" y="717.947" type="curve" smooth="yes" name="n00"/>
      <point x="819" y="636"/>
      <point x="761" y="548"/>
      <point x="679" y="503" type="curve"/>
      <point x="687" y="476"/>
      <point x="691" y="447" name="hr01"/>
      <point x="691" y="411.719" type="curve" smooth="yes" name="n06"/>
      <point x="691" y="206"/>
      <point x="555" y="-16"/>
      <point x="323.181" y="-16" type="curve" smooth="yes" name="n09"/>
      <point x="160" y="-16"/>
      <point x="48" y="94"/>
      <point x="48" y="270.908" type="curve" smooth="yes" name="n12"/>
      <point x="48" y="477"/>
      <point x="200" y="687"/>
      <point x="420" y="687" type="curve" smooth="yes" name="n15"/>
      <point x="533" y="687"/>
      <point x="619" y="631"/>
      <point x="661" y="548" type="curve"/>
      <point x="703" y="576"/>
      <point x="721" y="626"/>
      <point x="732" y="681" type="curve" name="n21"/>
      <point x="645" y="681" type="line"/>
      <point x="634.624" y="696.259"/>
      <point x="628" y="716.514"/>
      <point x="628" y="735" type="curve" smooth="yes" name="n25"/>
      <point x="628" y="788"/>
      <point x="676" y="824"/>
      <point x="726.804" y="824" type="curve" smooth="yes" name="n28"/>
      <point x="779" y="824"/>
      <point x="819" y="786"/>
    </contour>
    <contour>
      <point x="577" y="412.995" type="curve" smooth="yes" name="n31"/>
      <point x="577" y="550" name="hr03"/>
      <point x="507" y="637"/>
      <point x="411" y="637" type="curve" smooth="yes" name="n34"/>
      <point x="265" y="637"/>
      <point x="161" y="431"/>
      <point x="161" y="261.233" type="curve" smooth="yes" name="n37"/>
      <point x="161" y="119"/>
      <point x="234" y="36"/>
      <point x="327" y="36" type="curve" smooth="yes" name="n40"/>
      <point x="473" y="36"/>
      <point x="577" y="246"/>
    </contour>
  </outline>
</glyph>
<glyph name="uni01A2" format="2">
  <advance width="922"/>
  <unicode hex="01A2"/>
  <outline>
    <contour>
      <point x="798" y="-176" type="line"/>
      <point x="798" y="-218" type="line"/>
      <point x="535" y="-218" type="line"/>
      <point x="535" y="-176" type="line"/>
      <point x="598" y="-171" type="line" smooth="yes"/>
      <point x="612" y="-170"/>
      <point x="615" y="-162"/>
      <point x="617" y="-152" type="curve" smooth="yes"/>
      <point x="756" y="570" type="line"/>
      <point x="730" y="564"/>
      <point x="672" y="562"/>
      <point x="647" y="566" type="curve"/>
      <point x="569" y="161" type="line" smooth="yes"/>
      <point x="551" y="65"/>
      <point x="457" y="-16"/>
      <point x="320" y="-16" type="curve" smooth="yes" name="n15"/>
      <point x="155" y="-16"/>
      <point x="48" y="100"/>
      <point x="48" y="262" type="curve" smooth="yes" name="n18"/>
      <point x="48" y="487"/>
      <point x="222" y="687"/>
      <point x="442" y="687" type="curve" smooth="yes" name="n21"/>
      <point x="613" y="687"/>
      <point x="618" y="646"/>
      <point x="711" y="646" type="curve" smooth="yes"/>
      <point x="760" y="646"/>
      <point x="793" y="658"/>
      <point x="830" y="687" type="curve"/>
      <point x="882" y="687" type="line"/>
      <point x="720" y="-152" type="line" smooth="yes"/>
      <point x="718" y="-162"/>
      <point x="722" y="-170"/>
      <point x="740" y="-171" type="curve"/>
    </contour>
    <contour>
      <point x="469" y="178" type="curve" smooth="yes"/>
      <point x="549" y="595" type="line"/>
      <point x="502" y="624"/>
      <point x="486" y="630"/>
      <point x="432" y="630" type="curve" smooth="yes" name="n37"/>
      <point x="262" y="630"/>
      <point x="161" y="432"/>
      <point x="161" y="254" type="curve" smooth="yes" name="n40"/>
      <point x="161" y="120"/>
      <point x="233" y="36"/>
      <point x="327" y="36" type="curve" smooth="yes" name="n43"/>
      <point x="398" y="36"/>
      <point x="448" y="70"/>
    </contour>
  </outline>
</glyph>
<glyph name="uni01A3" format="2">
  <advance width="705"/>
  <unicode hex="01A3"/>
  <outline>
    <contour>
      <point x="322" y="140" type="curve" smooth="yes"/>
      <point x="381" y="425" type="line"/>
      <point x="347" y="447"/>
      <point x="329" y="449"/>
      <point x="300" y="449" type="curve" smooth="yes" name="n04"/>
      <point x="191" y="449"/>
      <point x="132" y="300"/>
      <point x="132" y="182" type="curve" smooth="yes" name="n07"/>
      <point x="132" y="84"/>
      <point x="167" y="33"/>
      <point x="224" y="33" type="curve" smooth="yes" name="n10"/>
      <point x="281" y="33"/>
      <point x="308" y="71"/>
    </contour>
    <contour>
      <point x="411" y="112" type="curve" smooth="yes"/>
      <point x="396" y="37"/>
      <point x="305" y="-12"/>
      <point x="223" y="-12" type="curve" smooth="yes" name="n16"/>
      <point x="95" y="-12"/>
      <point x="31" y="61"/>
      <point x="31" y="177" type="curve" smooth="yes" name="n19"/>
      <point x="31" y="339"/>
      <point x="139" y="494"/>
      <point x="310" y="494" type="curve" smooth="yes" name="n22"/>
      <point x="410" y="494"/>
      <point x="469" y="458"/>
      <point x="525" y="458" type="curve" smooth="yes"/>
      <point x="555" y="458"/>
      <point x="590" y="463"/>
      <point x="633" y="482" type="curve"/>
      <point x="674" y="482" type="line"/>
      <point x="647.964" y="348.249"/>
      <point x="575.523" y="-23.8848"/>
      <point x="550" y="-155" type="curve" smooth="yes"/>
      <point x="547" y="-169"/>
      <point x="556" y="-174"/>
      <point x="569" y="-175" type="curve" smooth="yes"/>
      <point x="631" y="-180" type="line"/>
      <point x="631" y="-218" type="line" name="n37"/>
      <point x="378" y="-218" type="line"/>
      <point x="378" y="-180" type="line"/>
      <point x="386.789" y="-179.155"/>
      <point x="421.775" y="-175.791"/>
      <point x="430" y="-175" type="curve" smooth="yes"/>
      <point x="442" y="-174"/>
      <point x="452" y="-168"/>
      <point x="454" y="-156" type="curve"/>
      <point x="468.702" y="-81.8111"/>
      <point x="549.708" y="326.969"/>
      <point x="562" y="389" type="curve"/>
      <point x="537" y="384"/>
      <point x="492" y="389"/>
      <point x="469" y="394" type="curve"/>
      <point x="458.466" y="342.783"/>
      <point x="419.53" y="153.473"/>
    </contour>
  </outline>
</glyph>
<glyph name="uni01A6" format="2">
  <advance width="592"/>
  <unicode hex="01A6"/>
  <outline>
    <contour>
      <point x="263" y="337" type="line" smooth="yes"/>
      <point x="350" y="337"/>
      <point x="423" y="364"/>
      <point x="423" y="442.438" type="curve" smooth="yes" name="n03"/>
      <point x="423" y="508"/>
      <point x="372" y="532"/>
      <point x="291" y="532" type="curve" smooth="yes"/>
      <point x="258" y="532" type="line" name="n07"/>
      <point x="216.575" y="337" type="line" name="n08"/>
    </contour>
    <contour>
      <point x="233" y="287" type="curve" smooth="yes"/>
      <point x="206" y="287" type="line" name="n10"/>
      <point x="158" y="66" type="line" smooth="yes"/>
      <point x="157.081" y="61.7688"/>
      <point x="159.992" y="48.891"/>
      <point x="173" y="48" type="curve" smooth="yes"/>
      <point x="246" y="43" type="line"/>
      <point x="246" y="0" type="line"/>
      <point x="-15" y="0" type="line"/>
      <point x="-15" y="42" type="line"/>
      <point x="37" y="47" type="line" smooth="yes"/>
      <point x="50.9712" y="48.3434"/>
      <point x="54.886" y="56.0235"/>
      <point x="57" y="66" type="curve" smooth="yes"/>
      <point x="171" y="604" type="line" smooth="yes"/>
      <point x="171.883" y="608.168"/>
      <point x="167.64" y="623.03"/>
      <point x="156" y="624" type="curve" smooth="yes"/>
      <point x="96" y="629" type="line"/>
      <point x="96" y="671" type="line"/>
      <point x="356" y="671" type="line"/>
      <point x="356" y="629" type="line"/>
      <point x="293" y="624" type="line" smooth="yes"/>
      <point x="281" y="623"/>
      <point x="274.676" y="620.057"/>
      <point x="272" y="604" type="curve" smooth="yes"/>
      <point x="268" y="580" type="line" name="n35"/>
      <point x="330" y="580" type="line" smooth="yes"/>
      <point x="456" y="580"/>
      <point x="533" y="550"/>
      <point x="533" y="463.524" type="curve" smooth="yes" name="n39"/>
      <point x="533" y="369"/>
      <point x="441" y="307"/>
      <point x="352" y="293" type="curve"/>
      <point x="391.847" y="267.903"/>
      <point x="408.921" y="234.38"/>
      <point x="428.801" y="170.697" type="curve" smooth="yes"/>
      <point x="461.005" y="67.5403" type="line" smooth="yes"/>
      <point x="475.817" y="20.0953"/>
      <point x="502.738" y="-13"/>
      <point x="545" y="-13" type="curve" smooth="yes" name="n49"/>
      <point x="552" y="-13"/>
      <point x="560" y="-12"/>
      <point x="567" y="-11" type="curve"/>
      <point x="567" y="-55" type="line"/>
      <point x="545" y="-63"/>
      <point x="523" y="-68"/>
      <point x="495.984" y="-68" type="curve" smooth="yes" name="n56"/>
      <point x="416.533" y="-68"/>
      <point x="382.021" y="-24.7579"/>
      <point x="359.054" y="53" type="curve" smooth="yes"/>
      <point x="324.376" y="170.409" type="line" smooth="yes"/>
      <point x="300.935" y="249.772"/>
      <point x="281.381" y="287"/>
    </contour>
  </outline>
</glyph>
<glyph name="uni01A7" format="2">
  <advance width="533"/>
  <unicode hex="01A7"/>
  <outline>
    <contour>
      <point x="480" y="197" type="line"/>
      <point x="450" y="36" type="line"/>
      <point x="417" y="15"/>
      <point x="349" y="-16"/>
      <point x="258" y="-16" type="curve" smooth="yes" name="n04"/>
      <point x="95" y="-16"/>
      <point x="30" y="53"/>
      <point x="30" y="138" type="curve" smooth="yes" name="n07"/>
      <point x="30" y="261"/>
      <point x="122" y="322"/>
      <point x="260" y="383" type="curve" smooth="yes"/>
      <point x="363" y="428"/>
      <point x="424" y="480"/>
      <point x="424" y="548" type="curve" smooth="yes" name="n13"/>
      <point x="424" y="602"/>
      <point x="386" y="638"/>
      <point x="317" y="638" type="curve" smooth="yes" name="n16"/>
      <point x="256" y="638"/>
      <point x="218" y="614"/>
      <point x="211" y="593" type="curve" smooth="yes"/>
      <point x="177" y="498" type="line"/>
      <point x="116" y="498" type="line"/>
      <point x="145" y="651" type="line"/>
      <point x="192" y="670"/>
      <point x="245" y="687"/>
      <point x="329" y="687" type="curve" smooth="yes" name="n25"/>
      <point x="445" y="687"/>
      <point x="526" y="645"/>
      <point x="526" y="551" type="curve" smooth="yes" name="n28"/>
      <point x="526" y="432"/>
      <point x="431" y="359"/>
      <point x="333" y="311" type="curve" smooth="yes"/>
      <point x="247" y="269"/>
      <point x="131" y="229"/>
      <point x="131" y="135" type="curve" smooth="yes" name="n34"/>
      <point x="131" y="75"/>
      <point x="178" y="36"/>
      <point x="252" y="36" type="curve" smooth="yes" name="n37"/>
      <point x="327" y="36"/>
      <point x="371" y="70"/>
      <point x="374" y="80" type="curve" smooth="yes"/>
      <point x="411" y="197" type="line"/>
    </contour>
  </outline>
</glyph>
<glyph name="uni01AA" format="2">
  <advance width="440"/>
  <unicode hex="01AA"/>
  <outline>
    <contour>
      <point x="486" y="-152" type="curve" smooth="yes"/>
      <point x="486" y="-181"/>
      <point x="444" y="-218" name="n02"/>
      <point x="383" y="-218" type="curve" smooth="yes"/>
      <point x="279" y="-218"/>
      <point x="222" y="-147"/>
      <point x="222" y="-53" type="curve" smooth="yes" name="n06"/>
      <point x="222" y="-38"/>
      <point x="224" y="-23"/>
      <point x="227" y="-7" type="curve" smooth="yes"/>
      <point x="292" y="335" type="line"/>
      <point x="262" y="320"/>
      <point x="229" y="312"/>
      <point x="193" y="312" type="curve" smooth="yes" name="n13"/>
      <point x="98" y="312"/>
      <point x="39" y="371"/>
      <point x="39" y="459" type="curve" smooth="yes" name="n16"/>
      <point x="39" y="564"/>
      <point x="121" y="688"/>
      <point x="264" y="688" type="curve" smooth="yes" name="n19"/>
      <point x="365" y="688"/>
      <point x="418" y="623"/>
      <point x="418" y="537" type="curve" smooth="yes" name="n22"/>
      <point x="418" y="525"/>
      <point x="417" y="512"/>
      <point x="414" y="499" type="curve"/>
      <point x="316" y="-9" type="line" smooth="yes"/>
      <point x="309" y="-47"/>
      <point x="306" y="-76"/>
      <point x="306" y="-98" type="curve" smooth="yes" name="n29"/>
      <point x="306" y="-133"/>
      <point x="318" y="-150"/>
      <point x="344" y="-162" type="curve"/>
      <point x="437" y="-89" type="line"/>
      <point x="468" y="-89"/>
      <point x="486" y="-117"/>
    </contour>
    <contour>
      <point x="328" y="542" type="curve" smooth="yes" name="n36"/>
      <point x="328" y="606"/>
      <point x="301" y="638"/>
      <point x="256" y="638" type="curve" smooth="yes" name="n39"/>
      <point x="172" y="638"/>
      <point x="128" y="531"/>
      <point x="128" y="457" type="curve" smooth="yes" name="n42"/>
      <point x="128" y="391"/>
      <point x="160" y="362"/>
      <point x="201" y="362" type="curve" smooth="yes" name="n45"/>
      <point x="284" y="362"/>
      <point x="328" y="464"/>
    </contour>
  </outline>
</glyph>
<glyph name="uni01AB" format="2">
  <advance width="299"/>
  <unicode hex="01AB"/>
  <outline>
    <contour>
      <point x="349" y="419" type="line" name="n00"/>
      <point x="202" y="419" type="line" name="n01"/>
      <point x="139" y="105" type="line" smooth="yes"/>
      <point x="131.979" y="70.0043"/>
      <point x="163" y="49"/>
      <point x="197" y="49" type="curve" smooth="yes" name="n05"/>
      <point x="235" y="49"/>
      <point x="280" y="66"/>
      <point x="301" y="73" type="curve"/>
      <point x="266" y="-114" type="line" smooth="yes"/>
      <point x="251" y="-190"/>
      <point x="201" y="-229"/>
      <point x="115" y="-229" type="curve" smooth="yes" name="n12"/>
      <point x="56" y="-229"/>
      <point x="24" y="-197"/>
      <point x="24" y="-167" type="curve" smooth="yes"/>
      <point x="24" y="-122"/>
      <point x="73" y="-111"/>
      <point x="80" y="-108" type="curve"/>
      <point x="146" y="-178" type="line" name="n19"/>
      <point x="182" y="-178"/>
      <point x="206" y="-162"/>
      <point x="214" y="-119" type="curve"/>
      <point x="214" y="-119"/>
      <point x="234.041" y="-12.1142"/>
      <point x="238" y="9" type="curve"/>
      <point x="202" y="-7"/>
      <point x="167" y="-12"/>
      <point x="138" y="-12" type="curve" smooth="yes" name="n28"/>
      <point x="66" y="-12"/>
      <point x="44" y="25"/>
      <point x="44" y="74" type="curve" smooth="yes"/>
      <point x="44" y="87"/>
      <point x="45" y="101"/>
      <point x="48" y="115" type="curve" smooth="yes"/>
      <point x="109" y="419" type="line"/>
      <point x="46" y="413" type="line"/>
      <point x="46" y="446" type="line"/>
      <point x="121" y="479" type="line"/>
      <point x="170" y="579" type="line" name="hr01"/>
      <point x="231" y="579" type="line" name="n40"/>
      <point x="211" y="465" type="line" name="hr02"/>
      <point x="349" y="465" type="line" name="n42"/>
    </contour>
  </outline>
</glyph>
<glyph name="uni01AE" format="2">
  <advance width="585"/>
  <unicode hex="01AE"/>
  <outline>
    <contour>
      <point x="411" y="627" type="curve"/>
      <point x="291" y="-23" type="line" smooth="yes"/>
      <point x="283.817" y="-59.394"/>
      <point x="278.468" y="-93.2656"/>
      <point x="278.468" y="-120.991" type="curve" smooth="yes" name="n04"/>
      <point x="278.468" y="-151.163"/>
      <point x="284.803" y="-174.056"/>
      <point x="302" y="-185" type="curve"/>
      <point x="411" y="-118" type="line"/>
      <point x="427.564" y="-124.102"/>
      <point x="444.128" y="-137.045"/>
      <point x="444.128" y="-164.401" type="curve" smooth="yes"/>
      <point x="444.128" y="-209.839"/>
      <point x="398.428" y="-231" name="n13"/>
      <point x="357" y="-231" type="curve" smooth="yes"/>
      <point x="231" y="-231"/>
      <point x="190" y="-155"/>
      <point x="190" y="-60" type="curve" smooth="yes" name="n17"/>
      <point x="190" y="-28"/>
      <point x="195" y="6"/>
      <point x="201" y="40" type="curve" smooth="yes"/>
      <point x="310" y="627" type="line"/>
      <point x="185" y="627" type="line" smooth="yes" name="n22"/>
      <point x="173" y="627"/>
      <point x="164.52" y="619.765"/>
      <point x="160" y="606.815" type="curve" smooth="yes"/>
      <point x="129" y="518" type="line" name="hr01"/>
      <point x="66" y="518" type="line" name="n27"/>
      <point x="71.5142" y="547.092"/>
      <point x="91.0463" y="650.141"/>
      <point x="95" y="671" type="curve" name="n30"/>
      <point x="208.641" y="671"/>
      <point x="568.755" y="671"/>
      <point x="649" y="671" type="curve"/>
      <point x="618" y="518" type="line"/>
      <point x="603.079" y="518"/>
      <point x="565.104" y="518"/>
      <point x="555" y="518" type="curve"/>
      <point x="555.666" y="532.795"/>
      <point x="558.311" y="591.51"/>
      <point x="559" y="606.815" type="curve"/>
      <point x="559" y="621.084"/>
      <point x="554.9" y="627" name="hr02"/>
      <point x="540" y="627" type="curve" smooth="yes"/>
      <point x="517.874" y="627"/>
      <point x="432.243" y="627"/>
    </contour>
  </outline>
</glyph>
<glyph name="uhorn" format="2">
  <advance width="645"/>
  <unicode hex="01B0"/>
  <outline>
    <contour>
      <point x="417" y="97" type="line" smooth="yes"/>
      <point x="415.93" y="91.8487"/>
      <point x="415.403" y="87.2928"/>
      <point x="415.403" y="83.1821" type="curve" smooth="yes"/>
      <point x="415.403" y="58.0711"/>
      <point x="435.276" y="41"/>
      <point x="464.508" y="41" type="curve" smooth="yes"/>
      <point x="481.695" y="41"/>
      <point x="504.659" y="47.9482"/>
      <point x="524" y="59" type="curve"/>
      <point x="524" y="24" type="line"/>
      <point x="491.604" y="5.85807"/>
      <point x="422.329" y="-12"/>
      <point x="381.358" y="-12" type="curve" smooth="yes"/>
      <point x="338.778" y="-12"/>
      <point x="323" y="7.28821"/>
      <point x="323" y="63" type="curve"/>
      <point x="271.346" y="13.3328"/>
      <point x="214.402" y="-12"/>
      <point x="155.927" y="-12" type="curve" smooth="yes" name="n19"/>
      <point x="84.806" y="-12"/>
      <point x="42.2728" y="25.4744"/>
      <point x="42.2728" y="86.8015" type="curve" smooth="yes"/>
      <point x="42.2728" y="95.6038"/>
      <point x="43.2221" y="104.466"/>
      <point x="45" y="113" type="curve" smooth="yes"/>
      <point x="110" y="425" type="line"/>
      <point x="26" y="434" type="line"/>
      <point x="26" y="463" type="line"/>
      <point x="177" y="494" type="line" name="n29"/>
      <point x="218" y="494" type="line"/>
      <point x="138" y="113" type="line" smooth="yes"/>
      <point x="137.353" y="109.92"/>
      <point x="137.047" y="106.814"/>
      <point x="137.047" y="103.709" type="curve" smooth="yes"/>
      <point x="137.047" y="76.8298"/>
      <point x="163.499" y="50"/>
      <point x="199.052" y="50" type="curve" smooth="yes" name="n37"/>
      <point x="232.734" y="50"/>
      <point x="284.66" y="74.0813"/>
      <point x="328" y="114" type="curve"/>
      <point x="404" y="482" type="line"/>
      <point x="497" y="482" type="line"/>
    </contour>
    <contour>
      <point x="464.117" y="397.056" type="line"/>
      <point x="531.977" y="433.499"/>
      <point x="573.866" y="476.819"/>
      <point x="583" y="520" type="curve" name="n46"/>
      <point x="518" y="520" type="line"/>
      <point x="510.991" y="532.148"/>
      <point x="506.982" y="547.29"/>
      <point x="506.987" y="561.595" type="curve" smooth="yes" name="n50"/>
      <point x="507" y="601.402"/>
      <point x="537.907" y="631"/>
      <point x="579.462" y="631" type="curve" smooth="yes" name="n53"/>
      <point x="618.397" y="631"/>
      <point x="641.973" y="604.651"/>
      <point x="641.982" y="561.129" type="curve" smooth="yes" name="n56"/>
      <point x="641.996" y="485.512"/>
      <point x="570.01" y="407.214"/>
      <point x="457.118" y="360.056" type="curve"/>
    </contour>
  </outline>
</glyph>
<glyph name="uni01B3.RtHook" format="2">
  <advance width="639"/>
  <unicode hex="01B3"/>
  <outline>
    <contour>
      <point x="810" y="685" type="curve" smooth="yes"/>
      <point x="810" y="646"/>
      <point x="779" y="619"/>
      <point x="747" y="610" type="curve"/>
      <point x="669" y="689" type="line"/>
      <point x="637" y="689"/>
      <point x="615" y="671"/>
      <point x="571" y="598" type="curve" smooth="yes"/>
      <point x="374" y="271" type="line"/>
      <point x="333" y="66" type="line"/>
      <point x="330" y="56"/>
      <point x="335" y="48"/>
      <point x="352" y="47" type="curve"/>
      <point x="352" y="47"/>
      <point x="394.221" y="43.2303"/>
      <point x="408" y="42" type="curve"/>
      <point x="408" y="0" type="line" name="n16"/>
      <point x="148" y="0" type="line"/>
      <point x="148" y="42" type="line"/>
      <point x="161.767" y="43.1868"/>
      <point x="206" y="47"/>
      <point x="206" y="47" type="curve"/>
      <point x="218" y="48"/>
      <point x="227" y="54"/>
      <point x="230" y="66" type="curve"/>
      <point x="271" y="272" type="line"/>
      <point x="159" y="610" type="line" smooth="yes"/>
      <point x="155" y="623"/>
      <point x="147" y="624"/>
      <point x="140" y="625" type="curve"/>
      <point x="140" y="625"/>
      <point x="96.8873" y="628.079"/>
      <point x="84" y="629" type="curve"/>
      <point x="84" y="671" type="line"/>
      <point x="343" y="671" type="line"/>
      <point x="343" y="629" type="line"/>
      <point x="327.514" y="628.032"/>
      <point x="279" y="625"/>
      <point x="279" y="625" type="curve"/>
      <point x="268" y="624"/>
      <point x="261" y="616"/>
      <point x="265" y="605" type="curve"/>
      <point x="347" y="345" type="line"/>
      <point x="534" y="656" type="line" smooth="yes"/>
      <point x="572" y="720"/>
      <point x="630" y="753" name="n45"/>
      <point x="713" y="753" type="curve" smooth="yes"/>
      <point x="769" y="753"/>
      <point x="810" y="715"/>
    </contour>
  </outline>
</glyph>
<glyph name="uni01B5" format="2">
  <advance width="562"/>
  <unicode hex="01B5"/>
  <outline>
    <contour>
      <point x="480" y="336" type="line" name="n00"/>
      <point x="347" y="336" type="line"/>
      <point x="115" y="53" type="line"/>
      <point x="387" y="53" type="line" smooth="yes" name="n03"/>
      <point x="401" y="53"/>
      <point x="408.233" y="58.9356"/>
      <point x="412" y="73" type="curve" smooth="yes"/>
      <point x="442" y="185" type="line" name="n07"/>
      <point x="510" y="185" type="line"/>
      <point x="475" y="0" type="line" name="n09"/>
      <point x="-20" y="0" type="line"/>
      <point x="-11" y="44" type="line"/>
      <point x="227" y="336" type="line"/>
      <point x="137" y="336" type="line"/>
      <point x="137" y="386" type="line"/>
      <point x="268" y="386" type="line"/>
      <point x="458" y="619" type="line"/>
      <point x="224" y="619" type="line" smooth="yes" name="n17"/>
      <point x="210" y="619"/>
      <point x="204" y="613"/>
      <point x="200" y="600" type="curve" smooth="yes"/>
      <point x="173" y="512" type="line" name="hr02"/>
      <point x="104" y="512" type="line" name="n22"/>
      <point x="136" y="671" type="line" name="n23"/>
      <point x="595" y="671" type="line"/>
      <point x="586" y="626" type="line"/>
      <point x="388" y="386" type="line"/>
      <point x="480" y="386" type="line" name="n27"/>
    </contour>
  </outline>
</glyph>
<glyph name="uni01B9" format="2">
  <advance width="516"/>
  <unicode hex="01B9"/>
  <outline>
    <contour>
      <point x="516" y="389" type="curve" smooth="yes"/>
      <point x="516" y="346"/>
      <point x="493" y="298"/>
      <point x="449" y="298" type="curve" smooth="yes" name="n03"/>
      <point x="419" y="298"/>
      <point x="402" y="315"/>
      <point x="399" y="332" type="curve"/>
      <point x="412.344" y="343.524"/>
      <point x="451.954" y="377.733"/>
      <point x="465" y="389" type="curve"/>
      <point x="461" y="405"/>
      <point x="435" y="418" name="hr01"/>
      <point x="415" y="418" type="curve" smooth="yes" name="n12"/>
      <point x="376" y="418"/>
      <point x="332" y="396"/>
      <point x="295" y="396" type="curve" smooth="yes"/>
      <point x="261" y="396"/>
      <point x="188" y="400"/>
      <point x="188" y="400" type="curve"/>
      <point x="215.421" y="361.79"/>
      <point x="339.661" y="188.669"/>
      <point x="371" y="145" type="curve"/>
      <point x="355.985" y="134.443"/>
      <point x="316.295" y="106.536"/>
      <point x="307" y="100" type="curve"/>
      <point x="304.232" y="107.535"/>
      <point x="291.906" y="141.088"/>
      <point x="289" y="149" type="curve" name="n27"/>
      <point x="195" y="142"/>
      <point x="90" y="64"/>
      <point x="90" y="-37" type="curve" smooth="yes" name="n30"/>
      <point x="90" y="-105"/>
      <point x="143" y="-177"/>
      <point x="217" y="-177" type="curve" smooth="yes" name="n33"/>
      <point x="244" y="-177"/>
      <point x="294" y="-166"/>
      <point x="319" y="-141" type="curve"/>
      <point x="348" y="-42" type="line"/>
      <point x="362" y="-38"/>
      <point x="382" y="-31"/>
      <point x="394" y="-31" type="curve" smooth="yes"/>
      <point x="432" y="-31"/>
      <point x="448" y="-57"/>
      <point x="448" y="-82" type="curve" smooth="yes"/>
      <point x="448" y="-180"/>
      <point x="305" y="-229"/>
      <point x="209" y="-229" type="curve" smooth="yes" name="n46"/>
      <point x="98" y="-229"/>
      <point x="-10" y="-153"/>
      <point x="-10" y="-48" type="curve" smooth="yes" name="n49"/>
      <point x="-10" y="95"/>
      <point x="134" y="191"/>
      <point x="258" y="191" type="curve" name="n52"/>
      <point x="221.644" y="243.136"/>
      <point x="94.4586" y="425.529"/>
      <point x="76" y="452" type="curve"/>
      <point x="159" y="500" type="line"/>
      <point x="161.501" y="491.963"/>
      <point x="169.764" y="465.401"/>
      <point x="173" y="455" type="curve"/>
      <point x="187" y="453"/>
      <point x="199" y="449"/>
      <point x="213" y="449" type="curve" smooth="yes"/>
      <point x="251" y="449"/>
      <point x="343" y="494"/>
      <point x="396" y="494" type="curve" smooth="yes" name="n65"/>
      <point x="468" y="494"/>
      <point x="516" y="453"/>
    </contour>
  </outline>
</glyph>
<glyph name="uni01C3" format="2">
  <advance width="259"/>
  <unicode hex="01C3"/>
  <outline>
    <contour>
      <point x="258" y="632" type="curve"/>
      <point x="258" y="632"/>
      <point x="158" y="240"/>
      <point x="140" y="169" type="curve"/>
      <point x="77" y="169" type="line"/>
      <point x="128" y="601" type="line"/>
      <point x="135" y="652"/>
      <point x="153" y="683" name="n07"/>
      <point x="208" y="683" type="curve" smooth="yes"/>
      <point x="242" y="683"/>
      <point x="258" y="666"/>
    </contour>
    <contour>
      <point x="157" y="49" type="curve" smooth="yes" name="n11"/>
      <point x="157" y="17"/>
      <point x="131" y="-9"/>
      <point x="91" y="-9" type="curve" smooth="yes" name="n14"/>
      <point x="62" y="-9"/>
      <point x="27" y="11"/>
      <point x="27" y="49" type="curve" smooth="yes" name="n17"/>
      <point x="27" y="84"/>
      <point x="55" y="109"/>
      <point x="91" y="109" type="curve" smooth="yes" name="n20"/>
      <point x="126" y="109"/>
      <point x="157" y="85"/>
    </contour>
  </outline>
</glyph>
<glyph name="uni01C5" format="2">
  <advance width="1115"/>
  <unicode hex="01C5"/>
  <outline>
    <contour>
      <point x="653" y="415" type="curve" smooth="yes" name="n00"/>
      <point x="653" y="169"/>
      <point x="476" y="0"/>
      <point x="220" y="0" type="curve" smooth="yes" name="n03"/>
      <point x="-15" y="0" type="line"/>
      <point x="-15" y="42" type="line"/>
      <point x="0.0252198" y="43.2117"/>
      <point x="47" y="47"/>
      <point x="47" y="47" type="curve"/>
      <point x="60" y="48"/>
      <point x="64" y="54"/>
      <point x="67" y="66" type="curve"/>
      <point x="171" y="604" type="line" smooth="yes"/>
      <point x="173" y="615"/>
      <point x="169" y="623"/>
      <point x="151" y="624" type="curve"/>
      <point x="151" y="624"/>
      <point x="108.543" y="627.791"/>
      <point x="95" y="629" type="curve"/>
      <point x="95" y="671" type="line"/>
      <point x="334" y="671" type="line" smooth="yes" name="n20"/>
      <point x="516" y="671"/>
      <point x="653" y="605"/>
    </contour>
    <contour>
      <point x="545" y="424" type="curve" smooth="yes" name="n23"/>
      <point x="545" y="591"/>
      <point x="435" y="617"/>
      <point x="311" y="621" type="curve" name="n26"/>
      <point x="275" y="621" type="line"/>
      <point x="165" y="52" type="line"/>
      <point x="238" y="52" type="line" name="n29"/>
      <point x="440" y="54"/>
      <point x="545" y="234"/>
    </contour>
    <contour>
      <point x="1121" y="468" type="line"/>
      <point x="782" y="71" type="line"/>
      <point x="866" y="93" type="line"/>
      <point x="893" y="83"/>
      <point x="940" y="59"/>
      <point x="967" y="59" type="curve" smooth="yes" name="n37"/>
      <point x="995" y="59" name="hr01"/>
      <point x="1009" y="78"/>
      <point x="1020" y="92" type="curve"/>
      <point x="965" y="153" type="line"/>
      <point x="978" y="177"/>
      <point x="1003" y="191"/>
      <point x="1021" y="191" type="curve" smooth="yes"/>
      <point x="1057" y="191"/>
      <point x="1078" y="158"/>
      <point x="1078" y="129" type="curve" smooth="yes"/>
      <point x="1078" y="48"/>
      <point x="998" y="-12"/>
      <point x="933" y="-12" type="curve" smooth="yes" name="n50"/>
      <point x="872" y="-12"/>
      <point x="824" y="31"/>
      <point x="775" y="31" type="curve" smooth="yes"/>
      <point x="770" y="31"/>
      <point x="758" y="30"/>
      <point x="749" y="21" type="curve"/>
      <point x="724" y="-26" type="line"/>
      <point x="655" y="11" type="line"/>
      <point x="994" y="408" type="line"/>
      <point x="906" y="389" type="line"/>
      <point x="879" y="404"/>
      <point x="848" y="418"/>
      <point x="821" y="418" type="curve" smooth="yes" name="n63"/>
      <point x="804" y="418"/>
      <point x="778" y="407"/>
      <point x="767" y="389" type="curve"/>
      <point x="820" y="325" type="line"/>
      <point x="815" y="317"/>
      <point x="793" y="292"/>
      <point x="765" y="292" type="curve" smooth="yes" name="n70"/>
      <point x="727" y="292" name="hr02"/>
      <point x="710" y="326"/>
      <point x="710" y="351" type="curve" smooth="yes"/>
      <point x="710" y="412"/>
      <point x="763" y="494"/>
      <point x="851" y="494" type="curve" smooth="yes" name="n76"/>
      <point x="911" y="494"/>
      <point x="961" y="444"/>
      <point x="1001" y="444" type="curve" smooth="yes"/>
      <point x="1005" y="444"/>
      <point x="1012" y="445"/>
      <point x="1024" y="451" type="curve"/>
      <point x="1046" y="507" type="line"/>
    </contour>
    <contour>
      <point x="1153" y="720" type="line" name="n84"/>
      <point x="987" y="551" type="line"/>
      <point x="908" y="551" type="line"/>
      <point x="810" y="720" type="line"/>
      <point x="880" y="720" type="line"/>
      <point x="963" y="628" type="line"/>
      <point x="1082" y="720" type="line"/>
    </contour>
  </outline>
</glyph>
<glyph name="uni01CC" format="2">
  <advance width="802"/>
  <unicode hex="01CC"/>
  <outline>
    <contour>
      <point x="527" y="20" type="line"/>
      <point x="510" y="14"/>
      <point x="435" y="-12" name="n02"/>
      <point x="393" y="-12" type="curve" smooth="yes"/>
      <point x="369" y="-12"/>
      <point x="301" y="-7"/>
      <point x="312" y="47" type="curve" smooth="yes"/>
      <point x="373" y="354" type="line" smooth="yes"/>
      <point x="383" y="407"/>
      <point x="351" y="423"/>
      <point x="329" y="423" type="curve" smooth="yes" name="n10"/>
      <point x="297" y="423"/>
      <point x="229" y="383"/>
      <point x="185" y="336" type="curve"/>
      <point x="116" y="0" type="line" name="n14"/>
      <point x="23" y="0" type="line"/>
      <point x="110" y="425" type="line"/>
      <point x="26" y="434" type="line"/>
      <point x="26" y="463" type="line"/>
      <point x="177" y="494" type="line"/>
      <point x="217" y="494" type="line"/>
      <point x="198" y="401" type="line"/>
      <point x="242" y="446"/>
      <point x="317" y="494"/>
      <point x="384" y="494" type="curve" smooth="yes" name="n24"/>
      <point x="457" y="494"/>
      <point x="489" y="456"/>
      <point x="473" y="366" type="curve"/>
      <point x="420" y="84" type="line" smooth="yes"/>
      <point x="413" y="46"/>
      <point x="451" y="42"/>
      <point x="463" y="42" type="curve" smooth="yes"/>
      <point x="481" y="42"/>
      <point x="503" y="48"/>
      <point x="526" y="55" type="curve"/>
    </contour>
    <contour>
      <point x="796" y="641" type="curve" smooth="yes" name="n35"/>
      <point x="796" y="617"/>
      <point x="771" y="585"/>
      <point x="734" y="585" type="curve" smooth="yes" name="n38"/>
      <point x="698" y="585"/>
      <point x="672" y="609"/>
      <point x="672" y="641" type="curve" smooth="yes" name="n41"/>
      <point x="672" y="671"/>
      <point x="692" y="698"/>
      <point x="734" y="698" type="curve" smooth="yes" name="n44"/>
      <point x="774" y="698"/>
      <point x="796" y="671"/>
    </contour>
    <contour>
      <point x="761" y="494" type="line"/>
      <point x="690" y="80" type="line" smooth="yes"/>
      <point x="673" y="-20"/>
      <point x="602" y="-229" name="n50"/>
      <point x="468" y="-229" type="curve" smooth="yes"/>
      <point x="426" y="-229"/>
      <point x="401" y="-206"/>
      <point x="401" y="-176" type="curve" smooth="yes"/>
      <point x="401" y="-151"/>
      <point x="419" y="-137"/>
      <point x="429" y="-131" type="curve"/>
      <point x="529" y="-158" type="line"/>
      <point x="548" y="-137"/>
      <point x="572" y="-67"/>
      <point x="582" y="-12" type="curve" smooth="yes"/>
      <point x="657" y="425" type="line"/>
      <point x="573" y="434" type="line"/>
      <point x="573" y="463" type="line"/>
      <point x="724" y="494" type="line"/>
    </contour>
  </outline>
</glyph>
<glyph name="uni01DB" format="2">
  <advance width="707"/>
  <unicode hex="01DB"/>
  <outline>
    <contour>
      <point x="749" y="629" type="line"/>
      <point x="691" y="624" type="line" smooth="yes"/>
      <point x="679.003" y="622.966"/>
      <point x="669" y="617"/>
      <point x="667" y="604" type="curve"/>
      <point x="590" y="214" type="line" smooth="yes"/>
      <point x="562" y="69"/>
      <point x="470" y="-16"/>
      <point x="311" y="-16" type="curve" smooth="yes" name="n08"/>
      <point x="188" y="-16"/>
      <point x="92" y="32"/>
      <point x="92" y="159" type="curve" smooth="yes" name="n11"/>
      <point x="92" y="179"/>
      <point x="96" y="218"/>
      <point x="105" y="264" type="curve" smooth="yes"/>
      <point x="175" y="604" type="line" smooth="yes"/>
      <point x="177" y="615"/>
      <point x="173" y="623"/>
      <point x="155" y="624" type="curve" name="n18"/>
      <point x="155" y="624"/>
      <point x="112.528" y="627.792"/>
      <point x="99" y="629" type="curve"/>
      <point x="99" y="671" type="line" name="n22"/>
      <point x="359" y="671" type="line"/>
      <point x="359" y="629" type="line"/>
      <point x="344.23" y="627.748"/>
      <point x="300" y="624"/>
      <point x="300" y="624" type="curve"/>
      <point x="288" y="623"/>
      <point x="278" y="617"/>
      <point x="276" y="604" type="curve"/>
      <point x="207" y="264" type="line" smooth="yes"/>
      <point x="199" y="225"/>
      <point x="196" y="193"/>
      <point x="196" y="175" type="curve" smooth="yes" name="n34"/>
      <point x="196" y="91"/>
      <point x="251" y="49"/>
      <point x="337" y="49" type="curve" smooth="yes" name="n37"/>
      <point x="467" y="49"/>
      <point x="508" y="142"/>
      <point x="529" y="249" type="curve" smooth="yes"/>
      <point x="599" y="604" type="line" smooth="yes"/>
      <point x="601" y="615"/>
      <point x="597" y="623"/>
      <point x="579" y="624" type="curve"/>
      <point x="579" y="624"/>
      <point x="536.292" y="627.813"/>
      <point x="523" y="629" type="curve"/>
      <point x="523" y="671" type="line"/>
      <point x="749" y="671" type="line"/>
    </contour>
    <contour>
      <point x="618" y="836" type="curve" smooth="yes" name="n50"/>
      <point x="618" y="806"/>
      <point x="594" y="780"/>
      <point x="564" y="780" type="curve" smooth="yes" name="n53"/>
      <point x="534" y="780"/>
      <point x="509" y="806"/>
      <point x="509" y="836" type="curve" smooth="yes" name="n56"/>
      <point x="509" y="864"/>
      <point x="536" y="891"/>
      <point x="564" y="891" type="curve" smooth="yes" name="n59"/>
      <point x="594" y="891"/>
      <point x="618" y="866"/>
    </contour>
    <contour>
      <point x="411" y="836" type="curve" smooth="yes" name="n62"/>
      <point x="411" y="806"/>
      <point x="386" y="780"/>
      <point x="356" y="780" type="curve" smooth="yes"/>
      <point x="327" y="780"/>
      <point x="302" y="806"/>
      <point x="302" y="835" type="curve" smooth="yes" name="n68"/>
      <point x="302" y="864"/>
      <point x="327" y="891"/>
      <point x="356" y="891" type="curve" smooth="yes"/>
      <point x="386" y="891"/>
      <point x="411" y="866"/>
    </contour>
    <contour>
      <point x="562" y="941" type="line"/>
      <point x="500" y="941" type="line"/>
      <point x="355" y="1037" type="line" smooth="yes"/>
      <point x="341" y="1046"/>
      <point x="333" y="1059"/>
      <point x="333" y="1079" type="curve" smooth="yes"/>
      <point x="333" y="1099"/>
      <point x="342" y="1123" name="n81"/>
      <point x="377" y="1123" type="curve" smooth="yes"/>
      <point x="405" y="1123"/>
      <point x="417" y="1112"/>
      <point x="429" y="1098" type="curve" smooth="yes"/>
    </contour>
  </outline>
</glyph>
<glyph name="uni01E3" format="2">
  <advance width="745"/>
  <unicode hex="01E3"/>
  <outline>
    <contour>
      <point x="727" y="393" type="curve" smooth="yes" name="n00"/>
      <point x="727" y="284"/>
      <point x="553" y="227"/>
      <point x="434" y="220" type="curve"/>
      <point x="432" y="207"/>
      <point x="425" y="186"/>
      <point x="425" y="174" type="curve" smooth="yes"/>
      <point x="425" y="86"/>
      <point x="433" y="48"/>
      <point x="520" y="48" type="curve" smooth="yes" name="n09"/>
      <point x="565" y="48"/>
      <point x="617" y="81"/>
      <point x="689" y="145" type="curve"/>
      <point x="689" y="82" type="line"/>
      <point x="653" y="46"/>
      <point x="578" y="-12"/>
      <point x="487" y="-12" type="curve" smooth="yes" name="n16"/>
      <point x="409" y="-12"/>
      <point x="363" y="-1"/>
      <point x="343" y="81" type="curve"/>
      <point x="299" y="19"/>
      <point x="231" y="-12"/>
      <point x="177" y="-12" type="curve" smooth="yes" name="n22"/>
      <point x="59" y="-12"/>
      <point x="32" y="95"/>
      <point x="32" y="167" type="curve" smooth="yes" name="n25"/>
      <point x="32" y="322"/>
      <point x="133" y="494"/>
      <point x="320" y="494" type="curve" smooth="yes" name="n28"/>
      <point x="357" y="494"/>
      <point x="377" y="476"/>
      <point x="395" y="458" type="curve"/>
      <point x="411" y="482" type="line"/>
      <point x="478" y="482" type="line"/>
      <point x="474" y="471"/>
      <point x="467" y="446" name="hr01"/>
      <point x="462" y="432" type="curve"/>
      <point x="505" y="467"/>
      <point x="555" y="493"/>
      <point x="607" y="493" type="curve" smooth="yes"/>
      <point x="699" y="493"/>
      <point x="727" y="422"/>
    </contour>
    <contour>
      <point x="639" y="394" type="curve" smooth="yes" name="n42"/>
      <point x="639" y="420"/>
      <point x="618" y="442"/>
      <point x="584" y="442" type="curve" smooth="yes" name="n45"/>
      <point x="519" y="442"/>
      <point x="455" y="334"/>
      <point x="438" y="258" type="curve"/>
      <point x="523" y="266"/>
      <point x="639" y="323"/>
    </contour>
    <contour>
      <point x="371" y="391" type="line"/>
      <point x="334" y="446" type="line" name="n52"/>
      <point x="181" y="446"/>
      <point x="131" y="283" name="hr03"/>
      <point x="131" y="173" type="curve" smooth="yes" name="n55"/>
      <point x="131" y="117"/>
      <point x="146" y="54"/>
      <point x="208" y="54" type="curve" smooth="yes" name="n58"/>
      <point x="247" y="54"/>
      <point x="302" y="93"/>
      <point x="320" y="117" type="curve"/>
    </contour>
    <contour>
      <point x="630" y="652" type="line" name="n62"/>
      <point x="618" y="586" type="line" name="n63"/>
      <point x="315" y="586" type="line"/>
      <point x="329" y="652" type="line"/>
    </contour>
  </outline>
</glyph>
<glyph name="uni01E5" format="2">
  <advance width="511"/>
  <unicode hex="01E5"/>
  <outline>
    <contour>
      <point x="509" y="-104" type="line" name="n00"/>
      <point x="463" y="-104" type="line"/>
      <point x="434" y="-174"/>
      <point x="327" y="-229"/>
      <point x="218" y="-229" type="curve" smooth="yes" name="n04"/>
      <point x="99" y="-229"/>
      <point x="37" y="-171"/>
      <point x="27" y="-104" type="curve"/>
      <point x="-16" y="-104" type="line"/>
      <point x="-16" y="-54" type="line"/>
      <point x="30" y="-54" type="line"/>
      <point x="44" y="-2"/>
      <point x="97" y="34"/>
      <point x="159" y="55" type="curve"/>
      <point x="153" y="86"/>
      <point x="171" y="145"/>
      <point x="198" y="172" type="curve"/>
      <point x="145" y="195"/>
      <point x="104" y="232"/>
      <point x="104" y="296" type="curve" smooth="yes" name="n19"/>
      <point x="104" y="393"/>
      <point x="180" y="494"/>
      <point x="307" y="494" type="curve" smooth="yes" name="n22"/>
      <point x="355" y="494"/>
      <point x="394" y="475"/>
      <point x="406" y="468" type="curve" name="hr01"/>
      <point x="542" y="468" type="line" name="n26"/>
      <point x="542" y="421" type="line" name="n27"/>
      <point x="450" y="421" type="line"/>
      <point x="456" y="406"/>
      <point x="462" y="381"/>
      <point x="462" y="354" type="curve" smooth="yes" name="n31"/>
      <point x="462" y="227"/>
      <point x="362" y="163"/>
      <point x="246" y="163" type="curve" name="n34"/>
      <point x="237" y="143"/>
      <point x="232" y="114"/>
      <point x="235" y="103" type="curve"/>
      <point x="369" y="42" type="line" smooth="yes"/>
      <point x="425" y="17"/>
      <point x="464" y="-6"/>
      <point x="470" y="-54" type="curve"/>
      <point x="509" y="-54" type="line" name="n42"/>
    </contour>
    <contour>
      <point x="367" y="359" type="curve" smooth="yes" name="n43"/>
      <point x="367" y="408"/>
      <point x="349" y="452" name="hr02"/>
      <point x="309" y="452" type="curve" smooth="yes" name="n46"/>
      <point x="261" y="452"/>
      <point x="201" y="377"/>
      <point x="201" y="283" type="curve" smooth="yes" name="n49"/>
      <point x="201" y="235"/>
      <point x="223" y="200"/>
      <point x="258" y="200" type="curve" smooth="yes" name="n52"/>
      <point x="325" y="200"/>
      <point x="367" y="296"/>
    </contour>
    <contour>
      <point x="244" y="-183" type="curve" smooth="yes" name="n55"/>
      <point x="326" y="-183"/>
      <point x="365" y="-138"/>
      <point x="375" y="-104" type="curve"/>
      <point x="127" y="-104" type="line"/>
      <point x="142" y="-143"/>
      <point x="181" y="-183"/>
    </contour>
    <contour>
      <point x="202" y="31" type="line"/>
      <point x="144" y="17"/>
      <point x="123" y="-18"/>
      <point x="120" y="-54" type="curve"/>
      <point x="366" y="-54" type="line"/>
      <point x="358" y="-44"/>
      <point x="346" y="-35"/>
      <point x="327" y="-26" type="curve" smooth="yes"/>
    </contour>
  </outline>
</glyph>
<glyph name="uni01EE" format="2">
  <advance width="573"/>
  <unicode hex="01EE"/>
  <outline>
    <contour>
      <point x="573" y="602" type="line"/>
      <point x="267" y="293" type="line" name="n01"/>
      <point x="381" y="293"/>
      <point x="508" y="210"/>
      <point x="508" y="94" type="curve" smooth="yes"/>
      <point x="508" y="-64"/>
      <point x="344" y="-229"/>
      <point x="146" y="-229" type="curve" smooth="yes" name="n07"/>
      <point x="-10" y="-229"/>
      <point x="-65" y="-149"/>
      <point x="-65" y="-104" type="curve" smooth="yes"/>
      <point x="-65" y="-60"/>
      <point x="-33" y="-12" name="hr01"/>
      <point x="18" y="-12" type="curve" smooth="yes" name="n13"/>
      <point x="25" y="-12"/>
      <point x="56" y="-12"/>
      <point x="65" y="-21" type="curve"/>
      <point x="78" y="-133" type="line"/>
      <point x="105" y="-153"/>
      <point x="132" y="-162" name="hr02"/>
      <point x="167" y="-162" type="curve" smooth="yes" name="n20"/>
      <point x="285" y="-162"/>
      <point x="385" y="-31"/>
      <point x="385" y="92" type="curve" smooth="yes"/>
      <point x="385" y="194"/>
      <point x="274" y="238"/>
      <point x="220" y="238" type="curve" smooth="yes" name="n26"/>
      <point x="198" y="238"/>
      <point x="185" y="231"/>
      <point x="173" y="222" type="curve"/>
      <point x="144" y="264" type="line"/>
      <point x="458" y="576" type="line"/>
      <point x="187" y="576" type="line" smooth="yes" name="n32"/>
      <point x="180" y="576"/>
      <point x="166" y="570"/>
      <point x="163" y="559" type="curve"/>
      <point x="129" y="458" type="line" name="n36"/>
      <point x="68" y="458" type="line"/>
      <point x="109" y="671" type="line" name="n38"/>
      <point x="573" y="671" type="line"/>
    </contour>
    <contour>
      <point x="563" y="916" type="line" name="n40"/>
      <point x="397" y="746" type="line"/>
      <point x="318" y="746" type="line"/>
      <point x="220" y="916" type="line"/>
      <point x="291" y="916" type="line"/>
      <point x="374" y="823" type="line"/>
      <point x="492" y="916" type="line"/>
    </contour>
  </outline>
</glyph>
<glyph name="jcaron" format="2">
  <advance width="272"/>
  <unicode hex="01F0"/>
  <outline>
    <contour>
      <point x="231" y="494" type="line" name="n00"/>
      <point x="160" y="80" type="line" smooth="yes"/>
      <point x="142.855" y="-19.9752"/>
      <point x="72" y="-229" name="n03"/>
      <point x="-62" y="-229" type="curve" smooth="yes"/>
      <point x="-104" y="-229"/>
      <point x="-129" y="-206"/>
      <point x="-129" y="-176" type="curve" smooth="yes"/>
      <point x="-129" y="-151"/>
      <point x="-111" y="-137"/>
      <point x="-101" y="-131" type="curve"/>
      <point x="-1" y="-158" type="line"/>
      <point x="18" y="-137"/>
      <point x="42" y="-67"/>
      <point x="52" y="-12" type="curve" smooth="yes"/>
      <point x="127" y="425" type="line"/>
      <point x="43" y="434" type="line"/>
      <point x="43" y="463" type="line"/>
      <point x="194" y="494" type="line"/>
    </contour>
    <contour>
      <point x="404" y="720" type="line" name="n19"/>
      <point x="238" y="551" type="line"/>
      <point x="159" y="551" type="line"/>
      <point x="61" y="720" type="line"/>
      <point x="131" y="720" type="line"/>
      <point x="214" y="628" type="line"/>
      <point x="333" y="720" type="line"/>
    </contour>
  </outline>
</glyph>
<glyph name="uni01F6" format="2">
  <advance width="1004"/>
  <unicode hex="01F6"/>
  <outline>
    <contour>
      <point x="495" y="146" type="curve" smooth="yes"/>
      <point x="530" y="326" type="line" name="n01"/>
      <point x="218" y="326" type="line"/>
      <point x="211.271" y="291.009"/>
      <point x="179.481" y="125.7"/>
      <point x="168" y="66" type="curve" smooth="yes"/>
      <point x="166" y="56"/>
      <point x="170" y="48"/>
      <point x="187" y="47" type="curve"/>
      <point x="245" y="42" type="line"/>
      <point x="245" y="0" type="line" name="n10"/>
      <point x="-15" y="0" type="line"/>
      <point x="-15" y="9.08663"/>
      <point x="-15" y="29.2805"/>
      <point x="-15" y="42" type="curve"/>
      <point x="-15" y="42"/>
      <point x="28.2006" y="45.7895"/>
      <point x="42" y="47" type="curve" smooth="yes"/>
      <point x="55" y="48"/>
      <point x="64" y="54"/>
      <point x="67" y="66" type="curve"/>
      <point x="171" y="604" type="line" smooth="yes"/>
      <point x="173" y="615"/>
      <point x="169" y="623"/>
      <point x="151" y="624" type="curve" name="n24"/>
      <point x="136.98" y="625.252"/>
      <point x="95" y="629"/>
      <point x="95" y="629" type="curve"/>
      <point x="95" y="638.807"/>
      <point x="95" y="662.5"/>
      <point x="95" y="671" type="curve" name="n30"/>
      <point x="355" y="671" type="line"/>
      <point x="355" y="662.143"/>
      <point x="355" y="639.219"/>
      <point x="355" y="629" type="curve"/>
      <point x="355" y="629"/>
      <point x="310.774" y="625.252"/>
      <point x="296" y="624" type="curve" smooth="yes"/>
      <point x="284" y="623"/>
      <point x="274" y="617"/>
      <point x="272" y="604" type="curve"/>
      <point x="228" y="376" type="line"/>
      <point x="540" y="376" type="line" name="n42"/>
      <point x="551.015" y="433.077"/>
      <point x="584" y="604"/>
      <point x="584" y="604" type="curve"/>
      <point x="586.118" y="614.978"/>
      <point x="582" y="623"/>
      <point x="564" y="624" type="curve"/>
      <point x="507" y="629" type="line"/>
      <point x="507" y="671" type="line"/>
      <point x="767" y="671" type="line"/>
      <point x="767" y="662.787"/>
      <point x="767" y="639.823"/>
      <point x="767" y="629" type="curve"/>
      <point x="767" y="629"/>
      <point x="722.514" y="625.165"/>
      <point x="709" y="624" type="curve" smooth="yes"/>
      <point x="697" y="623"/>
      <point x="687" y="617"/>
      <point x="685" y="604" type="curve"/>
      <point x="597" y="150" type="line"/>
      <point x="576" y="52"/>
      <point x="630" y="50" name="hr01"/>
      <point x="656" y="50" type="curve" smooth="yes" name="n64"/>
      <point x="704" y="50"/>
      <point x="767" y="74"/>
      <point x="782" y="149" type="curve" smooth="yes"/>
      <point x="797.585" y="225.32"/>
      <point x="838.068" y="423.566"/>
      <point x="850" y="482" type="curve"/>
      <point x="943" y="482" type="line"/>
      <point x="928.121" y="409.893"/>
      <point x="889.03" y="220.454"/>
      <point x="878" y="167" type="curve" smooth="yes"/>
      <point x="855" y="58"/>
      <point x="732" y="-12"/>
      <point x="623" y="-12" type="curve" smooth="yes" name="n77"/>
      <point x="530" y="-12"/>
      <point x="472.802" y="31.841"/>
    </contour>
  </outline>
</glyph>
<glyph name="uni01F7" format="2">
  <advance width="552"/>
  <unicode hex="01F7"/>
  <outline>
    <contour>
      <point x="562" y="497" type="curve" smooth="yes" name="n00"/>
      <point x="562" y="301"/>
      <point x="308" y="97"/>
      <point x="145" y="24" type="curve"/>
      <point x="139.915" y="-1.56886"/>
      <point x="114.575" y="-128.992"/>
      <point x="110" y="-152" type="curve" smooth="yes"/>
      <point x="108" y="-162"/>
      <point x="112" y="-170"/>
      <point x="130" y="-171" type="curve"/>
      <point x="138.116" y="-171.712"/>
      <point x="168.852" y="-174.408"/>
      <point x="187" y="-176" type="curve"/>
      <point x="187" y="-218" type="line" name="n13"/>
      <point x="-73" y="-218" type="line"/>
      <point x="-73" y="-176" type="line"/>
      <point x="-15" y="-171" type="line" smooth="yes"/>
      <point x="-3" y="-170"/>
      <point x="6" y="-164"/>
      <point x="9" y="-152" type="curve"/>
      <point x="43.9244" y="27.136"/>
      <point x="122.868" y="432.057"/>
      <point x="156" y="602" type="curve"/>
      <point x="67" y="611" type="line"/>
      <point x="67" y="641" type="line"/>
      <point x="223" y="671" type="line" name="n25"/>
      <point x="269" y="671" type="line"/>
      <point x="258" y="612" type="line"/>
      <point x="296" y="644"/>
      <point x="358" y="681" name="hr01"/>
      <point x="399" y="681" type="curve" smooth="yes" name="n30"/>
      <point x="513" y="681"/>
      <point x="562" y="595"/>
    </contour>
    <contour>
      <point x="453" y="479" type="curve" smooth="yes" name="n33"/>
      <point x="453" y="561"/>
      <point x="413" y="599"/>
      <point x="368" y="599" type="curve" smooth="yes" name="n36"/>
      <point x="335" y="599"/>
      <point x="290" y="577"/>
      <point x="244" y="536" type="curve"/>
      <point x="229.344" y="460.845"/>
      <point x="169.853" y="155.78"/>
      <point x="158" y="95" type="curve"/>
      <point x="289" y="172"/>
      <point x="453" y="333"/>
    </contour>
  </outline>
</glyph>
<glyph name="aeacute" format="2">
  <advance width="745"/>
  <unicode hex="01FD"/>
  <outline>
    <contour>
      <point x="727" y="393" type="curve" smooth="yes" name="n00"/>
      <point x="727" y="284"/>
      <point x="553" y="227"/>
      <point x="434" y="220" type="curve"/>
      <point x="432" y="207"/>
      <point x="425" y="186"/>
      <point x="425" y="174" type="curve" smooth="yes"/>
      <point x="425" y="86"/>
      <point x="433" y="48"/>
      <point x="520" y="48" type="curve" smooth="yes" name="n09"/>
      <point x="565" y="48"/>
      <point x="617" y="81"/>
      <point x="689" y="145" type="curve"/>
      <point x="689" y="82" type="line"/>
      <point x="653" y="46"/>
      <point x="578" y="-12"/>
      <point x="487" y="-12" type="curve" smooth="yes" name="n16"/>
      <point x="409" y="-12"/>
      <point x="363" y="-1"/>
      <point x="343" y="81" type="curve"/>
      <point x="299" y="19"/>
      <point x="231" y="-12"/>
      <point x="177" y="-12" type="curve" smooth="yes" name="n22"/>
      <point x="59" y="-12"/>
      <point x="32" y="95"/>
      <point x="32" y="167" type="curve" smooth="yes" name="n25"/>
      <point x="32" y="322"/>
      <point x="133" y="494"/>
      <point x="320" y="494" type="curve" smooth="yes" name="n28"/>
      <point x="357" y="494"/>
      <point x="377" y="476"/>
      <point x="395" y="458" type="curve"/>
      <point x="411" y="482" type="line"/>
      <point x="478" y="482" type="line"/>
      <point x="474" y="471"/>
      <point x="467" y="446" name="hr01"/>
      <point x="462" y="432" type="curve"/>
      <point x="505" y="467"/>
      <point x="555" y="493"/>
      <point x="607" y="493" type="curve" smooth="yes"/>
      <point x="699" y="493"/>
      <point x="727" y="422"/>
    </contour>
    <contour>
      <point x="639" y="394" type="curve" smooth="yes" name="n42"/>
      <point x="639" y="420"/>
      <point x="618" y="442"/>
      <point x="584" y="442" type="curve" smooth="yes" name="n45"/>
      <point x="519" y="442"/>
      <point x="455" y="334"/>
      <point x="438" y="258" type="curve"/>
      <point x="523" y="266"/>
      <point x="639" y="323"/>
    </contour>
    <contour>
      <point x="371" y="391" type="line"/>
      <point x="334" y="446" type="line" name="n52"/>
      <point x="181" y="446"/>
      <point x="131" y="283" name="hr03"/>
      <point x="131" y="173" type="curve" smooth="yes" name="n55"/>
      <point x="131" y="117"/>
      <point x="146" y="54"/>
      <point x="208" y="54" type="curve" smooth="yes" name="n58"/>
      <point x="247" y="54"/>
      <point x="302" y="93"/>
      <point x="320" y="117" type="curve"/>
    </contour>
    <contour>
      <point x="622" y="689" type="curve" smooth="yes"/>
      <point x="622" y="670"/>
      <point x="613" y="658"/>
      <point x="598" y="648" type="curve" smooth="yes"/>
      <point x="448" y="551" type="line"/>
      <point x="377" y="551" type="line"/>
      <point x="514" y="707" type="line" smooth="yes"/>
      <point x="527" y="722"/>
      <point x="541" y="732" name="n70"/>
      <point x="571" y="732" type="curve" smooth="yes"/>
      <point x="606" y="732"/>
      <point x="622" y="709"/>
    </contour>
  </outline>
</glyph>
<glyph name="uni0220" format="2">
  <advance width="724"/>
  <unicode hex="0220"/>
  <outline>
    <contour>
      <point x="246" y="463" type="curve"/>
      <point x="168" y="66" type="line"/>
      <point x="168" y="51.6808"/>
      <point x="173.72" y="48.231"/>
      <point x="188" y="47" type="curve" smooth="yes"/>
      <point x="246" y="42" type="line"/>
      <point x="246" y="0" type="line" name="n06"/>
      <point x="-15" y="0" type="line"/>
      <point x="-15" y="42" type="line"/>
      <point x="43" y="47" type="line" smooth="yes"/>
      <point x="56" y="48"/>
      <point x="64.691" y="54.0556"/>
      <point x="67" y="66" type="curve" smooth="yes"/>
      <point x="168.993" y="593.617" type="line" smooth="yes"/>
      <point x="169.954" y="598.587"/>
      <point x="171.892" y="609.248"/>
      <point x="171.888" y="612.898" type="curve" smooth="yes"/>
      <point x="171.882" y="619.107"/>
      <point x="166.238" y="622.639"/>
      <point x="151" y="624" type="curve" smooth="yes"/>
      <point x="142.851" y="624.728"/>
      <point x="104.999" y="628.107"/>
      <point x="95" y="629" type="curve"/>
      <point x="95" y="671" type="line" name="n23"/>
      <point x="137.584" y="671"/>
      <point x="239.064" y="671"/>
      <point x="285" y="671" type="curve"/>
      <point x="262" y="551" type="line"/>
      <point x="327" y="639"/>
      <point x="409" y="687" name="hr01"/>
      <point x="503" y="687" type="curve" smooth="yes" name="n30"/>
      <point x="593" y="687"/>
      <point x="689" y="617"/>
      <point x="689" y="512" type="curve" smooth="yes" name="n33"/>
      <point x="689" y="501"/>
      <point x="688" y="490"/>
      <point x="686" y="478" type="curve" smooth="yes"/>
      <point x="564" y="-165" type="line"/>
      <point x="564" y="-179.32"/>
      <point x="569.732" y="-182.748"/>
      <point x="584" y="-184" type="curve" smooth="yes"/>
      <point x="641" y="-189" type="line"/>
      <point x="641" y="-197.078"/>
      <point x="641" y="-225.033"/>
      <point x="641" y="-231" type="curve" name="n44"/>
      <point x="594.019" y="-231"/>
      <point x="447.73" y="-231"/>
      <point x="381" y="-231" type="curve"/>
      <point x="381" y="-189" type="line"/>
      <point x="439" y="-184" type="line" smooth="yes"/>
      <point x="452" y="-183"/>
      <point x="461" y="-177"/>
      <point x="463" y="-165" type="curve" smooth="yes"/>
      <point x="584" y="478" type="line" smooth="yes"/>
      <point x="585.487" y="485.928"/>
      <point x="586.197" y="493.621"/>
      <point x="586.197" y="501.046" type="curve" smooth="yes" name="n56"/>
      <point x="586.197" y="568.549"/>
      <point x="527.468" y="614"/>
      <point x="459" y="614" type="curve" smooth="yes" name="n59"/>
      <point x="382" y="614"/>
      <point x="271" y="507"/>
    </contour>
  </outline>
</glyph>
<glyph name="uni0223" format="2">
  <advance width="540"/>
  <unicode hex="0223"/>
  <outline>
    <contour>
      <point x="351" y="737" type="curve" smooth="yes" name="n00"/>
      <point x="442" y="737"/>
      <point x="509" y="683"/>
      <point x="509" y="587" type="curve" smooth="yes" name="n03"/>
      <point x="509" y="477"/>
      <point x="417" y="395"/>
      <point x="341" y="383" type="curve"/>
      <point x="409" y="365"/>
      <point x="464" y="318" name="hr01"/>
      <point x="464" y="231" type="curve" smooth="yes" name="n09"/>
      <point x="464" y="93"/>
      <point x="338" y="-12"/>
      <point x="209" y="-12" type="curve" smooth="yes" name="n12"/>
      <point x="100" y="-12"/>
      <point x="31" y="47"/>
      <point x="31" y="150" type="curve" smooth="yes" name="n15"/>
      <point x="31" y="271"/>
      <point x="126" y="365"/>
      <point x="226" y="383" type="curve"/>
      <point x="176" y="392"/>
      <point x="122" y="429" name="hr02"/>
      <point x="122" y="513" type="curve" smooth="yes" name="n21"/>
      <point x="122" y="648"/>
      <point x="237" y="737"/>
    </contour>
    <contour>
      <point x="340" y="687" type="curve" smooth="yes" name="n24"/>
      <point x="257" y="687"/>
      <point x="220" y="594"/>
      <point x="220" y="516" type="curve" smooth="yes" name="n27"/>
      <point x="220" y="462"/>
      <point x="240" y="411"/>
      <point x="288" y="411" type="curve" smooth="yes" name="n30"/>
      <point x="362" y="411"/>
      <point x="412" y="496"/>
      <point x="412" y="586" type="curve" smooth="yes" name="n33"/>
      <point x="412" y="645"/>
      <point x="386" y="687"/>
    </contour>
    <contour>
      <point x="219" y="41" type="curve" smooth="yes" name="n36"/>
      <point x="308" y="41"/>
      <point x="363" y="139"/>
      <point x="363" y="236" type="curve" smooth="yes" name="n39"/>
      <point x="363" y="303" name="hr03"/>
      <point x="328" y="356"/>
      <point x="278" y="356" type="curve" smooth="yes" name="n42"/>
      <point x="188" y="356"/>
      <point x="132" y="254"/>
      <point x="132" y="157" type="curve" smooth="yes" name="n45"/>
      <point x="132" y="94"/>
      <point x="167" y="41"/>
    </contour>
  </outline>
</glyph>
<glyph name="uni0234" format="2">
  <advance width="326"/>
  <unicode hex="0234"/>
  <outline>
    <contour>
      <point x="331" y="123" type="curve" smooth="yes" name="n00"/>
      <point x="331" y="45"/>
      <point x="249" y="-12"/>
      <point x="164" y="-12" type="curve" smooth="yes" name="n03"/>
      <point x="136" y="-12"/>
      <point x="60" y="-16"/>
      <point x="52" y="52" type="curve"/>
      <point x="7" y="5"/>
      <point x="-7" y="-9"/>
      <point x="-34" y="-51" type="curve"/>
      <point x="-68" y="-27" type="line"/>
      <point x="-22" y="36"/>
      <point x="-12" y="47"/>
      <point x="56" y="111" type="curve"/>
      <point x="163" y="668" type="line"/>
      <point x="74" y="677" type="line"/>
      <point x="74" y="707" type="line"/>
      <point x="230" y="737" type="line" name="n17"/>
      <point x="269" y="737" type="line"/>
      <point x="162" y="173" type="line"/>
      <point x="196" y="190"/>
      <point x="227" y="200"/>
      <point x="262" y="200" type="curve" smooth="yes" name="n22"/>
      <point x="308" y="200"/>
      <point x="331" y="172"/>
    </contour>
    <contour>
      <point x="271" y="113" type="curve" smooth="yes" name="n25"/>
      <point x="271" y="144"/>
      <point x="264" y="156"/>
      <point x="235" y="156" type="curve" smooth="yes" name="n28"/>
      <point x="203" y="156"/>
      <point x="185" y="144"/>
      <point x="152" y="125" type="curve"/>
      <point x="150" y="108"/>
      <point x="148" y="96"/>
      <point x="148" y="91" type="curve" smooth="yes" name="n34"/>
      <point x="148" y="64"/>
      <point x="161" y="48"/>
      <point x="195" y="48" type="curve" smooth="yes" name="n37"/>
      <point x="234" y="48"/>
      <point x="271" y="73"/>
    </contour>
  </outline>
</glyph>
<glyph name="uni0235" format="2">
  <advance width="569"/>
  <unicode hex="0235"/>
  <outline>
    <contour>
      <point x="585" y="123" type="curve" smooth="yes" name="n00"/>
      <point x="585" y="43"/>
      <point x="513" y="-12"/>
      <point x="435" y="-12" type="curve" smooth="yes" name="n03"/>
      <point x="373" y="-12"/>
      <point x="335" y="12"/>
      <point x="324" y="38" type="curve"/>
      <point x="265" y="-21"/>
      <point x="219" y="-88"/>
      <point x="202" y="-116" type="curve"/>
      <point x="161" y="-99" type="line"/>
      <point x="181" y="-58"/>
      <point x="242" y="29"/>
      <point x="321" y="96" type="curve"/>
      <point x="321" y="96"/>
      <point x="372.627" y="352.15"/>
      <point x="373" y="354" type="curve"/>
      <point x="383" y="407"/>
      <point x="351" y="423"/>
      <point x="329" y="423" type="curve" smooth="yes" name="n19"/>
      <point x="297" y="423"/>
      <point x="229" y="383"/>
      <point x="185" y="336" type="curve"/>
      <point x="116" y="0" type="line" name="n23"/>
      <point x="23" y="0" type="line"/>
      <point x="110" y="425" type="line"/>
      <point x="26" y="434" type="line"/>
      <point x="26" y="463" type="line"/>
      <point x="177" y="494" type="line"/>
      <point x="217" y="494" type="line"/>
      <point x="198" y="401" type="line"/>
      <point x="242" y="446"/>
      <point x="317" y="494"/>
      <point x="384" y="494" type="curve" smooth="yes" name="n33"/>
      <point x="457" y="494"/>
      <point x="489" y="456"/>
      <point x="473" y="366" type="curve"/>
      <point x="435" y="165" type="line"/>
      <point x="468" y="180"/>
      <point x="483" y="188"/>
      <point x="517" y="188" type="curve" smooth="yes" name="n40"/>
      <point x="561" y="188"/>
      <point x="585" y="168"/>
    </contour>
    <contour>
      <point x="539" y="109" type="curve" smooth="yes" name="n43"/>
      <point x="539" y="131"/>
      <point x="524" y="143"/>
      <point x="502" y="143" type="curve" smooth="yes" name="n46"/>
      <point x="471" y="143"/>
      <point x="456" y="132"/>
      <point x="425" y="114" type="curve"/>
      <point x="424" y="104"/>
      <point x="420" y="84"/>
      <point x="420" y="84" type="curve"/>
      <point x="416" y="61"/>
      <point x="426" y="39"/>
      <point x="463" y="39" type="curve" smooth="yes" name="n55"/>
      <point x="506" y="39"/>
      <point x="539" y="75"/>
    </contour>
  </outline>
</glyph>
<glyph name="uni0236" format="2">
  <advance width="310"/>
  <unicode hex="0236"/>
  <outline>
    <contour>
      <point x="349" y="419" type="line" name="n00"/>
      <point x="202" y="419" type="line" name="n01"/>
      <point x="154" y="178" type="line"/>
      <point x="184" y="197"/>
      <point x="209" y="207"/>
      <point x="244" y="207" type="curve" smooth="yes" name="n05"/>
      <point x="291" y="207"/>
      <point x="319" y="172"/>
      <point x="319" y="123" type="curve" smooth="yes" name="n08"/>
      <point x="319" y="45"/>
      <point x="246" y="-8"/>
      <point x="147" y="-8" type="curve" smooth="yes" name="n11"/>
      <point x="95" y="-8"/>
      <point x="62" y="14"/>
      <point x="52" y="55" type="curve"/>
      <point x="18" y="21"/>
      <point x="-15" y="-20"/>
      <point x="-37" y="-51" type="curve"/>
      <point x="-69" y="-27" type="line"/>
      <point x="-36" y="20"/>
      <point x="2" y="67"/>
      <point x="50" y="108" type="curve"/>
      <point x="63" y="211"/>
      <point x="109" y="419"/>
      <point x="109" y="419" type="curve"/>
      <point x="46" y="413" type="line"/>
      <point x="46" y="446" type="line"/>
      <point x="121" y="479" type="line"/>
      <point x="170" y="579" type="line" name="hr01"/>
      <point x="231" y="579" type="line" name="n29"/>
      <point x="211" y="465" type="line" name="hr02"/>
      <point x="349" y="465" type="line" name="n31"/>
    </contour>
    <contour>
      <point x="271" y="113" type="curve" smooth="yes" name="n32"/>
      <point x="271" y="144"/>
      <point x="264" y="161"/>
      <point x="235" y="161" type="curve" smooth="yes" name="n35"/>
      <point x="203" y="161"/>
      <point x="180" y="151"/>
      <point x="146" y="125" type="curve"/>
      <point x="141" y="95"/>
      <point x="140" y="39"/>
      <point x="184" y="39" type="curve" smooth="yes" name="n41"/>
      <point x="226" y="39"/>
      <point x="271" y="79"/>
    </contour>
  </outline>
</glyph>
<glyph name="uni0238" format="2">
  <advance width="783"/>
  <unicode hex="0238"/>
  <outline>
    <contour>
      <point x="320" y="56" type="curve"/>
      <point x="280" y="24"/>
      <point x="231" y="-12"/>
      <point x="166.987" y="-12" type="curve" smooth="yes" name="n03"/>
      <point x="63" y="-12"/>
      <point x="32" y="83"/>
      <point x="32" y="168.289" type="curve" smooth="yes" name="n06"/>
      <point x="32" y="326"/>
      <point x="138" y="494"/>
      <point x="315" y="494" type="curve" smooth="yes" name="n09"/>
      <point x="345" y="494"/>
      <point x="373.425" y="483"/>
      <point x="390" y="475" type="curve"/>
      <point x="396.856" y="513.918"/>
      <point x="418.194" y="635.04"/>
      <point x="424" y="668" type="curve"/>
      <point x="409.862" y="669.398"/>
      <point x="348.987" y="675.419"/>
      <point x="333" y="677" type="curve"/>
      <point x="333" y="682.994"/>
      <point x="333" y="702.207"/>
      <point x="333" y="707" type="curve"/>
      <point x="356.534" y="711.555"/>
      <point x="456.917" y="730.984"/>
      <point x="488" y="737" type="curve" name="n24"/>
      <point x="496.589" y="737"/>
      <point x="524.284" y="737"/>
      <point x="529" y="737" type="curve"/>
      <point x="477" y="434" type="line"/>
      <point x="513" y="467"/>
      <point x="565" y="494"/>
      <point x="616.464" y="494" type="curve" smooth="yes" name="n31"/>
      <point x="716" y="494"/>
      <point x="751" y="393"/>
      <point x="751" y="310" type="curve" smooth="yes" name="n34"/>
      <point x="751" y="186"/>
      <point x="673" y="-12"/>
      <point x="470" y="-12" type="curve" smooth="yes" name="n37"/>
      <point x="414" y="-12"/>
      <point x="361" y="18"/>
    </contour>
    <contour>
      <point x="376" y="394" type="line" smooth="yes"/>
      <point x="377" y="400"/>
      <point x="339" y="449"/>
      <point x="313" y="449" type="curve" smooth="yes" name="n43"/>
      <point x="216" y="449"/>
      <point x="129" y="329"/>
      <point x="129" y="173" type="curve" smooth="yes" name="n46"/>
      <point x="129" y="87"/>
      <point x="168" y="49"/>
      <point x="205.019" y="49" type="curve" smooth="yes" name="n49"/>
      <point x="243" y="49"/>
      <point x="294" y="89"/>
      <point x="330" y="131" type="curve"/>
    </contour>
    <contour>
      <point x="652" y="300.668" type="curve" smooth="yes" name="n53"/>
      <point x="652" y="396"/>
      <point x="605" y="428"/>
      <point x="574.385" y="428" type="curve" smooth="yes" name="n56"/>
      <point x="549" y="428"/>
      <point x="499" y="406"/>
      <point x="465" y="377" type="curve"/>
      <point x="415" y="86" type="line"/>
      <point x="428" y="67"/>
      <point x="456" y="35"/>
      <point x="496.35" y="35" type="curve" smooth="yes" name="n63"/>
      <point x="584" y="35"/>
      <point x="652" y="186"/>
    </contour>
  </outline>
</glyph>
<glyph name="uni0241" format="2">
  <advance width="471"/>
  <unicode hex="0241"/>
  <outline>
    <contour>
      <point x="483" y="535" type="curve" smooth="yes" name="n00"/>
      <point x="483" y="407"/>
      <point x="384" y="354"/>
      <point x="282" y="311" type="curve"/>
      <point x="233" y="67" type="line"/>
      <point x="232" y="58"/>
      <point x="243" y="48"/>
      <point x="251" y="47" type="curve"/>
      <point x="314" y="43" type="line"/>
      <point x="314" y="0" type="line"/>
      <point x="46" y="0" type="line"/>
      <point x="46" y="43" type="line"/>
      <point x="106" y="47" type="line"/>
      <point x="115" y="48"/>
      <point x="131" y="58"/>
      <point x="132" y="67" type="curve"/>
      <point x="184" y="327" type="line"/>
      <point x="282" y="358"/>
      <point x="376.734" y="424.003"/>
      <point x="378" y="536" type="curve" smooth="yes" name="n19"/>
      <point x="378.734" y="601.004"/>
      <point x="342.005" y="637.702"/>
      <point x="295" y="637" type="curve" smooth="yes" name="n22"/>
      <point x="275.002" y="636.701"/>
      <point x="254" y="632"/>
      <point x="233" y="619" type="curve"/>
      <point x="199" y="527" type="line"/>
      <point x="199" y="527"/>
      <point x="167" y="512"/>
      <point x="143" y="512" type="curve" smooth="yes"/>
      <point x="110" y="512"/>
      <point x="99" y="540"/>
      <point x="99" y="566" type="curve" smooth="yes"/>
      <point x="99" y="653"/>
      <point x="238" y="687"/>
      <point x="303" y="687" type="curve" smooth="yes" name="n35"/>
      <point x="408" y="687"/>
      <point x="483" y="625"/>
    </contour>
  </outline>
</glyph>
<glyph name="uni0243" format="2">
  <advance width="606"/>
  <unicode hex="0243"/>
  <outline>
    <contour>
      <point x="574" y="543" type="curve" smooth="yes" name="n00"/>
      <point x="574" y="440"/>
      <point x="499" y="387"/>
      <point x="407" y="357" type="curve"/>
      <point x="494" y="345"/>
      <point x="554" y="311" name="hr01"/>
      <point x="554" y="224" type="curve" smooth="yes" name="n06"/>
      <point x="554" y="60"/>
      <point x="427" y="0"/>
      <point x="259" y="0" type="curve" smooth="yes" name="n09"/>
      <point x="-15" y="0" type="line"/>
      <point x="-15" y="42" type="line"/>
      <point x="1.01894" y="43.2713"/>
      <point x="48" y="47"/>
      <point x="48" y="47" type="curve"/>
      <point x="60" y="48"/>
      <point x="64.6985" y="54.0542"/>
      <point x="67" y="66" type="curve" smooth="yes"/>
      <point x="88" y="175" type="line" name="n18"/>
      <point x="1" y="175" type="line"/>
      <point x="12" y="230" type="line"/>
      <point x="99" y="230" type="line" name="n21"/>
      <point x="170" y="604" type="line" smooth="yes"/>
      <point x="172.085" y="614.984"/>
      <point x="168" y="622"/>
      <point x="150" y="624" type="curve"/>
      <point x="150" y="624"/>
      <point x="108.77" y="627.748"/>
      <point x="95" y="629" type="curve"/>
      <point x="95" y="671" type="line"/>
      <point x="376" y="671" type="line" smooth="yes" name="n30"/>
      <point x="521" y="671"/>
      <point x="574" y="620" name="hr02"/>
    </contour>
    <contour>
      <point x="463" y="536" type="curve" smooth="yes" name="n33"/>
      <point x="463" y="599"/>
      <point x="412" y="628"/>
      <point x="327" y="628" type="curve" smooth="yes" name="n36"/>
      <point x="306" y="628"/>
      <point x="286" y="626"/>
      <point x="275" y="625" type="curve"/>
      <point x="227" y="371" type="line"/>
      <point x="241" y="370"/>
      <point x="265" y="369"/>
      <point x="274" y="369" type="curve" smooth="yes" name="n43"/>
      <point x="399" y="369"/>
      <point x="463" y="446"/>
    </contour>
    <contour>
      <point x="445" y="214" type="curve" smooth="yes" name="n46"/>
      <point x="445" y="296"/>
      <point x="386" y="325" name="hr03"/>
      <point x="292" y="325" type="curve" smooth="yes" name="n49"/>
      <point x="267" y="325"/>
      <point x="239" y="323"/>
      <point x="217" y="320" type="curve"/>
      <point x="200" y="230" type="line"/>
      <point x="353" y="230" type="line"/>
      <point x="342" y="175" type="line"/>
      <point x="189" y="175" type="line"/>
      <point x="165" y="48" type="line"/>
      <point x="181" y="47"/>
      <point x="209" y="45"/>
      <point x="226" y="45" type="curve" smooth="yes" name="n60"/>
      <point x="369" y="45"/>
      <point x="445" y="108"/>
    </contour>
  </outline>
</glyph>
<glyph name="uni0245" format="2">
  <advance width="643"/>
  <unicode hex="0245"/>
  <outline>
    <contour>
      <point x="588" y="0" type="line" name="n00"/>
      <point x="361" y="0" type="line"/>
      <point x="361" y="42" type="line"/>
      <point x="371.041" y="42.467"/>
      <point x="404" y="44"/>
      <point x="404" y="44" type="curve"/>
      <point x="419" y="45"/>
      <point x="426" y="50"/>
      <point x="424" y="63" type="curve" smooth="yes"/>
      <point x="349" y="548" type="line"/>
      <point x="95" y="63" type="line" smooth="yes"/>
      <point x="90" y="54"/>
      <point x="91" y="45"/>
      <point x="110" y="44" type="curve"/>
      <point x="110" y="44"/>
      <point x="147.723" y="42.4603"/>
      <point x="159" y="42" type="curve"/>
      <point x="159" y="0" type="line"/>
      <point x="-45" y="0" type="line"/>
      <point x="-45" y="42" type="line"/>
      <point x="8" y="48" type="line"/>
      <point x="353" y="687" type="line" name="n21"/>
      <point x="429" y="687" type="line"/>
      <point x="526" y="63" type="line" smooth="yes"/>
      <point x="528" y="51"/>
      <point x="536.98" y="44.6853"/>
      <point x="550" y="44" type="curve"/>
      <point x="550" y="44"/>
      <point x="579.715" y="42.4361"/>
      <point x="588" y="42" type="curve" name="n29"/>
    </contour>
  </outline>
</glyph>
<glyph name="uni024A" format="2">
  <advance width="708"/>
  <unicode hex="024A"/>
  <outline>
    <contour>
      <point x="734" y="-141" type="curve" smooth="yes"/>
      <point x="734" y="-210"/>
      <point x="649" y="-229" name="n02"/>
      <point x="593" y="-229" type="curve" smooth="yes"/>
      <point x="512" y="-229"/>
      <point x="448" y="-182"/>
      <point x="448" y="-80" type="curve" smooth="yes"/>
      <point x="448" y="-52"/>
      <point x="456" y="-6"/>
      <point x="465" y="32" type="curve"/>
      <point x="422" y="-3"/>
      <point x="382" y="-13"/>
      <point x="318" y="-13" type="curve" smooth="yes" name="n12"/>
      <point x="190" y="-13"/>
      <point x="47" y="44"/>
      <point x="47" y="246" type="curve" smooth="yes" name="n15"/>
      <point x="47" y="495"/>
      <point x="232" y="686"/>
      <point x="465" y="686" type="curve" smooth="yes" name="n18"/>
      <point x="526" y="686"/>
      <point x="586" y="660"/>
      <point x="599" y="654" type="curve"/>
      <point x="634" y="688" type="line" name="n22"/>
      <point x="692" y="688" type="line"/>
      <point x="544" y="-83" type="line"/>
      <point x="534" y="-141"/>
      <point x="565" y="-173"/>
      <point x="598" y="-174" type="curve"/>
      <point x="685" y="-89" type="line"/>
      <point x="685" y="-89"/>
      <point x="734" y="-101"/>
    </contour>
    <contour>
      <point x="564" y="549" type="line" smooth="yes"/>
      <point x="568" y="568"/>
      <point x="503" y="631"/>
      <point x="483" y="631" type="curve" smooth="yes" name="n34"/>
      <point x="273" y="631"/>
      <point x="160" y="443"/>
      <point x="160" y="256" type="curve" smooth="yes" name="n37"/>
      <point x="160" y="116"/>
      <point x="223" y="43"/>
      <point x="331" y="43" type="curve" smooth="yes" name="n40"/>
      <point x="402" y="43"/>
      <point x="436" y="66"/>
      <point x="476" y="94" type="curve"/>
    </contour>
  </outline>
</glyph>
<glyph name="uni0259" format="2">
  <advance width="434"/>
  <unicode hex="0259"/>
  <outline>
    <contour>
      <point x="402" y="311" type="curve" smooth="yes" name="n00"/>
      <point x="402" y="154"/>
      <point x="281" y="-12"/>
      <point x="138" y="-12" type="curve" smooth="yes" name="n03"/>
      <point x="46" y="-12"/>
      <point x="18" y="60"/>
      <point x="18" y="89" type="curve" smooth="yes" name="n06"/>
      <point x="18" y="198"/>
      <point x="182" y="255"/>
      <point x="301" y="262" type="curve"/>
      <point x="303" y="274"/>
      <point x="305" y="295"/>
      <point x="305" y="307" type="curve" smooth="yes" name="n12"/>
      <point x="305" y="380"/>
      <point x="268" y="434"/>
      <point x="210" y="434" type="curve" smooth="yes" name="n15"/>
      <point x="165" y="434"/>
      <point x="113" y="401"/>
      <point x="41" y="337" type="curve"/>
      <point x="41" y="399" type="line"/>
      <point x="77" y="436"/>
      <point x="152" y="493"/>
      <point x="243" y="493" type="curve" smooth="yes" name="n22"/>
      <point x="304" y="493"/>
      <point x="402" y="463"/>
    </contour>
    <contour>
      <point x="297" y="223" type="curve"/>
      <point x="212" y="215"/>
      <point x="106" y="159"/>
      <point x="106" y="88" type="curve" smooth="yes" name="n28"/>
      <point x="106" y="61"/>
      <point x="127" y="34"/>
      <point x="160" y="34" type="curve" smooth="yes" name="n31"/>
      <point x="226" y="34"/>
      <point x="280" y="147"/>
    </contour>
  </outline>
</glyph>
<glyph name="uni025D" format="2">
  <advance width="529"/>
  <unicode hex="025D"/>
  <outline>
    <contour>
      <point x="603" y="386" type="line"/>
      <point x="588" y="348"/>
      <point x="562" y="290"/>
      <point x="499" y="290" type="curve" smooth="yes" name="n03"/>
      <point x="459" y="290"/>
      <point x="439" y="330"/>
      <point x="446" y="367" type="curve" smooth="yes"/>
      <point x="448.045" y="377.539"/>
      <point x="457.295" y="425.212"/>
      <point x="459" y="434" type="curve"/>
      <point x="455.524" y="431.903"/>
      <point x="408.275" y="403.404"/>
      <point x="396" y="396" type="curve"/>
      <point x="405" y="320"/>
      <point x="332" y="266"/>
      <point x="270" y="244" type="curve"/>
      <point x="339" y="234"/>
      <point x="374" y="204"/>
      <point x="374" y="152" type="curve" smooth="yes" name="n18"/>
      <point x="374" y="28"/>
      <point x="252" y="-12"/>
      <point x="142" y="-12" type="curve" smooth="yes" name="n21"/>
      <point x="82" y="-12"/>
      <point x="40" y="12"/>
      <point x="0" y="56" type="curve"/>
      <point x="0" y="120" type="line"/>
      <point x="52" y="61"/>
      <point x="98" y="34"/>
      <point x="152" y="34" type="curve" smooth="yes" name="n28"/>
      <point x="216" y="34"/>
      <point x="275" y="76"/>
      <point x="275" y="156" type="curve" smooth="yes" name="n31"/>
      <point x="275" y="211"/>
      <point x="230" y="217"/>
      <point x="193" y="217" type="curve" smooth="yes"/>
      <point x="168" y="217" type="line" name="n35"/>
      <point x="168" y="256" type="line" name="n36"/>
      <point x="231" y="258"/>
      <point x="300" y="296"/>
      <point x="300" y="383" type="curve" smooth="yes"/>
      <point x="300" y="429"/>
      <point x="266" y="456"/>
      <point x="226" y="456" type="curve" smooth="yes" name="n42"/>
      <point x="188" y="456"/>
      <point x="169" y="431"/>
      <point x="167" y="429" type="curve"/>
      <point x="159" y="357" type="line"/>
      <point x="156" y="353"/>
      <point x="136" y="336"/>
      <point x="104" y="336" type="curve" smooth="yes"/>
      <point x="83" y="336"/>
      <point x="59" y="357"/>
      <point x="59" y="382" type="curve" smooth="yes"/>
      <point x="59" y="469"/>
      <point x="175" y="494"/>
      <point x="248" y="494" type="curve" smooth="yes" name="n55"/>
      <point x="314" y="494"/>
      <point x="364" y="468"/>
      <point x="385" y="429" type="curve"/>
      <point x="398.562" y="437.197"/>
      <point x="465.546" y="477.682"/>
      <point x="476" y="484" type="curve"/>
      <point x="501" y="468" type="line"/>
      <point x="486" y="389" type="line" smooth="yes"/>
      <point x="480" y="357"/>
      <point x="484" y="329"/>
      <point x="511" y="329" type="curve" smooth="yes" name="n66"/>
      <point x="547" y="329"/>
      <point x="563" y="372"/>
      <point x="578" y="405" type="curve"/>
    </contour>
  </outline>
</glyph>
<glyph name="uni0263" format="2">
  <advance width="461"/>
  <unicode hex="0263"/>
  <outline>
    <contour>
      <point x="467" y="434" type="curve" smooth="yes"/>
      <point x="467" y="401"/>
      <point x="452" y="372"/>
      <point x="446" y="359" type="curve"/>
      <point x="384" y="246"/>
      <point x="319" y="156"/>
      <point x="229" y="49" type="curve"/>
      <point x="231" y="33"/>
      <point x="244" y="-91"/>
      <point x="244" y="-104" type="curve" smooth="yes" name="n09"/>
      <point x="244" y="-162"/>
      <point x="187" y="-229"/>
      <point x="122" y="-229" type="curve" smooth="yes" name="n12"/>
      <point x="64" y="-229"/>
      <point x="15" y="-200"/>
      <point x="15" y="-137" type="curve" smooth="yes" name="n15"/>
      <point x="15" y="-76"/>
      <point x="92" y="5"/>
      <point x="140" y="43" type="curve"/>
      <point x="130" y="140"/>
      <point x="119" y="321"/>
      <point x="96" y="408" type="curve" smooth="yes"/>
      <point x="92" y="422"/>
      <point x="84" y="428"/>
      <point x="73" y="428" type="curve"/>
      <point x="73" y="428"/>
      <point x="18.6061" y="431.064"/>
      <point x="2" y="432" type="curve"/>
      <point x="2" y="461" type="line"/>
      <point x="109" y="494" type="line"/>
      <point x="163" y="493"/>
      <point x="186" y="470"/>
      <point x="191" y="423" type="curve" smooth="yes"/>
      <point x="222" y="115" type="line"/>
      <point x="290" y="204"/>
      <point x="336" y="272"/>
      <point x="367" y="351" type="curve"/>
      <point x="348" y="472" type="line"/>
      <point x="361" y="485"/>
      <point x="381" y="494"/>
      <point x="406" y="494" type="curve" smooth="yes"/>
      <point x="448" y="494"/>
      <point x="467" y="470"/>
    </contour>
    <contour>
      <point x="151" y="-94" type="curve" smooth="yes" name="n43"/>
      <point x="151" y="-85"/>
      <point x="145" y="-41"/>
      <point x="143" y="-22" type="curve"/>
      <point x="127" y="-37"/>
      <point x="73" y="-106"/>
      <point x="73" y="-125" type="curve" smooth="yes" name="n49"/>
      <point x="73" y="-140"/>
      <point x="83" y="-161"/>
      <point x="103" y="-161" type="curve" smooth="yes" name="n52"/>
      <point x="125" y="-161"/>
      <point x="151" y="-136"/>
    </contour>
  </outline>
</glyph>
<glyph name="uni0269" format="2">
  <advance width="309"/>
  <unicode hex="0269"/>
  <outline>
    <contour>
      <point x="294" y="76" type="curve" smooth="yes"/>
      <point x="294" y="10"/>
      <point x="210" y="-12"/>
      <point x="141" y="-12" type="curve" smooth="yes" name="n03"/>
      <point x="74" y="-12"/>
      <point x="36" y="39"/>
      <point x="45" y="84" type="curve" smooth="yes"/>
      <point x="110" y="425" type="line"/>
      <point x="26" y="434" type="line"/>
      <point x="26" y="463" type="line"/>
      <point x="176" y="494" type="line" name="n10"/>
      <point x="217" y="494" type="line"/>
      <point x="141" y="102" type="line" smooth="yes"/>
      <point x="133" y="61"/>
      <point x="151" y="44"/>
      <point x="202" y="44" type="curve" name="n15"/>
      <point x="246" y="128" type="line"/>
      <point x="271" y="126"/>
      <point x="294" y="100"/>
    </contour>
  </outline>
</glyph>
<glyph name="uni026D" format="2">
  <advance width="265"/>
  <unicode hex="026D"/>
  <outline>
    <contour>
      <point x="265" y="-173" type="curve" smooth="yes" name="n00"/>
      <point x="265" y="-212"/>
      <point x="234" y="-229" name="n02"/>
      <point x="193" y="-229" type="curve" smooth="yes"/>
      <point x="71" y="-229"/>
      <point x="24" y="-147"/>
      <point x="24" y="-50" type="curve" smooth="yes" name="n06"/>
      <point x="24" y="-13"/>
      <point x="29" y="26"/>
      <point x="36" y="64" type="curve" smooth="yes"/>
      <point x="152" y="668" type="line"/>
      <point x="63" y="677" type="line"/>
      <point x="63" y="707" type="line"/>
      <point x="219" y="737" type="line" name="n13"/>
      <point x="258" y="737" type="line"/>
      <point x="114" y="-19" type="line" smooth="yes"/>
      <point x="111" y="-36"/>
      <point x="109" y="-61" name="hr01"/>
      <point x="109" y="-86" type="curve" smooth="yes" name="n18"/>
      <point x="109" y="-126"/>
      <point x="113" y="-167"/>
      <point x="138" y="-183" type="curve"/>
      <point x="233" y="-116" type="line"/>
      <point x="252" y="-123"/>
      <point x="265" y="-139" name="hr02"/>
    </contour>
  </outline>
</glyph>
<glyph name="uni0271" format="2">
  <advance width="775"/>
  <unicode hex="0271"/>
  <outline>
    <contour>
      <point x="727" y="401" type="curve" smooth="yes"/>
      <point x="727" y="391"/>
      <point x="726" y="379"/>
      <point x="723" y="367" type="curve"/>
      <point x="666" y="80" type="line" smooth="yes"/>
      <point x="639" y="-55"/>
      <point x="570" y="-229" name="n06"/>
      <point x="401" y="-229" type="curve" smooth="yes"/>
      <point x="360" y="-229"/>
      <point x="336" y="-211"/>
      <point x="336" y="-174" type="curve" smooth="yes"/>
      <point x="336" y="-139"/>
      <point x="369" y="-123"/>
      <point x="390" y="-116" type="curve"/>
      <point x="474" y="-178" type="line"/>
      <point x="515" y="-156"/>
      <point x="538" y="-85"/>
      <point x="554" y="-9" type="curve"/>
      <point x="621" y="325" type="line" smooth="yes"/>
      <point x="627" y="357"/>
      <point x="628" y="424"/>
      <point x="583" y="424" type="curve" smooth="yes" name="n21"/>
      <point x="522" y="424"/>
      <point x="463" y="361"/>
      <point x="449" y="338" type="curve"/>
      <point x="379" y="0" type="line" name="n25"/>
      <point x="286" y="0" type="line"/>
      <point x="353" y="326" type="line" smooth="yes"/>
      <point x="360" y="361"/>
      <point x="358" y="424"/>
      <point x="311" y="424" type="curve" smooth="yes"/>
      <point x="264" y="424"/>
      <point x="200" y="361"/>
      <point x="180" y="336" type="curve"/>
      <point x="110" y="0" type="line"/>
      <point x="18" y="0" type="line"/>
      <point x="104" y="425" type="line"/>
      <point x="21" y="434" type="line"/>
      <point x="21" y="463" type="line"/>
      <point x="171" y="494" type="line"/>
      <point x="212" y="494" type="line"/>
      <point x="193" y="402" type="line"/>
      <point x="242" y="449"/>
      <point x="307" y="494"/>
      <point x="366" y="494" type="curve" smooth="yes"/>
      <point x="433" y="494"/>
      <point x="450" y="438"/>
      <point x="455" y="402" type="curve"/>
      <point x="503" y="450"/>
      <point x="576" y="494"/>
      <point x="637" y="494" type="curve" smooth="yes" name="n50"/>
      <point x="693" y="494"/>
      <point x="727" y="458"/>
    </contour>
  </outline>
</glyph>
<glyph name="uni0272" format="2">
  <advance width="529"/>
  <unicode hex="0272"/>
  <outline>
    <contour>
      <point x="527" y="20" type="line"/>
      <point x="510" y="14"/>
      <point x="435" y="-12" name="n02"/>
      <point x="393" y="-12" type="curve" smooth="yes"/>
      <point x="369" y="-12"/>
      <point x="301" y="-7"/>
      <point x="312" y="47" type="curve" smooth="yes"/>
      <point x="373" y="354" type="line" smooth="yes"/>
      <point x="383" y="407"/>
      <point x="351" y="423"/>
      <point x="329" y="423" type="curve" smooth="yes" name="n10"/>
      <point x="297" y="423"/>
      <point x="229" y="383"/>
      <point x="185" y="336" type="curve"/>
      <point x="117" y="-4" type="line" smooth="yes"/>
      <point x="87" y="-152"/>
      <point x="-2" y="-218" name="n16"/>
      <point x="-106" y="-218" type="curve" smooth="yes"/>
      <point x="-164" y="-218"/>
      <point x="-172" y="-183"/>
      <point x="-172" y="-152" type="curve" smooth="yes"/>
      <point x="-172" y="-111"/>
      <point x="-123" y="-86"/>
      <point x="-115" y="-86" type="curve"/>
      <point x="-50" y="-170" type="line"/>
      <point x="-20" y="-161"/>
      <point x="-1" y="-121"/>
      <point x="17" y="-35" type="curve" smooth="yes"/>
      <point x="110" y="425" type="line"/>
      <point x="26" y="434" type="line"/>
      <point x="26" y="463" type="line"/>
      <point x="177" y="494" type="line"/>
      <point x="217" y="494" type="line"/>
      <point x="198" y="401" type="line"/>
      <point x="242" y="446"/>
      <point x="317" y="494"/>
      <point x="384" y="494" type="curve" smooth="yes" name="n36"/>
      <point x="457" y="494"/>
      <point x="489" y="456"/>
      <point x="473" y="366" type="curve"/>
      <point x="420" y="84" type="line" smooth="yes"/>
      <point x="413" y="46"/>
      <point x="451" y="42"/>
      <point x="463" y="42" type="curve" smooth="yes"/>
      <point x="481" y="42"/>
      <point x="503" y="48"/>
      <point x="526" y="55" type="curve"/>
    </contour>
  </outline>
</glyph>
<glyph name="uni0277" format="2">
  <advance width="666"/>
  <unicode hex="0277"/>
  <outline>
    <contour>
      <point x="631" y="265" type="curve" smooth="yes" name="n00"/>
      <point x="631" y="154"/>
      <point x="559" y="-12"/>
      <point x="429" y="-12" type="curve" smooth="yes" name="n03"/>
      <point x="361" y="-12"/>
      <point x="306" y="25"/>
      <point x="306" y="98" type="curve" name="n06"/>
      <point x="277" y="29"/>
      <point x="213" y="-12"/>
      <point x="139" y="-12" type="curve" smooth="yes"/>
      <point x="53" y="-12"/>
      <point x="21" y="66"/>
      <point x="21" y="141" type="curve" smooth="yes" name="n12"/>
      <point x="21" y="341"/>
      <point x="189" y="494"/>
      <point x="386" y="494" type="curve" smooth="yes" name="n15"/>
      <point x="530" y="494"/>
      <point x="631" y="415"/>
    </contour>
    <contour>
      <point x="532" y="261" type="curve" smooth="yes" name="n18"/>
      <point x="532" y="360"/>
      <point x="485" y="448"/>
      <point x="376" y="448" type="curve" smooth="yes" name="n21"/>
      <point x="227" y="448"/>
      <point x="120" y="275"/>
      <point x="120" y="139" type="curve" smooth="yes" name="n24"/>
      <point x="120" y="101"/>
      <point x="131" y="47"/>
      <point x="179" y="47" type="curve" smooth="yes"/>
      <point x="255" y="47"/>
      <point x="292" y="122"/>
      <point x="292" y="189" type="curve" smooth="yes" name="n30"/>
      <point x="292" y="211"/>
      <point x="285" y="231"/>
      <point x="285" y="252" type="curve" smooth="yes" name="n33"/>
      <point x="285" y="292"/>
      <point x="310" y="356"/>
      <point x="358" y="356" type="curve" smooth="yes"/>
      <point x="386" y="356"/>
      <point x="399" y="326"/>
      <point x="399" y="302" type="curve" smooth="yes" name="n39"/>
      <point x="399" y="239"/>
      <point x="342" y="199"/>
      <point x="342" y="122" type="curve" smooth="yes" name="n42"/>
      <point x="342" y="76"/>
      <point x="366" y="47"/>
      <point x="415" y="47" type="curve" smooth="yes" name="n45"/>
      <point x="497" y="47"/>
      <point x="532" y="198"/>
    </contour>
  </outline>
</glyph>
<glyph name="uni0279" format="2">
  <advance width="358"/>
  <unicode hex="0279"/>
  <outline>
    <contour>
      <point x="339" y="482" type="line" name="n00"/>
      <point x="252" y="57" type="line"/>
      <point x="336" y="48" type="line"/>
      <point x="336" y="19" type="line"/>
      <point x="186" y="-12" type="line"/>
      <point x="146" y="-12" type="line"/>
      <point x="167" y="89" type="line"/>
      <point x="126" y="26"/>
      <point x="73" y="-12"/>
      <point x="13" y="-12" type="curve" smooth="yes" name="n09"/>
      <point x="-35" y="-12"/>
      <point x="-51" y="28"/>
      <point x="-51" y="55" type="curve" smooth="yes"/>
      <point x="-51" y="102"/>
      <point x="-17" y="108"/>
      <point x="38" y="108" type="curve" name="n15"/>
      <point x="62" y="60" type="line"/>
      <point x="111" y="81"/>
      <point x="182" y="172"/>
      <point x="194" y="230" type="curve" smooth="yes"/>
      <point x="246" y="482" type="line"/>
    </contour>
  </outline>
</glyph>
<glyph name="uni0281" format="2">
  <advance width="480"/>
  <unicode hex="0281"/>
  <outline>
    <contour>
      <point x="534" y="448" type="line" name="n00"/>
      <point x="463" y="448"/>
      <point x="436" y="407"/>
      <point x="408" y="361" type="curve" smooth="yes"/>
      <point x="379" y="314"/>
      <point x="354" y="270"/>
      <point x="298" y="251" type="curve"/>
      <point x="345" y="237"/>
      <point x="400" y="202"/>
      <point x="400" y="152" type="curve" smooth="yes" name="n09"/>
      <point x="400" y="24"/>
      <point x="279" y="0"/>
      <point x="170" y="0" type="curve" smooth="yes" name="n12"/>
      <point x="-32" y="0" type="line"/>
      <point x="-32" y="38" type="line"/>
      <point x="3" y="41" type="line" smooth="yes"/>
      <point x="16" y="42"/>
      <point x="28" y="54"/>
      <point x="30" y="62" type="curve"/>
      <point x="103" y="424" type="line"/>
      <point x="105" y="431"/>
      <point x="98.0172" y="441.256" name="hr01"/>
      <point x="85" y="442" type="curve" smooth="yes" name="n22"/>
      <point x="50" y="444" type="line"/>
      <point x="50" y="482" type="line" name="n24"/>
      <point x="256" y="482" type="line"/>
      <point x="256" y="444" type="line"/>
      <point x="245.484" y="443.249"/>
      <point x="214" y="441"/>
      <point x="214" y="441" type="curve"/>
      <point x="203" y="441"/>
      <point x="194" y="431"/>
      <point x="192" y="424" type="curve"/>
      <point x="162" y="272" type="line"/>
      <point x="164" y="272"/>
      <point x="169" y="271"/>
      <point x="176" y="271" type="curve" smooth="yes" name="n36"/>
      <point x="283" y="271"/>
      <point x="308" y="352"/>
      <point x="358" y="422" type="curve" smooth="yes"/>
      <point x="390" y="466"/>
      <point x="426" y="494" name="hr02"/>
      <point x="485" y="494" type="curve" smooth="yes" name="n42"/>
      <point x="507" y="494"/>
      <point x="518" y="490"/>
      <point x="534" y="485" type="curve"/>
    </contour>
    <contour>
      <point x="301" y="153" type="curve" smooth="yes" name="n46"/>
      <point x="301" y="196"/>
      <point x="250" y="229"/>
      <point x="181" y="229" type="curve" smooth="yes" name="n49"/>
      <point x="172" y="229"/>
      <point x="158" y="228"/>
      <point x="152" y="228" type="curve"/>
      <point x="114" y="43" type="line"/>
      <point x="146" y="43" type="line" smooth="yes" name="n54"/>
      <point x="222" y="43"/>
      <point x="301" y="66"/>
    </contour>
  </outline>
</glyph>
<glyph name="uni028A" format="2">
  <advance width="555"/>
  <unicode hex="028A"/>
  <outline>
    <contour>
      <point x="549" y="482" type="line" name="n00"/>
      <point x="542" y="442" type="line"/>
      <point x="517" y="440"/>
      <point x="468" y="435"/>
      <point x="468" y="435" type="curve"/>
      <point x="491" y="400"/>
      <point x="507" y="348"/>
      <point x="507" y="284" type="curve" smooth="yes" name="n07"/>
      <point x="507" y="124"/>
      <point x="381" y="-12"/>
      <point x="224" y="-12" type="curve" smooth="yes" name="n10"/>
      <point x="107" y="-12"/>
      <point x="32" y="56"/>
      <point x="32" y="179" type="curve" smooth="yes" name="n13"/>
      <point x="32" y="277"/>
      <point x="89" y="365"/>
      <point x="151" y="435" type="curve"/>
      <point x="151" y="435"/>
      <point x="105" y="441"/>
      <point x="82" y="443" type="curve"/>
      <point x="89" y="482" type="line"/>
      <point x="250" y="482" type="line"/>
      <point x="200" y="420"/>
      <point x="135" y="295"/>
      <point x="135" y="176" type="curve" smooth="yes" name="n24"/>
      <point x="135" y="111"/>
      <point x="156" y="39"/>
      <point x="233" y="39" type="curve" smooth="yes" name="n27"/>
      <point x="356" y="39"/>
      <point x="416" y="215"/>
      <point x="416" y="357" type="curve" smooth="yes" name="n30"/>
      <point x="416" y="420"/>
      <point x="388" y="482"/>
      <point x="388" y="482" type="curve"/>
    </contour>
  </outline>
</glyph>
<glyph name="uni028B" format="2">
  <advance width="526"/>
  <unicode hex="028B"/>
  <outline>
    <contour>
      <point x="496" y="320" type="curve" smooth="yes" name="n00"/>
      <point x="496" y="250"/>
      <point x="435" y="-12"/>
      <point x="208" y="-12" type="curve" smooth="yes" name="n03"/>
      <point x="129" y="-12"/>
      <point x="51" y="33"/>
      <point x="51" y="116" type="curve" smooth="yes" name="n06"/>
      <point x="51" y="130"/>
      <point x="54" y="156"/>
      <point x="61" y="188" type="curve" smooth="yes"/>
      <point x="110" y="425" type="line"/>
      <point x="26" y="434" type="line"/>
      <point x="26" y="463" type="line"/>
      <point x="177" y="494" type="line"/>
      <point x="218" y="494" type="line"/>
      <point x="154" y="188" type="line" smooth="yes"/>
      <point x="150" y="168"/>
      <point x="148" y="152"/>
      <point x="148" y="145" type="curve" smooth="yes" name="n18"/>
      <point x="148" y="88"/>
      <point x="210" y="59"/>
      <point x="265" y="59" type="curve" smooth="yes" name="n21"/>
      <point x="372" y="59"/>
      <point x="441" y="242"/>
      <point x="441" y="302" type="curve" smooth="yes" name="n24"/>
      <point x="441" y="341"/>
      <point x="433" y="371"/>
      <point x="406" y="399" type="curve" name="n27"/>
      <point x="319" y="399" type="line"/>
      <point x="319" y="399"/>
      <point x="306" y="411" name="hr01"/>
      <point x="306" y="431" type="curve" smooth="yes" name="n31"/>
      <point x="306" y="451"/>
      <point x="328" y="494"/>
      <point x="375" y="494" type="curve" smooth="yes" name="n34"/>
      <point x="436" y="494"/>
      <point x="496" y="440"/>
    </contour>
  </outline>
</glyph>
<glyph name="uni0291" format="2">
  <advance width="444"/>
  <unicode hex="0291"/>
  <outline>
    <contour>
      <point x="450" y="468" type="line"/>
      <point x="111" y="71" type="line"/>
      <point x="180" y="90" type="line"/>
      <point x="218" y="148"/>
      <point x="270" y="191"/>
      <point x="341" y="191" type="curve" smooth="yes" name="n05"/>
      <point x="363" y="191"/>
      <point x="400" y="171"/>
      <point x="400" y="118" type="curve" smooth="yes" name="n08"/>
      <point x="400" y="39"/>
      <point x="327" y="-12"/>
      <point x="271" y="-12" type="curve" smooth="yes" name="n11"/>
      <point x="245" y="-12"/>
      <point x="210" y="-3"/>
      <point x="184" y="7" type="curve"/>
      <point x="164" y="-41"/>
      <point x="151" y="-90"/>
      <point x="141" y="-141" type="curve" name="n17"/>
      <point x="98" y="-141" type="line"/>
      <point x="106" y="-93"/>
      <point x="120" y="-34"/>
      <point x="144" y="21" type="curve"/>
      <point x="133" y="24"/>
      <point x="119" y="28"/>
      <point x="106" y="28" type="curve" smooth="yes"/>
      <point x="95" y="28"/>
      <point x="86" y="28"/>
      <point x="78" y="21" type="curve"/>
      <point x="53" y="-26" type="line"/>
      <point x="-16" y="11" type="line"/>
      <point x="323" y="408" type="line"/>
      <point x="235" y="389" type="line"/>
      <point x="208" y="404"/>
      <point x="177" y="418"/>
      <point x="150" y="418" type="curve" smooth="yes" name="n34"/>
      <point x="133" y="418"/>
      <point x="107" y="407"/>
      <point x="96" y="389" type="curve"/>
      <point x="149" y="325" type="line"/>
      <point x="144" y="317"/>
      <point x="122" y="292" name="hr01"/>
      <point x="94" y="292" type="curve" smooth="yes" name="n41"/>
      <point x="56" y="292"/>
      <point x="39" y="326"/>
      <point x="39" y="351" type="curve" smooth="yes"/>
      <point x="39" y="412"/>
      <point x="92" y="494"/>
      <point x="180" y="494" type="curve" smooth="yes" name="n47"/>
      <point x="240" y="494"/>
      <point x="290" y="444"/>
      <point x="330" y="444" type="curve" smooth="yes"/>
      <point x="334" y="444"/>
      <point x="341" y="445"/>
      <point x="353" y="451" type="curve"/>
      <point x="375" y="507" type="line"/>
    </contour>
    <contour>
      <point x="351" y="117" type="curve" smooth="yes" name="n55"/>
      <point x="351" y="134"/>
      <point x="340" y="146"/>
      <point x="323" y="146" type="curve" smooth="yes" name="n58"/>
      <point x="278" y="146"/>
      <point x="243" y="115"/>
      <point x="216" y="72" type="curve"/>
      <point x="239" y="63"/>
      <point x="265" y="56"/>
      <point x="288" y="57" type="curve" name="n64"/>
      <point x="323" y="57"/>
      <point x="351" y="73"/>
    </contour>
  </outline>
</glyph>
<glyph name="uni0295" format="2">
  <advance width="438"/>
  <unicode hex="0295"/>
  <outline>
    <contour>
      <point x="474" y="605" type="curve" smooth="yes"/>
      <point x="474" y="565"/>
      <point x="443" y="535"/>
      <point x="402" y="535" type="curve" smooth="yes"/>
      <point x="398.202" y="535"/>
      <point x="382.132" y="535"/>
      <point x="378" y="535" type="curve" name="n06"/>
      <point x="358" y="633" type="line" name="n07"/>
      <point x="254" y="633"/>
      <point x="182" y="590"/>
      <point x="182" y="476" type="curve" smooth="yes" name="n10"/>
      <point x="182" y="387"/>
      <point x="252" y="344"/>
      <point x="310" y="323" type="curve"/>
      <point x="258" y="71" type="line" smooth="yes"/>
      <point x="256" y="62"/>
      <point x="268" y="52"/>
      <point x="277" y="51" type="curve" smooth="yes"/>
      <point x="329" y="46" type="line"/>
      <point x="329" y="0" type="line" name="n19"/>
      <point x="89" y="0" type="line"/>
      <point x="89" y="46" type="line"/>
      <point x="140" y="51" type="line" smooth="yes"/>
      <point x="150" y="52"/>
      <point x="164" y="62"/>
      <point x="166" y="71" type="curve" smooth="yes"/>
      <point x="209" y="287" type="line"/>
      <point x="142" y="321"/>
      <point x="76" y="348"/>
      <point x="76" y="481" type="curve" smooth="yes" name="n29"/>
      <point x="76" y="632"/>
      <point x="216" y="687"/>
      <point x="345" y="687" type="curve" smooth="yes" name="n32"/>
      <point x="442" y="687"/>
      <point x="474" y="644"/>
    </contour>
  </outline>
</glyph>
<glyph name="uni02A0" format="2">
  <advance width="521"/>
  <unicode hex="02A0"/>
  <outline>
    <contour>
      <point x="698" y="677" type="curve" smooth="yes"/>
      <point x="698" y="631"/>
      <point x="643" y="622"/>
      <point x="643" y="622" type="curve"/>
      <point x="564" y="676" type="line"/>
      <point x="516" y="659"/>
      <point x="518" y="641"/>
      <point x="497" y="533" type="curve" smooth="yes"/>
      <point x="363" y="-155" type="line" smooth="yes"/>
      <point x="361" y="-166"/>
      <point x="365" y="-173"/>
      <point x="383" y="-175" type="curve"/>
      <point x="383" y="-175"/>
      <point x="425.616" y="-178.437"/>
      <point x="445" y="-180" type="curve"/>
      <point x="445" y="-218" type="line" name="n15"/>
      <point x="193" y="-218" type="line"/>
      <point x="193" y="-180" type="line"/>
      <point x="200.793" y="-179.265"/>
      <point x="246" y="-175"/>
      <point x="246" y="-175" type="curve"/>
      <point x="259" y="-174"/>
      <point x="268" y="-168"/>
      <point x="271" y="-155" type="curve"/>
      <point x="312" y="53" type="line"/>
      <point x="266" y="15"/>
      <point x="217" y="-12"/>
      <point x="170" y="-12" type="curve" smooth="yes" name="n27"/>
      <point x="90" y="-12"/>
      <point x="32" y="50"/>
      <point x="32" y="169" type="curve" smooth="yes" name="n30"/>
      <point x="32" y="323"/>
      <point x="146" y="494"/>
      <point x="313" y="494" type="curve" smooth="yes" name="n33"/>
      <point x="355" y="494"/>
      <point x="389" y="479"/>
      <point x="407" y="465" type="curve"/>
      <point x="409.229" y="477.101"/>
      <point x="419.555" y="533.155"/>
      <point x="421" y="541" type="curve" smooth="yes"/>
      <point x="444" y="656"/>
      <point x="502" y="737" name="n41"/>
      <point x="623" y="737" type="curve" smooth="yes"/>
      <point x="686" y="737"/>
      <point x="698" y="705"/>
    </contour>
    <contour>
      <point x="377" y="388" type="line" smooth="yes"/>
      <point x="380" y="403"/>
      <point x="341" y="448"/>
      <point x="326" y="448" type="curve" smooth="yes" name="n48"/>
      <point x="217" y="448"/>
      <point x="129" y="329"/>
      <point x="129" y="173" type="curve" smooth="yes" name="n51"/>
      <point x="129" y="97"/>
      <point x="160" y="49"/>
      <point x="210" y="49" type="curve" smooth="yes" name="n54"/>
      <point x="251" y="49"/>
      <point x="288" y="82"/>
      <point x="323" y="113" type="curve"/>
    </contour>
  </outline>
</glyph>
<glyph name="uni02A8" format="2">
  <advance width="645"/>
  <unicode hex="02A8"/>
  <outline>
    <contour>
      <point x="613" y="424" type="curve" smooth="yes"/>
      <point x="613" y="398"/>
      <point x="600" y="367"/>
      <point x="536" y="359" type="curve"/>
      <point x="479" y="436" type="line"/>
      <point x="455" y="435"/>
      <point x="420" y="420"/>
      <point x="391" y="381" type="curve" smooth="yes"/>
      <point x="360" y="341"/>
      <point x="337" y="274"/>
      <point x="337" y="186" type="curve" smooth="yes" name="n10"/>
      <point x="337" y="146"/>
      <point x="346" y="105"/>
      <point x="368" y="80" type="curve"/>
      <point x="399" y="148"/>
      <point x="441" y="210"/>
      <point x="520" y="210" type="curve" smooth="yes" name="n16"/>
      <point x="562" y="210"/>
      <point x="593" y="183"/>
      <point x="593" y="140" type="curve" smooth="yes" name="n19"/>
      <point x="593" y="45"/>
      <point x="482" y="-12"/>
      <point x="402" y="-12" type="curve" smooth="yes" name="n22"/>
      <point x="396" y="-12"/>
      <point x="383" y="-11"/>
      <point x="377" y="-10" type="curve"/>
      <point x="363" y="-48"/>
      <point x="349" y="-90"/>
      <point x="342" y="-129" type="curve" name="n28"/>
      <point x="294" y="-129" type="line"/>
      <point x="302" y="-88"/>
      <point x="316" y="-43"/>
      <point x="331" y="0" type="curve"/>
      <point x="316" y="7"/>
      <point x="302" y="17"/>
      <point x="290" y="29" type="curve"/>
      <point x="260" y="16"/>
      <point x="188" y="-12"/>
      <point x="138" y="-12" type="curve" smooth="yes" name="n38"/>
      <point x="66" y="-12"/>
      <point x="44" y="25"/>
      <point x="44" y="74" type="curve" smooth="yes"/>
      <point x="44" y="87"/>
      <point x="45" y="101"/>
      <point x="48" y="115" type="curve" smooth="yes"/>
      <point x="109" y="419" type="line"/>
      <point x="46" y="413" type="line"/>
      <point x="46" y="446" type="line"/>
      <point x="121" y="479" type="line"/>
      <point x="170" y="579" type="line"/>
      <point x="231" y="579" type="line" name="n50"/>
      <point x="211" y="465" type="line" name="hr01"/>
      <point x="300" y="465" type="line" name="n52"/>
      <point x="300" y="419" type="line" name="n53"/>
      <point x="202" y="419" type="line" name="n54"/>
      <point x="139" y="105" type="line" smooth="yes"/>
      <point x="131.979" y="70.0043"/>
      <point x="163" y="49"/>
      <point x="197" y="49" type="curve" smooth="yes" name="n58"/>
      <point x="220" y="49"/>
      <point x="245" y="55"/>
      <point x="266" y="62" type="curve"/>
      <point x="250" y="91"/>
      <point x="242" y="129"/>
      <point x="242" y="174" type="curve" smooth="yes" name="n64"/>
      <point x="242" y="353"/>
      <point x="375" y="494" name="n66"/>
      <point x="511" y="494" type="curve" smooth="yes"/>
      <point x="583" y="494"/>
      <point x="613" y="454"/>
    </contour>
    <contour>
      <point x="538" y="136" type="curve" smooth="yes" name="n70"/>
      <point x="538" y="151"/>
      <point x="529" y="162"/>
      <point x="511" y="162" type="curve" smooth="yes" name="n73"/>
      <point x="459" y="162"/>
      <point x="426" y="106"/>
      <point x="404" y="56" type="curve"/>
      <point x="415" y="54"/>
      <point x="430" y="51"/>
      <point x="443" y="51" type="curve" smooth="yes" name="n79"/>
      <point x="483" y="51"/>
      <point x="538" y="93"/>
    </contour>
  </outline>
</glyph>
<glyph name="uni02A9" format="2">
  <advance width="828"/>
  <unicode hex="02A9"/>
  <outline>
    <contour>
      <point x="441" y="675" type="curve" smooth="yes"/>
      <point x="441" y="643"/>
      <point x="415" y="626"/>
      <point x="378" y="621" type="curve"/>
      <point x="300" y="684" type="line"/>
      <point x="258" y="649"/>
      <point x="230" y="508"/>
      <point x="223" y="457" type="curve" name="n07"/>
      <point x="251.228" y="457"/>
      <point x="324.117" y="457"/>
      <point x="338" y="457" type="curve"/>
      <point x="367.023" y="464.112"/>
      <point x="472.968" y="490.072"/>
      <point x="489" y="494" type="curve" name="hr01"/>
      <point x="529" y="494" type="line"/>
      <point x="526.979" y="483.559"/>
      <point x="515.661" y="425.08"/>
      <point x="511" y="401" type="curve"/>
      <point x="555" y="446"/>
      <point x="629" y="494"/>
      <point x="696" y="494" type="curve" smooth="yes" name="n20"/>
      <point x="757" y="494"/>
      <point x="790" y="468"/>
      <point x="790" y="408" type="curve" smooth="yes"/>
      <point x="790" y="396"/>
      <point x="789" y="381"/>
      <point x="786" y="366" type="curve" smooth="yes"/>
      <point x="714" y="-9" type="line"/>
      <point x="693" y="-124"/>
      <point x="590" y="-229" name="n29"/>
      <point x="468" y="-229" type="curve" smooth="yes"/>
      <point x="413" y="-229"/>
      <point x="393" y="-204"/>
      <point x="393" y="-178" type="curve" smooth="yes"/>
      <point x="393" y="-132"/>
      <point x="447" y="-115"/>
      <point x="447" y="-115" type="curve"/>
      <point x="452.794" y="-119.383"/>
      <point x="517.522" y="-168.343"/>
      <point x="525" y="-174" type="curve"/>
      <point x="575" y="-155"/>
      <point x="592" y="-108"/>
      <point x="612" y="-7" type="curve" smooth="yes"/>
      <point x="629.4" y="77.8828"/>
      <point x="678.674" y="318.26"/>
      <point x="686" y="354" type="curve" smooth="yes"/>
      <point x="692" y="386"/>
      <point x="682" y="423"/>
      <point x="642" y="423" type="curve" smooth="yes" name="n48"/>
      <point x="610" y="423"/>
      <point x="542" y="383"/>
      <point x="498" y="336" type="curve"/>
      <point x="489.492" y="294.568"/>
      <point x="442.673" y="66.5796"/>
      <point x="429" y="0" type="curve" name="n54"/>
      <point x="415.929" y="0"/>
      <point x="352.941" y="0"/>
      <point x="335" y="0" type="curve"/>
      <point x="418" y="407" type="line" name="hr02"/>
      <point x="214" y="407" type="line" name="n59"/>
      <point x="208" y="362"/>
      <point x="172" y="96"/>
      <point x="154" y="22" type="curve" smooth="yes"/>
      <point x="127" y="-90"/>
      <point x="32" y="-229"/>
      <point x="-67" y="-229" type="curve" smooth="yes"/>
      <point x="-118" y="-229"/>
      <point x="-130" y="-189"/>
      <point x="-130" y="-179" type="curve" smooth="yes"/>
      <point x="-130" y="-154"/>
      <point x="-119" y="-142"/>
      <point x="-104" y="-131" type="curve"/>
      <point x="-2" y="-157" type="line"/>
      <point x="33" y="-114"/>
      <point x="56" y="-31"/>
      <point x="72" y="62" type="curve" smooth="yes"/>
      <point x="89" y="156"/>
      <point x="101" y="275"/>
      <point x="121" y="406" type="curve"/>
      <point x="44" y="398" type="line"/>
      <point x="45" y="437" type="line"/>
      <point x="132" y="466" type="line"/>
      <point x="152" y="572"/>
      <point x="212" y="737" name="n83"/>
      <point x="349" y="737" type="curve" smooth="yes"/>
      <point x="417" y="737"/>
      <point x="441" y="698"/>
    </contour>
  </outline>
</glyph>
<glyph name="uni02B4" format="2">
  <advance width="232"/>
  <unicode hex="02B4"/>
  <outline>
    <contour>
      <point x="276" y="672" type="line" name="n00"/>
      <point x="220" y="417" type="line"/>
      <point x="274" y="412" type="line"/>
      <point x="274" y="395" type="line"/>
      <point x="177" y="376" type="line"/>
      <point x="151" y="376" type="line"/>
      <point x="165" y="437" type="line"/>
      <point x="139" y="399"/>
      <point x="104" y="376"/>
      <point x="65" y="376" type="curve" smooth="yes" name="n09"/>
      <point x="33" y="376"/>
      <point x="23" y="400"/>
      <point x="23" y="417" type="curve" smooth="yes"/>
      <point x="23" y="445"/>
      <point x="45" y="448"/>
      <point x="81" y="448" type="curve" name="n15"/>
      <point x="97" y="419" type="line"/>
      <point x="129" y="432"/>
      <point x="174" y="486"/>
      <point x="182" y="521" type="curve" smooth="yes"/>
      <point x="216" y="672" type="line"/>
    </contour>
  </outline>
</glyph>
<glyph name="uni02B5" format="2">
  <advance width="318"/>
  <unicode hex="02B5"/>
  <outline>
    <contour>
      <point x="310" y="280" type="curve" smooth="yes" name="n00"/>
      <point x="310" y="257"/>
      <point x="283" y="246" name="n02"/>
      <point x="257" y="246" type="curve" smooth="yes"/>
      <point x="182" y="246"/>
      <point x="147" y="286"/>
      <point x="147" y="339" type="curve" smooth="yes" name="n06"/>
      <point x="147" y="351"/>
      <point x="149" y="363"/>
      <point x="151" y="377" type="curve"/>
      <point x="151" y="377"/>
      <point x="162.657" y="426.958"/>
      <point x="165" y="437" type="curve"/>
      <point x="139" y="399"/>
      <point x="104" y="376"/>
      <point x="65" y="376" type="curve" smooth="yes" name="n15"/>
      <point x="33" y="376"/>
      <point x="23" y="400"/>
      <point x="23" y="417" type="curve" smooth="yes"/>
      <point x="23" y="445"/>
      <point x="45" y="448"/>
      <point x="81" y="448" type="curve" name="n21"/>
      <point x="97" y="419" type="line"/>
      <point x="129" y="432"/>
      <point x="174.113" y="485.974"/>
      <point x="182" y="521" type="curve" smooth="yes"/>
      <point x="216" y="672" type="line" name="n26"/>
      <point x="276" y="672" type="line"/>
      <point x="210" y="371" type="line" smooth="yes"/>
      <point x="206" y="352"/>
      <point x="204" y="334" name="hr01"/>
      <point x="204" y="318" type="curve" smooth="yes" name="n31"/>
      <point x="204" y="297"/>
      <point x="208" y="280"/>
      <point x="221" y="273" type="curve"/>
      <point x="286" y="313" type="line"/>
      <point x="298" y="309"/>
      <point x="310" y="300" name="hr02"/>
    </contour>
  </outline>
</glyph>
<glyph name="uni02BA" format="2">
  <advance width="417"/>
  <unicode hex="02BA"/>
  <outline>
    <contour>
      <point x="504" y="689" type="curve" smooth="yes"/>
      <point x="504" y="670"/>
      <point x="494" y="658"/>
      <point x="480" y="648" type="curve"/>
      <point x="330" y="551" type="line"/>
      <point x="260" y="551" type="line" name="n05"/>
      <point x="396" y="707" type="line" smooth="yes"/>
      <point x="409.044" y="721.962"/>
      <point x="423" y="732"/>
      <point x="453" y="732" type="curve" smooth="yes"/>
      <point x="488" y="732"/>
      <point x="504" y="709"/>
    </contour>
    <contour>
      <point x="301" y="689" type="curve" smooth="yes"/>
      <point x="301" y="670"/>
      <point x="291" y="658"/>
      <point x="277" y="648" type="curve"/>
      <point x="126" y="551" type="line"/>
      <point x="57" y="551" type="line"/>
      <point x="192" y="707" type="line" smooth="yes"/>
      <point x="205" y="722"/>
      <point x="220" y="732"/>
      <point x="250" y="732" type="curve" smooth="yes" name="n21"/>
      <point x="285" y="732"/>
      <point x="301" y="709"/>
    </contour>
  </outline>
</glyph>
<glyph name="uni02BB" format="2">
  <advance width="253"/>
  <unicode hex="02BB"/>
  <outline>
    <contour>
      <point x="284" y="706" type="line" name="n00"/>
      <point x="239" y="663"/>
      <point x="172" y="600"/>
      <point x="170" y="533" type="curve" name="n03"/>
      <point x="231" y="533" type="line"/>
      <point x="235" y="528"/>
      <point x="241" y="520" name="hr01"/>
      <point x="241" y="502" type="curve" smooth="yes" name="n07"/>
      <point x="241" y="469"/>
      <point x="210" y="430"/>
      <point x="166" y="430" type="curve" smooth="yes" name="n10"/>
      <point x="122" y="430"/>
      <point x="90" y="453"/>
      <point x="90" y="505" type="curve" smooth="yes" name="n13"/>
      <point x="90" y="588"/>
      <point x="183" y="673"/>
      <point x="226" y="706" type="curve"/>
    </contour>
  </outline>
</glyph>
<glyph name="uni02BC" format="2">
  <advance width="253"/>
  <unicode hex="02BC"/>
  <outline>
    <contour>
      <point x="287" y="633" type="curve" smooth="yes" name="n00"/>
      <point x="287" y="548"/>
      <point x="196" y="463"/>
      <point x="153" y="430" type="curve" name="n03"/>
      <point x="93" y="430" type="line"/>
      <point x="138" y="473"/>
      <point x="207" y="536"/>
      <point x="207" y="604" type="curve" name="n07"/>
      <point x="145" y="604" type="line"/>
      <point x="142" y="609"/>
      <point x="136" y="619" name="hr01"/>
      <point x="136" y="632" type="curve" smooth="yes" name="n11"/>
      <point x="136" y="665"/>
      <point x="169" y="706"/>
      <point x="214" y="706" type="curve" smooth="yes" name="n14"/>
      <point x="246" y="706"/>
      <point x="287" y="691"/>
    </contour>
  </outline>
</glyph>
<glyph name="uni02BE" format="2">
  <advance width="274"/>
  <unicode hex="02BE"/>
  <outline>
    <contour>
      <point x="274" y="562" type="curve" smooth="yes" name="n00"/>
      <point x="274" y="440"/>
      <point x="183" y="346"/>
      <point x="61" y="346" type="curve" name="n03"/>
      <point x="69" y="396" type="line" name="n04"/>
      <point x="160" y="396"/>
      <point x="224" y="462"/>
      <point x="224" y="552" type="curve" smooth="yes" name="n07"/>
      <point x="224" y="615"/>
      <point x="179" y="645"/>
      <point x="120" y="645" type="curve" name="n10"/>
      <point x="129" y="696" type="line" name="n11"/>
      <point x="214" y="696"/>
      <point x="274" y="650"/>
    </contour>
  </outline>
</glyph>
<glyph name="uni02C1" format="2">
  <advance width="291"/>
  <unicode hex="02C1"/>
  <outline>
    <contour>
      <point x="356" y="744" type="curve" smooth="yes"/>
      <point x="356" y="719"/>
      <point x="336" y="701"/>
      <point x="310" y="701" type="curve" smooth="yes"/>
      <point x="307.391" y="701"/>
      <point x="296.476" y="701"/>
      <point x="294" y="701" type="curve" name="n06"/>
      <point x="281" y="760" type="line" name="n07"/>
      <point x="213" y="760"/>
      <point x="167" y="735"/>
      <point x="167" y="666" type="curve" smooth="yes" name="n10"/>
      <point x="167" y="613"/>
      <point x="212" y="589"/>
      <point x="250" y="577" type="curve"/>
      <point x="216" y="426" type="line"/>
      <point x="215" y="420"/>
      <point x="223" y="414"/>
      <point x="229" y="414" type="curve"/>
      <point x="262" y="411" type="line"/>
      <point x="262" y="383" type="line" name="n19"/>
      <point x="106" y="383" type="line"/>
      <point x="106" y="411" type="line"/>
      <point x="140" y="414" type="line"/>
      <point x="146" y="414"/>
      <point x="155" y="420"/>
      <point x="156" y="426" type="curve"/>
      <point x="185" y="555" type="line"/>
      <point x="141" y="575"/>
      <point x="98" y="589"/>
      <point x="98" y="669" type="curve" smooth="yes" name="n29"/>
      <point x="98" y="759"/>
      <point x="189" y="792"/>
      <point x="273" y="792" type="curve" smooth="yes" name="n32"/>
      <point x="336" y="792"/>
      <point x="356" y="767"/>
    </contour>
  </outline>
</glyph>
<glyph name="circumflex" format="2">
  <advance width="342"/>
  <unicode hex="02C6"/>
  <outline>
    <contour>
      <point x="400" y="551" type="line" name="n00"/>
      <point x="330" y="551" type="line"/>
      <point x="248" y="643" type="line"/>
      <point x="128" y="551" type="line"/>
      <point x="58" y="551" type="line"/>
      <point x="223" y="720" type="line" name="n05"/>
      <point x="302" y="720" type="line"/>
    </contour>
  </outline>
</glyph>
<glyph name="uni02CE" format="2">
  <advance width="258"/>
  <unicode hex="02CE"/>
  <outline>
    <contour>
      <point x="155" y="-242" type="line" name="n00"/>
      <point x="93" y="-242" type="line"/>
      <point x="-52" y="-147" type="line" smooth="yes"/>
      <point x="-66" y="-138"/>
      <point x="-75" y="-125"/>
      <point x="-75" y="-105" type="curve" smooth="yes"/>
      <point x="-75" y="-85"/>
      <point x="-65" y="-61" name="n07"/>
      <point x="-30" y="-61" type="curve" smooth="yes"/>
      <point x="-2" y="-61"/>
      <point x="8.98524" y="-72.0127"/>
      <point x="21" y="-86" type="curve" smooth="yes"/>
    </contour>
  </outline>
</glyph>
<glyph name="uni02D0" format="2">
  <advance width="195"/>
  <unicode hex="02D0"/>
  <outline>
    <contour>
      <point x="225" y="481" type="line"/>
      <point x="146" y="316" type="line"/>
      <point x="73" y="316" type="line" name="n02"/>
      <point x="58" y="481" type="line" name="n03"/>
    </contour>
    <contour>
      <point x="131" y="0" type="line" name="n04"/>
      <point x="-36" y="0" type="line"/>
      <point x="44" y="165" type="line"/>
      <point x="116" y="165" type="line" name="n07"/>
    </contour>
  </outline>
</glyph>
<glyph name="dotaccent" format="2">
  <advance width="112"/>
  <unicode hex="02D9"/>
  <outline>
    <contour>
      <point x="191" y="641" type="curve" smooth="yes" name="n00"/>
      <point x="191" y="610"/>
      <point x="166" y="585"/>
      <point x="135" y="585" type="curve" smooth="yes" name="n03"/>
      <point x="104" y="585"/>
      <point x="79" y="610"/>
      <point x="79" y="641" type="curve" smooth="yes" name="n06"/>
      <point x="79" y="672"/>
      <point x="103" y="698"/>
      <point x="135" y="698" type="curve" smooth="yes" name="n09"/>
      <point x="166" y="698"/>
      <point x="191" y="673"/>
    </contour>
  </outline>
</glyph>
<glyph name="ring" format="2">
  <advance width="233"/>
  <unicode hex="02DA"/>
  <outline>
    <contour>
      <point x="179" y="551" type="curve" smooth="yes" name="n00"/>
      <point x="123" y="551"/>
      <point x="82" y="591"/>
      <point x="82" y="646" type="curve" smooth="yes" name="n03"/>
      <point x="82" y="719"/>
      <point x="148" y="785"/>
      <point x="221" y="785" type="curve" smooth="yes" name="n06"/>
      <point x="277" y="785"/>
      <point x="319" y="745"/>
      <point x="319" y="689" type="curve" smooth="yes" name="n09"/>
      <point x="319" y="615"/>
      <point x="252" y="551"/>
    </contour>
    <contour>
      <point x="267" y="682" type="curve" smooth="yes" name="n12"/>
      <point x="267" y="713"/>
      <point x="244" y="733"/>
      <point x="214" y="733" type="curve" smooth="yes" name="n15"/>
      <point x="173" y="733"/>
      <point x="133" y="697"/>
      <point x="133" y="655" type="curve" smooth="yes" name="n18"/>
      <point x="133" y="624"/>
      <point x="157" y="603"/>
      <point x="187" y="603" type="curve" smooth="yes" name="n21"/>
      <point x="228" y="603"/>
      <point x="267" y="641"/>
    </contour>
  </outline>
</glyph>
<glyph name="ogonek" format="2">
  <advance width="184"/>
  <unicode hex="02DB"/>
  <outline>
    <contour>
      <point x="66" y="0" type="line"/>
      <point x="14.0242" y="-40.7378"/>
      <point x="-19.4837" y="-88.2114"/>
      <point x="-19.4837" y="-124.983" type="curve" smooth="yes" name="n03"/>
      <point x="-19.4837" y="-146.124"/>
      <point x="-8.4076" y="-157" name="hr01"/>
      <point x="11.5787" y="-157" type="curve" smooth="yes" name="n06"/>
      <point x="30.7716" y="-157"/>
      <point x="55.3385" y="-147.408"/>
      <point x="71.6689" y="-132.634" type="curve"/>
      <point x="89.7636" y="-175.183" type="line"/>
      <point x="57.4813" y="-199.621"/>
      <point x="14.6284" y="-216"/>
      <point x="-17.027" y="-216" type="curve" smooth="yes" name="n13"/>
      <point x="-57.8711" y="-216"/>
      <point x="-82.3991" y="-190.8"/>
      <point x="-82" y="-149.246" type="curve" smooth="yes" name="n16"/>
      <point x="-81.5284" y="-100.149"/>
      <point x="-44.4886" y="-40.5245"/>
      <point x="12" y="0" type="curve" name="n19"/>
    </contour>
  </outline>
</glyph>
<glyph name="uni02E0" format="2">
  <advance width="300"/>
  <unicode hex="02E0"/>
  <outline>
    <contour>
      <point x="358" y="643" type="curve" smooth="yes"/>
      <point x="358" y="623"/>
      <point x="349" y="606"/>
      <point x="345" y="599" type="curve" smooth="yes"/>
      <point x="305" y="530"/>
      <point x="262" y="477"/>
      <point x="204" y="412" type="curve"/>
      <point x="205" y="403"/>
      <point x="213" y="329"/>
      <point x="213" y="321" type="curve" smooth="yes" name="n09"/>
      <point x="213" y="285"/>
      <point x="177" y="245"/>
      <point x="134" y="245" type="curve" smooth="yes" name="n12"/>
      <point x="97" y="245"/>
      <point x="65" y="263"/>
      <point x="65" y="301" type="curve" smooth="yes" name="n15"/>
      <point x="65" y="337"/>
      <point x="115" y="386"/>
      <point x="146" y="409" type="curve"/>
      <point x="140" y="467"/>
      <point x="132" y="576"/>
      <point x="117" y="627" type="curve"/>
      <point x="115" y="636"/>
      <point x="110" y="639"/>
      <point x="103" y="640" type="curve"/>
      <point x="103" y="640"/>
      <point x="68.2518" y="641.511"/>
      <point x="57" y="642" type="curve"/>
      <point x="57" y="660" type="line"/>
      <point x="126" y="679" type="line" name="n29"/>
      <point x="161" y="679"/>
      <point x="176" y="665"/>
      <point x="179" y="637" type="curve" smooth="yes"/>
      <point x="200" y="452" type="line"/>
      <point x="244" y="505"/>
      <point x="273" y="546"/>
      <point x="293" y="593" type="curve"/>
      <point x="281" y="666" type="line"/>
      <point x="290" y="674"/>
      <point x="303" y="679"/>
      <point x="319" y="679" type="curve" smooth="yes"/>
      <point x="346" y="679"/>
      <point x="358" y="665"/>
    </contour>
    <contour>
      <point x="154" y="326" type="curve" smooth="yes" name="n43"/>
      <point x="154" y="332"/>
      <point x="150" y="358"/>
      <point x="148" y="369" type="curve"/>
      <point x="138" y="360"/>
      <point x="103" y="319"/>
      <point x="103" y="308" type="curve" smooth="yes" name="n49"/>
      <point x="103" y="299"/>
      <point x="109" y="287"/>
      <point x="122" y="287" type="curve" smooth="yes" name="n52"/>
      <point x="136" y="287"/>
      <point x="154" y="301"/>
    </contour>
  </outline>
</glyph>
<glyph name="uni02E1" format="2">
  <advance width="171"/>
  <unicode hex="02E1"/>
  <outline>
    <contour>
      <point x="227" y="398" type="line"/>
      <point x="216" y="395"/>
      <point x="167" y="376"/>
      <point x="136" y="376" type="curve" smooth="yes" name="n03"/>
      <point x="96" y="376"/>
      <point x="81" y="393"/>
      <point x="81" y="419" type="curve" smooth="yes"/>
      <point x="81" y="425"/>
      <point x="82" y="433"/>
      <point x="83" y="440" type="curve"/>
      <point x="155" y="784" type="line"/>
      <point x="97" y="789" type="line"/>
      <point x="97" y="807" type="line"/>
      <point x="198" y="825" type="line" name="n13"/>
      <point x="225" y="825" type="line"/>
      <point x="145" y="442" type="line" smooth="yes"/>
      <point x="141" y="425"/>
      <point x="155" y="409"/>
      <point x="174" y="409" type="curve" smooth="yes" name="n18"/>
      <point x="187" y="409"/>
      <point x="220" y="419"/>
      <point x="227" y="421" type="curve"/>
    </contour>
  </outline>
</glyph>
